<mxfile host="app.diagrams.net" agent="Mozilla/5.0 (Macintosh; Intel Mac OS X 10_15_7) AppleWebKit/537.36 (KHTML, like Gecko) Chrome/139.0.0.0 Safari/537.36" version="28.1.1">
  <diagram id="07fea595-8f29-1299-0266-81d95cde20df" name="Page-1">
    <mxGraphModel dx="3228" dy="1055" grid="1" gridSize="10" guides="1" tooltips="1" connect="1" arrows="1" fold="1" page="1" pageScale="1" pageWidth="1169" pageHeight="827" background="#ffffff" math="0" shadow="0">
      <root>
        <mxCell id="0" />
        <mxCell id="1" parent="0" />
        <mxCell id="OaKwWm5t6I1wfVNcC-3h-768" value="" style="rounded=0;whiteSpace=wrap;html=1;fillColor=none;dashed=1;" vertex="1" parent="1">
          <mxGeometry x="950" y="1872" width="160" height="133" as="geometry" />
        </mxCell>
        <mxCell id="170" value="&lt;font color=&quot;#23497d&quot;&gt;CN&lt;/font&gt;" style="swimlane;whiteSpace=wrap;fillColor=none;swimlaneFillColor=#BAC8D3;fontColor=#FEFAE0;fontFamily=Tahoma;html=1;strokeColor=none;opacity=50;labelBackgroundColor=none;" parent="1" vertex="1">
          <mxGeometry x="-380" y="50" width="880" height="490" as="geometry">
            <mxRectangle x="20" y="20" width="80" height="23" as="alternateBounds" />
          </mxGeometry>
        </mxCell>
        <mxCell id="OaKwWm5t6I1wfVNcC-3h-254" style="edgeStyle=orthogonalEdgeStyle;rounded=0;orthogonalLoop=1;jettySize=auto;html=1;entryX=0.5;entryY=0;entryDx=0;entryDy=0;strokeColor=#DDA15E;fontColor=#FEFAE0;fillColor=#BC6C25;" edge="1" parent="170" source="171" target="189">
          <mxGeometry relative="1" as="geometry" />
        </mxCell>
        <mxCell id="OaKwWm5t6I1wfVNcC-3h-257" style="edgeStyle=orthogonalEdgeStyle;rounded=0;orthogonalLoop=1;jettySize=auto;html=1;entryX=0.5;entryY=0;entryDx=0;entryDy=0;strokeColor=#DDA15E;fontColor=#FEFAE0;fillColor=#BC6C25;" edge="1" parent="170" source="171" target="OaKwWm5t6I1wfVNcC-3h-256">
          <mxGeometry relative="1" as="geometry" />
        </mxCell>
        <mxCell id="171" value="Security Issuer" style="whiteSpace=wrap;shadow=0;fontColor=#FEFAE0;fontFamily=Helvetica;fontStyle=0;html=1;fontSize=12;plain-purple;strokeColor=none;fillColor=#BC6C25;spacing=6;verticalAlign=middle;labelBackgroundColor=none;" parent="170" vertex="1">
          <mxGeometry x="240" y="50" width="120" height="60" as="geometry" />
        </mxCell>
        <mxCell id="OaKwWm5t6I1wfVNcC-3h-255" style="edgeStyle=orthogonalEdgeStyle;rounded=0;orthogonalLoop=1;jettySize=auto;html=1;entryX=0.25;entryY=0;entryDx=0;entryDy=0;strokeColor=#DDA15E;fontColor=#FEFAE0;fillColor=#BC6C25;" edge="1" parent="170" source="189" target="172">
          <mxGeometry relative="1" as="geometry" />
        </mxCell>
        <mxCell id="189" value="Initial Registration" style="shape=document;whiteSpace=wrap;verticalAlign=middle;strokeColor=none;fillColor=#BC6C25;shadow=0;fontColor=#FEFAE0;fontFamily=Helvetica;fontStyle=0;html=1;fontSize=12;spacing=6;spacingBottom=22;labelBackgroundColor=none;" parent="170" vertex="1">
          <mxGeometry x="240" y="161" width="120" height="80" as="geometry" />
        </mxCell>
        <mxCell id="OaKwWm5t6I1wfVNcC-3h-238" style="edgeStyle=orthogonalEdgeStyle;rounded=0;orthogonalLoop=1;jettySize=auto;html=1;entryX=0;entryY=0.25;entryDx=0;entryDy=0;strokeColor=#DDA15E;fontColor=#FEFAE0;fillColor=#BC6C25;exitX=1;exitY=0.25;exitDx=0;exitDy=0;" edge="1" parent="170" source="172" target="OaKwWm5t6I1wfVNcC-3h-230">
          <mxGeometry relative="1" as="geometry" />
        </mxCell>
        <mxCell id="OaKwWm5t6I1wfVNcC-3h-251" value="&lt;font style=&quot;color: rgb(25, 0, 51);&quot;&gt;Security Settlement&lt;/font&gt;" style="edgeLabel;html=1;align=center;verticalAlign=middle;resizable=0;points=[];strokeColor=#DDA15E;fontColor=#FEFAE0;fillColor=#BC6C25;" vertex="1" connectable="0" parent="OaKwWm5t6I1wfVNcC-3h-238">
          <mxGeometry x="0.08" y="3" relative="1" as="geometry">
            <mxPoint y="1" as="offset" />
          </mxGeometry>
        </mxCell>
        <mxCell id="172" value="CSDC" style="whiteSpace=wrap;strokeColor=none;fillColor=#BC6C25;shadow=0;fontColor=#FEFAE0;fontFamily=Helvetica;fontStyle=0;html=1;fontSize=12;spacing=6;verticalAlign=middle;labelBackgroundColor=none;gradientColor=#FF0000;" parent="170" vertex="1">
          <mxGeometry x="430" y="295.5" width="120" height="60" as="geometry" />
        </mxCell>
        <mxCell id="OaKwWm5t6I1wfVNcC-3h-226" style="edgeStyle=orthogonalEdgeStyle;rounded=0;orthogonalLoop=1;jettySize=auto;html=1;strokeColor=#DDA15E;fontColor=#FEFAE0;fillColor=#BC6C25;" edge="1" parent="170" source="OaKwWm5t6I1wfVNcC-3h-221" target="OaKwWm5t6I1wfVNcC-3h-218">
          <mxGeometry relative="1" as="geometry" />
        </mxCell>
        <mxCell id="OaKwWm5t6I1wfVNcC-3h-221" value="Brokers" style="whiteSpace=wrap;shadow=0;fontColor=#FEFAE0;fontFamily=Helvetica;fontStyle=0;html=1;fontSize=12;plain-purple;strokeColor=none;fillColor=#BC6C25;spacing=6;verticalAlign=middle;labelBackgroundColor=none;gradientColor=#15039C;" vertex="1" parent="170">
          <mxGeometry x="80" y="295.5" width="120" height="60" as="geometry" />
        </mxCell>
        <mxCell id="185" value="&lt;font color=&quot;#ffffff&quot;&gt;Prospectus&lt;/font&gt; " style="shape=document;whiteSpace=wrap;verticalAlign=middle;strokeColor=none;fillColor=#BC6C25;shadow=0;fontColor=#FEFAE0;fontFamily=Helvetica;fontStyle=0;html=1;fontSize=12;spacing=6;spacingBottom=22;labelBackgroundColor=none;" parent="170" vertex="1">
          <mxGeometry x="240" y="285.5" width="120" height="80" as="geometry" />
        </mxCell>
        <mxCell id="OaKwWm5t6I1wfVNcC-3h-220" style="edgeStyle=orthogonalEdgeStyle;rounded=0;orthogonalLoop=1;jettySize=auto;html=1;entryX=1;entryY=0.5;entryDx=0;entryDy=0;strokeColor=#DDA15E;fontColor=#FEFAE0;fillColor=#BC6C25;" edge="1" parent="170" source="172" target="185">
          <mxGeometry relative="1" as="geometry" />
        </mxCell>
        <mxCell id="OaKwWm5t6I1wfVNcC-3h-224" style="edgeStyle=orthogonalEdgeStyle;rounded=0;orthogonalLoop=1;jettySize=auto;html=1;strokeColor=#DDA15E;fontColor=#FEFAE0;fillColor=#BC6C25;" edge="1" parent="170" source="185" target="OaKwWm5t6I1wfVNcC-3h-221">
          <mxGeometry relative="1" as="geometry" />
        </mxCell>
        <mxCell id="OaKwWm5t6I1wfVNcC-3h-218" value="&lt;font style=&quot;font-size: 13px; color: rgb(25, 0, 51);&quot;&gt;Investor&lt;/font&gt;" style="shape=umlActor;verticalLabelPosition=bottom;verticalAlign=top;html=1;outlineConnect=0;strokeColor=#DDA15E;fontColor=#FEFAE0;fillColor=#BC6C25;" vertex="1" parent="170">
          <mxGeometry x="125" y="171" width="30" height="60" as="geometry" />
        </mxCell>
        <mxCell id="OaKwWm5t6I1wfVNcC-3h-219" style="edgeStyle=orthogonalEdgeStyle;rounded=0;orthogonalLoop=1;jettySize=auto;html=1;strokeColor=#DDA15E;fontColor=#FEFAE0;fillColor=#BC6C25;entryX=0;entryY=0.5;entryDx=0;entryDy=0;" edge="1" parent="170" source="OaKwWm5t6I1wfVNcC-3h-218" target="189">
          <mxGeometry relative="1" as="geometry">
            <mxPoint x="220" y="150" as="targetPoint" />
          </mxGeometry>
        </mxCell>
        <mxCell id="OaKwWm5t6I1wfVNcC-3h-241" style="edgeStyle=orthogonalEdgeStyle;rounded=0;orthogonalLoop=1;jettySize=auto;html=1;entryX=0.75;entryY=0;entryDx=0;entryDy=0;strokeColor=#6c8ebf;fontColor=#FEFAE0;fillColor=#dae8fc;exitX=1;exitY=1;exitDx=0;exitDy=0;exitPerimeter=0;" edge="1" parent="170" source="OaKwWm5t6I1wfVNcC-3h-227" target="OaKwWm5t6I1wfVNcC-3h-228">
          <mxGeometry relative="1" as="geometry" />
        </mxCell>
        <mxCell id="OaKwWm5t6I1wfVNcC-3h-247" value="" style="edgeLabel;html=1;align=center;verticalAlign=middle;resizable=0;points=[];strokeColor=#DDA15E;fontColor=#FEFAE0;fillColor=#BC6C25;" vertex="1" connectable="0" parent="OaKwWm5t6I1wfVNcC-3h-241">
          <mxGeometry x="0.0581" y="-1" relative="1" as="geometry">
            <mxPoint x="1" y="1" as="offset" />
          </mxGeometry>
        </mxCell>
        <mxCell id="OaKwWm5t6I1wfVNcC-3h-227" value="&lt;font style=&quot;font-size: 13px; color: rgb(0, 0, 0);&quot;&gt;Investor&lt;/font&gt;" style="shape=umlActor;verticalLabelPosition=bottom;verticalAlign=top;html=1;outlineConnect=0;strokeColor=#DDA15E;fontColor=#FEFAE0;fillColor=#BC6C25;" vertex="1" parent="170">
          <mxGeometry x="745" y="30" width="30" height="60" as="geometry" />
        </mxCell>
        <mxCell id="OaKwWm5t6I1wfVNcC-3h-239" style="edgeStyle=orthogonalEdgeStyle;rounded=0;orthogonalLoop=1;jettySize=auto;html=1;entryX=0.75;entryY=0;entryDx=0;entryDy=0;strokeColor=#6c8ebf;fontColor=#FEFAE0;fillColor=#dae8fc;exitX=0.75;exitY=0.675;exitDx=0;exitDy=0;exitPerimeter=0;" edge="1" parent="170" source="OaKwWm5t6I1wfVNcC-3h-228" target="OaKwWm5t6I1wfVNcC-3h-230">
          <mxGeometry relative="1" as="geometry" />
        </mxCell>
        <mxCell id="OaKwWm5t6I1wfVNcC-3h-228" value="Change Registration" style="shape=document;whiteSpace=wrap;verticalAlign=middle;strokeColor=none;fillColor=#BC6C25;shadow=0;fontColor=#FEFAE0;fontFamily=Helvetica;fontStyle=0;html=1;fontSize=12;spacing=6;spacingBottom=22;labelBackgroundColor=none;" vertex="1" parent="170">
          <mxGeometry x="700" y="161" width="120" height="80" as="geometry" />
        </mxCell>
        <mxCell id="OaKwWm5t6I1wfVNcC-3h-237" value="" style="rounded=0;orthogonalLoop=1;jettySize=auto;html=1;entryX=0.75;entryY=0;entryDx=0;entryDy=0;strokeColor=#6c8ebf;fontColor=#FEFAE0;fillColor=#dae8fc;exitX=0;exitY=0.75;exitDx=0;exitDy=0;" edge="1" parent="170" source="OaKwWm5t6I1wfVNcC-3h-230" target="OaKwWm5t6I1wfVNcC-3h-249">
          <mxGeometry x="0.0036" relative="1" as="geometry">
            <mxPoint as="offset" />
          </mxGeometry>
        </mxCell>
        <mxCell id="OaKwWm5t6I1wfVNcC-3h-240" value="" style="edgeStyle=orthogonalEdgeStyle;rounded=0;orthogonalLoop=1;jettySize=auto;html=1;strokeColor=#6c8ebf;fontColor=#FEFAE0;fillColor=#dae8fc;exitX=0.25;exitY=0;exitDx=0;exitDy=0;" edge="1" parent="170" source="OaKwWm5t6I1wfVNcC-3h-230">
          <mxGeometry relative="1" as="geometry">
            <mxPoint x="730" y="236" as="targetPoint" />
          </mxGeometry>
        </mxCell>
        <mxCell id="OaKwWm5t6I1wfVNcC-3h-230" value="Brokers" style="whiteSpace=wrap;shadow=0;fontColor=#FEFAE0;fontFamily=Helvetica;fontStyle=0;html=1;fontSize=12;plain-purple;strokeColor=none;fillColor=#BC6C25;spacing=6;verticalAlign=middle;labelBackgroundColor=none;gradientColor=#15039C;" vertex="1" parent="170">
          <mxGeometry x="700" y="295.5" width="120" height="60" as="geometry" />
        </mxCell>
        <mxCell id="OaKwWm5t6I1wfVNcC-3h-242" value="Bank" style="whiteSpace=wrap;shadow=0;fontColor=#FEFAE0;fontFamily=Helvetica;fontStyle=0;html=1;fontSize=12;plain-purple;strokeColor=none;fillColor=#BC6C25;spacing=6;verticalAlign=middle;labelBackgroundColor=none;gradientColor=#008F9C;" vertex="1" parent="170">
          <mxGeometry x="550" y="200" width="120" height="60" as="geometry" />
        </mxCell>
        <mxCell id="OaKwWm5t6I1wfVNcC-3h-245" style="edgeStyle=orthogonalEdgeStyle;rounded=0;orthogonalLoop=1;jettySize=auto;html=1;entryX=0;entryY=1;entryDx=0;entryDy=0;entryPerimeter=0;strokeColor=#6c8ebf;fontColor=#FEFAE0;fillColor=#dae8fc;exitX=0.25;exitY=0;exitDx=0;exitDy=0;" edge="1" parent="170" source="OaKwWm5t6I1wfVNcC-3h-228" target="OaKwWm5t6I1wfVNcC-3h-227">
          <mxGeometry relative="1" as="geometry" />
        </mxCell>
        <mxCell id="OaKwWm5t6I1wfVNcC-3h-248" value="" style="edgeLabel;html=1;align=center;verticalAlign=middle;resizable=0;points=[];strokeColor=#DDA15E;fontColor=#FEFAE0;fillColor=#BC6C25;" vertex="1" connectable="0" parent="OaKwWm5t6I1wfVNcC-3h-245">
          <mxGeometry x="-0.2558" y="3" relative="1" as="geometry">
            <mxPoint as="offset" />
          </mxGeometry>
        </mxCell>
        <mxCell id="OaKwWm5t6I1wfVNcC-3h-250" style="rounded=0;orthogonalLoop=1;jettySize=auto;html=1;entryX=1;entryY=0.75;entryDx=0;entryDy=0;strokeColor=#6c8ebf;fontColor=#FEFAE0;fillColor=#dae8fc;" edge="1" parent="170" source="OaKwWm5t6I1wfVNcC-3h-249" target="172">
          <mxGeometry relative="1" as="geometry" />
        </mxCell>
        <mxCell id="OaKwWm5t6I1wfVNcC-3h-252" value="" style="edgeLabel;html=1;align=center;verticalAlign=middle;resizable=0;points=[];strokeColor=#DDA15E;fontColor=#FEFAE0;fillColor=#BC6C25;" vertex="1" connectable="0" parent="OaKwWm5t6I1wfVNcC-3h-250">
          <mxGeometry x="-0.1065" y="1" relative="1" as="geometry">
            <mxPoint as="offset" />
          </mxGeometry>
        </mxCell>
        <mxCell id="OaKwWm5t6I1wfVNcC-3h-249" value="SSE /&amp;nbsp;&lt;span style=&quot;background-color: transparent; color: light-dark(rgb(254, 250, 224), rgb(27, 24, 1));&quot;&gt;SZSE /&lt;/span&gt;&lt;div&gt;BSE&lt;/div&gt;" style="whiteSpace=wrap;shadow=0;fontColor=#FEFAE0;fontFamily=Helvetica;fontStyle=0;html=1;fontSize=12;plain-purple;strokeColor=none;fillColor=#BC6C25;spacing=6;verticalAlign=middle;labelBackgroundColor=none;gradientColor=#9C0505;" vertex="1" parent="170">
          <mxGeometry x="560" y="400" width="120" height="60" as="geometry" />
        </mxCell>
        <mxCell id="OaKwWm5t6I1wfVNcC-3h-258" style="edgeStyle=orthogonalEdgeStyle;rounded=0;orthogonalLoop=1;jettySize=auto;html=1;entryX=0.5;entryY=0;entryDx=0;entryDy=0;strokeColor=#DDA15E;fontColor=#FEFAE0;fillColor=#BC6C25;" edge="1" parent="170" source="OaKwWm5t6I1wfVNcC-3h-256" target="172">
          <mxGeometry relative="1" as="geometry" />
        </mxCell>
        <mxCell id="OaKwWm5t6I1wfVNcC-3h-256" value="Coporate Actions" style="shape=document;whiteSpace=wrap;verticalAlign=middle;strokeColor=none;fillColor=#BC6C25;shadow=0;fontColor=#FEFAE0;fontFamily=Helvetica;fontStyle=0;html=1;fontSize=12;spacing=6;spacingBottom=22;labelBackgroundColor=none;" vertex="1" parent="170">
          <mxGeometry x="445" y="140" width="90" height="50" as="geometry" />
        </mxCell>
        <mxCell id="OaKwWm5t6I1wfVNcC-3h-259" value="&lt;font style=&quot;color: rgb(25, 0, 51);&quot;&gt;T+1&lt;/font&gt;" style="text;strokeColor=none;align=center;fillColor=none;html=1;verticalAlign=middle;whiteSpace=wrap;rounded=0;fontColor=#FEFAE0;" vertex="1" parent="170">
          <mxGeometry x="590" y="334" width="60" height="30" as="geometry" />
        </mxCell>
        <mxCell id="OaKwWm5t6I1wfVNcC-3h-244" style="rounded=0;orthogonalLoop=1;jettySize=auto;html=1;strokeColor=#6c8ebf;fontColor=#FEFAE0;fillColor=#dae8fc;startArrow=classic;startFill=1;" edge="1" parent="170">
          <mxGeometry relative="1" as="geometry">
            <mxPoint x="660" y="265.5" as="sourcePoint" />
            <mxPoint x="700" y="285.5" as="targetPoint" />
          </mxGeometry>
        </mxCell>
        <mxCell id="OaKwWm5t6I1wfVNcC-3h-426" value="&lt;font style=&quot;color: rgb(25, 0, 51);&quot;&gt;Cash Settlement&lt;/font&gt;" style="edgeLabel;html=1;align=center;verticalAlign=middle;resizable=0;points=[];strokeColor=#DDA15E;fontColor=#FEFAE0;fillColor=#BC6C25;" vertex="1" connectable="0" parent="170">
          <mxGeometry x="610" y="280" as="geometry">
            <mxPoint x="1" y="-1" as="offset" />
          </mxGeometry>
        </mxCell>
        <mxCell id="OaKwWm5t6I1wfVNcC-3h-428" value="&lt;font style=&quot;color: rgb(25, 0, 51);&quot;&gt;Clearing&lt;/font&gt;" style="edgeLabel;html=1;align=center;verticalAlign=middle;resizable=0;points=[];strokeColor=#DDA15E;fontColor=#FEFAE0;fillColor=#BC6C25;" vertex="1" connectable="0" parent="170">
          <mxGeometry x="660" y="334" as="geometry">
            <mxPoint x="-37" y="-9" as="offset" />
          </mxGeometry>
        </mxCell>
        <mxCell id="OaKwWm5t6I1wfVNcC-3h-504" value="&lt;font style=&quot;color: rgb(25, 0, 51);&quot;&gt;Order&lt;/font&gt;" style="text;strokeColor=none;align=center;fillColor=none;html=1;verticalAlign=middle;whiteSpace=wrap;rounded=0;fontColor=#FEFAE0;" vertex="1" parent="170">
          <mxGeometry x="730" y="131" width="60" height="30" as="geometry" />
        </mxCell>
        <mxCell id="183" value="&lt;font color=&quot;#23497d&quot;&gt;HK&lt;/font&gt;" style="swimlane;whiteSpace=wrap;fillColor=none;swimlaneFillColor=#BAC8D3;fontColor=#FEFAE0;fontFamily=Tahoma;html=1;strokeColor=none;opacity=25;labelBackgroundColor=none;" parent="1" vertex="1">
          <mxGeometry x="500" y="50" width="810" height="490" as="geometry">
            <mxRectangle x="20" y="20" width="80" height="23" as="alternateBounds" />
          </mxGeometry>
        </mxCell>
        <mxCell id="OaKwWm5t6I1wfVNcC-3h-294" style="edgeStyle=orthogonalEdgeStyle;rounded=0;orthogonalLoop=1;jettySize=auto;html=1;entryX=0.5;entryY=0;entryDx=0;entryDy=0;strokeColor=#DDA15E;fontColor=#FEFAE0;fillColor=#BC6C25;" edge="1" parent="183" source="OaKwWm5t6I1wfVNcC-3h-296" target="OaKwWm5t6I1wfVNcC-3h-298">
          <mxGeometry relative="1" as="geometry" />
        </mxCell>
        <mxCell id="OaKwWm5t6I1wfVNcC-3h-408" style="edgeStyle=orthogonalEdgeStyle;rounded=0;orthogonalLoop=1;jettySize=auto;html=1;entryX=0.5;entryY=0;entryDx=0;entryDy=0;strokeColor=#DDA15E;fontColor=#FEFAE0;fillColor=#BC6C25;" edge="1" parent="183" source="OaKwWm5t6I1wfVNcC-3h-296" target="OaKwWm5t6I1wfVNcC-3h-407">
          <mxGeometry relative="1" as="geometry" />
        </mxCell>
        <mxCell id="OaKwWm5t6I1wfVNcC-3h-296" value="Security Issuer" style="whiteSpace=wrap;shadow=0;fontColor=#FEFAE0;fontFamily=Helvetica;fontStyle=0;html=1;fontSize=12;plain-purple;strokeColor=none;fillColor=#BC6C25;spacing=6;verticalAlign=middle;labelBackgroundColor=none;" vertex="1" parent="183">
          <mxGeometry x="170" y="70" width="120" height="60" as="geometry" />
        </mxCell>
        <mxCell id="OaKwWm5t6I1wfVNcC-3h-329" style="edgeStyle=orthogonalEdgeStyle;rounded=0;orthogonalLoop=1;jettySize=auto;html=1;entryX=0;entryY=0.5;entryDx=0;entryDy=0;strokeColor=#DDA15E;fontColor=#FEFAE0;fillColor=#BC6C25;" edge="1" parent="183" source="OaKwWm5t6I1wfVNcC-3h-298" target="OaKwWm5t6I1wfVNcC-3h-328">
          <mxGeometry relative="1" as="geometry" />
        </mxCell>
        <mxCell id="OaKwWm5t6I1wfVNcC-3h-298" value="&lt;span style=&quot;color: rgb(255, 255, 255);&quot;&gt;Prospectus&lt;/span&gt;" style="shape=document;whiteSpace=wrap;verticalAlign=middle;strokeColor=none;fillColor=#BC6C25;shadow=0;fontColor=#FEFAE0;fontFamily=Helvetica;fontStyle=0;html=1;fontSize=12;spacing=6;spacingBottom=22;labelBackgroundColor=none;" vertex="1" parent="183">
          <mxGeometry x="170" y="181" width="120" height="80" as="geometry" />
        </mxCell>
        <mxCell id="OaKwWm5t6I1wfVNcC-3h-301" value="CCASS" style="whiteSpace=wrap;strokeColor=none;fillColor=#BC6C25;shadow=0;fontColor=#FEFAE0;fontFamily=Helvetica;fontStyle=0;html=1;fontSize=12;spacing=6;verticalAlign=middle;labelBackgroundColor=none;gradientColor=#FF0000;" vertex="1" parent="183">
          <mxGeometry x="360" y="315.5" width="120" height="60" as="geometry" />
        </mxCell>
        <mxCell id="OaKwWm5t6I1wfVNcC-3h-302" style="edgeStyle=orthogonalEdgeStyle;rounded=0;orthogonalLoop=1;jettySize=auto;html=1;strokeColor=#DDA15E;fontColor=#FEFAE0;fillColor=#BC6C25;" edge="1" parent="183" source="OaKwWm5t6I1wfVNcC-3h-303" target="OaKwWm5t6I1wfVNcC-3h-307">
          <mxGeometry relative="1" as="geometry" />
        </mxCell>
        <mxCell id="OaKwWm5t6I1wfVNcC-3h-303" value="Custodian" style="whiteSpace=wrap;shadow=0;fontColor=#FEFAE0;fontFamily=Helvetica;fontStyle=0;html=1;fontSize=12;plain-purple;strokeColor=none;fillColor=#BC6C25;spacing=6;verticalAlign=middle;labelBackgroundColor=none;gradientColor=#15039C;" vertex="1" parent="183">
          <mxGeometry x="10" y="315.5" width="120" height="60" as="geometry" />
        </mxCell>
        <mxCell id="OaKwWm5t6I1wfVNcC-3h-305" style="edgeStyle=orthogonalEdgeStyle;rounded=0;orthogonalLoop=1;jettySize=auto;html=1;entryX=1;entryY=0.5;entryDx=0;entryDy=0;strokeColor=#DDA15E;fontColor=#FEFAE0;fillColor=#BC6C25;" edge="1" parent="183" source="OaKwWm5t6I1wfVNcC-3h-301" target="OaKwWm5t6I1wfVNcC-3h-303">
          <mxGeometry relative="1" as="geometry">
            <mxPoint x="290" y="345.5" as="targetPoint" />
          </mxGeometry>
        </mxCell>
        <mxCell id="OaKwWm5t6I1wfVNcC-3h-307" value="&lt;font style=&quot;font-size: 13px; color: rgb(25, 0, 51);&quot;&gt;Investor&lt;/font&gt;" style="shape=umlActor;verticalLabelPosition=bottom;verticalAlign=top;html=1;outlineConnect=0;strokeColor=#DDA15E;fontColor=#FEFAE0;fillColor=#BC6C25;" vertex="1" parent="183">
          <mxGeometry x="55" y="191" width="30" height="60" as="geometry" />
        </mxCell>
        <mxCell id="OaKwWm5t6I1wfVNcC-3h-308" style="edgeStyle=orthogonalEdgeStyle;rounded=0;orthogonalLoop=1;jettySize=auto;html=1;strokeColor=#DDA15E;fontColor=#FEFAE0;fillColor=#BC6C25;entryX=0;entryY=0.5;entryDx=0;entryDy=0;" edge="1" parent="183" source="OaKwWm5t6I1wfVNcC-3h-307" target="OaKwWm5t6I1wfVNcC-3h-298">
          <mxGeometry relative="1" as="geometry">
            <mxPoint x="150" y="170" as="targetPoint" />
          </mxGeometry>
        </mxCell>
        <mxCell id="OaKwWm5t6I1wfVNcC-3h-331" style="edgeStyle=orthogonalEdgeStyle;rounded=0;orthogonalLoop=1;jettySize=auto;html=1;entryX=0.75;entryY=0;entryDx=0;entryDy=0;strokeColor=#6c8ebf;fontColor=#FEFAE0;fillColor=#dae8fc;exitX=1;exitY=1;exitDx=0;exitDy=0;exitPerimeter=0;" edge="1" parent="183" source="OaKwWm5t6I1wfVNcC-3h-311" target="OaKwWm5t6I1wfVNcC-3h-316">
          <mxGeometry relative="1" as="geometry" />
        </mxCell>
        <mxCell id="OaKwWm5t6I1wfVNcC-3h-335" style="edgeStyle=orthogonalEdgeStyle;rounded=0;orthogonalLoop=1;jettySize=auto;html=1;entryX=0.25;entryY=0;entryDx=0;entryDy=0;strokeColor=#6c8ebf;fontColor=#FEFAE0;fillColor=#dae8fc;startArrow=classic;startFill=1;endArrow=none;endFill=0;" edge="1" parent="183" source="OaKwWm5t6I1wfVNcC-3h-311" target="OaKwWm5t6I1wfVNcC-3h-316">
          <mxGeometry relative="1" as="geometry" />
        </mxCell>
        <mxCell id="OaKwWm5t6I1wfVNcC-3h-311" value="&lt;font style=&quot;font-size: 13px; color: rgb(0, 0, 0);&quot;&gt;Investor&lt;/font&gt;" style="shape=umlActor;verticalLabelPosition=bottom;verticalAlign=top;html=1;outlineConnect=0;strokeColor=#DDA15E;fontColor=#FEFAE0;fillColor=#BC6C25;" vertex="1" parent="183">
          <mxGeometry x="670" y="50" width="30" height="60" as="geometry" />
        </mxCell>
        <mxCell id="OaKwWm5t6I1wfVNcC-3h-333" style="edgeStyle=orthogonalEdgeStyle;rounded=0;orthogonalLoop=1;jettySize=auto;html=1;entryX=0.75;entryY=0;entryDx=0;entryDy=0;strokeColor=#6c8ebf;fontColor=#FEFAE0;fillColor=#dae8fc;exitX=0.75;exitY=1;exitDx=0;exitDy=0;" edge="1" parent="183" source="OaKwWm5t6I1wfVNcC-3h-316" target="OaKwWm5t6I1wfVNcC-3h-322">
          <mxGeometry relative="1" as="geometry" />
        </mxCell>
        <mxCell id="OaKwWm5t6I1wfVNcC-3h-339" value="" style="edgeLabel;html=1;align=center;verticalAlign=middle;resizable=0;points=[];strokeColor=#DDA15E;fontColor=#FEFAE0;fillColor=#BC6C25;" vertex="1" connectable="0" parent="OaKwWm5t6I1wfVNcC-3h-333">
          <mxGeometry x="-0.0388" y="2" relative="1" as="geometry">
            <mxPoint as="offset" />
          </mxGeometry>
        </mxCell>
        <mxCell id="OaKwWm5t6I1wfVNcC-3h-340" value="" style="edgeLabel;html=1;align=center;verticalAlign=middle;resizable=0;points=[];strokeColor=#DDA15E;fontColor=#FEFAE0;fillColor=#BC6C25;" vertex="1" connectable="0" parent="OaKwWm5t6I1wfVNcC-3h-333">
          <mxGeometry x="-0.0078" relative="1" as="geometry">
            <mxPoint as="offset" />
          </mxGeometry>
        </mxCell>
        <mxCell id="OaKwWm5t6I1wfVNcC-3h-316" value="Custodian" style="whiteSpace=wrap;shadow=0;fontColor=#FEFAE0;fontFamily=Helvetica;fontStyle=0;html=1;fontSize=12;plain-purple;strokeColor=none;fillColor=#BC6C25;spacing=6;verticalAlign=middle;labelBackgroundColor=none;gradientColor=#15039C;" vertex="1" parent="183">
          <mxGeometry x="630" y="191" width="120" height="60" as="geometry" />
        </mxCell>
        <mxCell id="OaKwWm5t6I1wfVNcC-3h-317" value="HKICL" style="whiteSpace=wrap;shadow=0;fontColor=#FEFAE0;fontFamily=Helvetica;fontStyle=0;html=1;fontSize=12;plain-purple;strokeColor=none;fillColor=#BC6C25;spacing=6;verticalAlign=middle;labelBackgroundColor=none;gradientColor=#008F9C;" vertex="1" parent="183">
          <mxGeometry x="490" y="220" width="120" height="60" as="geometry" />
        </mxCell>
        <mxCell id="OaKwWm5t6I1wfVNcC-3h-334" style="edgeStyle=orthogonalEdgeStyle;rounded=0;orthogonalLoop=1;jettySize=auto;html=1;entryX=0.25;entryY=1;entryDx=0;entryDy=0;strokeColor=#6c8ebf;fontColor=#FEFAE0;fillColor=#dae8fc;exitX=0.25;exitY=0;exitDx=0;exitDy=0;" edge="1" parent="183" source="OaKwWm5t6I1wfVNcC-3h-322" target="OaKwWm5t6I1wfVNcC-3h-316">
          <mxGeometry relative="1" as="geometry" />
        </mxCell>
        <mxCell id="OaKwWm5t6I1wfVNcC-3h-341" value="" style="edgeLabel;html=1;align=center;verticalAlign=middle;resizable=0;points=[];strokeColor=#DDA15E;fontColor=#FEFAE0;fillColor=#BC6C25;" vertex="1" connectable="0" parent="OaKwWm5t6I1wfVNcC-3h-334">
          <mxGeometry x="0.0388" relative="1" as="geometry">
            <mxPoint y="1" as="offset" />
          </mxGeometry>
        </mxCell>
        <mxCell id="OaKwWm5t6I1wfVNcC-3h-337" style="rounded=0;orthogonalLoop=1;jettySize=auto;html=1;entryX=0.75;entryY=0;entryDx=0;entryDy=0;strokeColor=#6c8ebf;fontColor=#FEFAE0;fillColor=#dae8fc;" edge="1" parent="183" source="OaKwWm5t6I1wfVNcC-3h-322" target="OaKwWm5t6I1wfVNcC-3h-336">
          <mxGeometry relative="1" as="geometry" />
        </mxCell>
        <mxCell id="OaKwWm5t6I1wfVNcC-3h-322" value="&amp;nbsp;HKEX" style="whiteSpace=wrap;shadow=0;fontColor=#FEFAE0;fontFamily=Helvetica;fontStyle=0;html=1;fontSize=12;plain-purple;strokeColor=none;fillColor=#BC6C25;spacing=6;verticalAlign=middle;labelBackgroundColor=none;gradientColor=#9C0505;" vertex="1" parent="183">
          <mxGeometry x="630" y="315.5" width="120" height="64.5" as="geometry" />
        </mxCell>
        <mxCell id="OaKwWm5t6I1wfVNcC-3h-325" value="&lt;font style=&quot;color: rgb(25, 0, 51);&quot;&gt;T+2&lt;/font&gt;" style="text;strokeColor=none;align=center;fillColor=none;html=1;verticalAlign=middle;whiteSpace=wrap;rounded=0;fontColor=#FEFAE0;" vertex="1" parent="183">
          <mxGeometry x="520" y="330.5" width="60" height="30" as="geometry" />
        </mxCell>
        <mxCell id="OaKwWm5t6I1wfVNcC-3h-326" style="rounded=0;orthogonalLoop=1;jettySize=auto;html=1;strokeColor=#6c8ebf;fontColor=#FEFAE0;fillColor=#dae8fc;startArrow=classic;startFill=1;" edge="1" parent="183">
          <mxGeometry relative="1" as="geometry">
            <mxPoint x="490" y="310" as="sourcePoint" />
            <mxPoint x="520" y="290" as="targetPoint" />
          </mxGeometry>
        </mxCell>
        <mxCell id="OaKwWm5t6I1wfVNcC-3h-327" style="rounded=0;orthogonalLoop=1;jettySize=auto;html=1;strokeColor=#6c8ebf;fontColor=#FEFAE0;fillColor=#dae8fc;startArrow=classic;startFill=1;" edge="1" parent="183">
          <mxGeometry relative="1" as="geometry">
            <mxPoint x="580" y="295.5" as="sourcePoint" />
            <mxPoint x="620" y="315.5" as="targetPoint" />
          </mxGeometry>
        </mxCell>
        <mxCell id="OaKwWm5t6I1wfVNcC-3h-330" style="edgeStyle=orthogonalEdgeStyle;rounded=0;orthogonalLoop=1;jettySize=auto;html=1;entryX=0.25;entryY=0;entryDx=0;entryDy=0;strokeColor=#DDA15E;fontColor=#FEFAE0;fillColor=#BC6C25;" edge="1" parent="183" source="OaKwWm5t6I1wfVNcC-3h-328" target="OaKwWm5t6I1wfVNcC-3h-301">
          <mxGeometry relative="1" as="geometry" />
        </mxCell>
        <mxCell id="OaKwWm5t6I1wfVNcC-3h-328" value="FSR Member" style="whiteSpace=wrap;shadow=0;fontColor=#FEFAE0;fontFamily=Helvetica;fontStyle=0;html=1;fontSize=12;plain-purple;strokeColor=none;fillColor=#BC6C25;spacing=6;verticalAlign=middle;labelBackgroundColor=none;gradientColor=#008F9C;" vertex="1" parent="183">
          <mxGeometry x="340" y="201" width="100" height="40" as="geometry" />
        </mxCell>
        <mxCell id="OaKwWm5t6I1wfVNcC-3h-338" style="rounded=0;orthogonalLoop=1;jettySize=auto;html=1;entryX=0.75;entryY=1;entryDx=0;entryDy=0;strokeColor=#6c8ebf;fontColor=#FEFAE0;fillColor=#dae8fc;exitX=0.25;exitY=0;exitDx=0;exitDy=0;" edge="1" parent="183" source="OaKwWm5t6I1wfVNcC-3h-336" target="OaKwWm5t6I1wfVNcC-3h-301">
          <mxGeometry relative="1" as="geometry" />
        </mxCell>
        <mxCell id="OaKwWm5t6I1wfVNcC-3h-336" value="Change Registration" style="shape=document;whiteSpace=wrap;verticalAlign=middle;strokeColor=none;fillColor=#BC6C25;shadow=0;fontColor=#FEFAE0;fontFamily=Helvetica;fontStyle=0;html=1;fontSize=12;spacing=6;spacingBottom=22;labelBackgroundColor=none;" vertex="1" parent="183">
          <mxGeometry x="490" y="410" width="120" height="80" as="geometry" />
        </mxCell>
        <mxCell id="OaKwWm5t6I1wfVNcC-3h-409" style="edgeStyle=orthogonalEdgeStyle;rounded=0;orthogonalLoop=1;jettySize=auto;html=1;entryX=0.5;entryY=0;entryDx=0;entryDy=0;strokeColor=#DDA15E;fontColor=#FEFAE0;fillColor=#BC6C25;" edge="1" parent="183" source="OaKwWm5t6I1wfVNcC-3h-407" target="OaKwWm5t6I1wfVNcC-3h-328">
          <mxGeometry relative="1" as="geometry" />
        </mxCell>
        <mxCell id="OaKwWm5t6I1wfVNcC-3h-407" value="Coporate Actions" style="shape=document;whiteSpace=wrap;verticalAlign=middle;strokeColor=none;fillColor=#BC6C25;shadow=0;fontColor=#FEFAE0;fontFamily=Helvetica;fontStyle=0;html=1;fontSize=12;spacing=6;spacingBottom=22;labelBackgroundColor=none;" vertex="1" parent="183">
          <mxGeometry x="345" y="120" width="90" height="50" as="geometry" />
        </mxCell>
        <mxCell id="OaKwWm5t6I1wfVNcC-3h-419" value="&lt;font style=&quot;color: rgb(25, 0, 51);&quot;&gt;Order&lt;/font&gt;" style="text;strokeColor=none;align=center;fillColor=none;html=1;verticalAlign=middle;whiteSpace=wrap;rounded=0;fontColor=#FEFAE0;" vertex="1" parent="183">
          <mxGeometry x="660" y="151" width="60" height="30" as="geometry" />
        </mxCell>
        <mxCell id="OaKwWm5t6I1wfVNcC-3h-424" value="&lt;font style=&quot;color: rgb(25, 0, 51);&quot;&gt;Cash Settlement&lt;/font&gt;" style="edgeLabel;html=1;align=center;verticalAlign=middle;resizable=0;points=[];strokeColor=#DDA15E;fontColor=#FEFAE0;fillColor=#BC6C25;" vertex="1" connectable="0" parent="183">
          <mxGeometry x="550" y="310" as="geometry">
            <mxPoint x="1" y="-1" as="offset" />
          </mxGeometry>
        </mxCell>
        <mxCell id="OaKwWm5t6I1wfVNcC-3h-425" value="&lt;font style=&quot;color: rgb(25, 0, 51);&quot;&gt;Security Settlement&lt;/font&gt;" style="edgeLabel;html=1;align=center;verticalAlign=middle;resizable=0;points=[];strokeColor=#DDA15E;fontColor=#FEFAE0;fillColor=#BC6C25;" vertex="1" connectable="0" parent="183">
          <mxGeometry x="550" y="390" as="geometry" />
        </mxCell>
        <mxCell id="OaKwWm5t6I1wfVNcC-3h-243" style="rounded=0;orthogonalLoop=1;jettySize=auto;html=1;strokeColor=#6c8ebf;fontColor=#FEFAE0;fillColor=#dae8fc;startArrow=classic;startFill=1;" edge="1" parent="1">
          <mxGeometry relative="1" as="geometry">
            <mxPoint x="150" y="340" as="sourcePoint" />
            <mxPoint x="180" y="320" as="targetPoint" />
          </mxGeometry>
        </mxCell>
        <mxCell id="OaKwWm5t6I1wfVNcC-3h-377" value="&lt;font color=&quot;#23497d&quot;&gt;US&lt;/font&gt;" style="swimlane;whiteSpace=wrap;fillColor=none;swimlaneFillColor=#BAC8D3;fontColor=#FEFAE0;fontFamily=Tahoma;html=1;strokeColor=none;opacity=25;labelBackgroundColor=none;" vertex="1" parent="1">
          <mxGeometry x="-380" y="540" width="880" height="490" as="geometry">
            <mxRectangle x="20" y="20" width="80" height="23" as="alternateBounds" />
          </mxGeometry>
        </mxCell>
        <mxCell id="OaKwWm5t6I1wfVNcC-3h-378" style="edgeStyle=orthogonalEdgeStyle;rounded=0;orthogonalLoop=1;jettySize=auto;html=1;entryX=0.5;entryY=0;entryDx=0;entryDy=0;strokeColor=#DDA15E;fontColor=#FEFAE0;fillColor=#BC6C25;" edge="1" parent="OaKwWm5t6I1wfVNcC-3h-377" source="OaKwWm5t6I1wfVNcC-3h-379" target="OaKwWm5t6I1wfVNcC-3h-381">
          <mxGeometry relative="1" as="geometry" />
        </mxCell>
        <mxCell id="OaKwWm5t6I1wfVNcC-3h-411" style="edgeStyle=orthogonalEdgeStyle;rounded=0;orthogonalLoop=1;jettySize=auto;html=1;entryX=0.5;entryY=0;entryDx=0;entryDy=0;strokeColor=#DDA15E;fontColor=#FEFAE0;fillColor=#BC6C25;" edge="1" parent="OaKwWm5t6I1wfVNcC-3h-377" source="OaKwWm5t6I1wfVNcC-3h-379" target="OaKwWm5t6I1wfVNcC-3h-410">
          <mxGeometry relative="1" as="geometry" />
        </mxCell>
        <mxCell id="OaKwWm5t6I1wfVNcC-3h-379" value="Security Issuer" style="whiteSpace=wrap;shadow=0;fontColor=#FEFAE0;fontFamily=Helvetica;fontStyle=0;html=1;fontSize=12;plain-purple;strokeColor=none;fillColor=#BC6C25;spacing=6;verticalAlign=middle;labelBackgroundColor=none;" vertex="1" parent="OaKwWm5t6I1wfVNcC-3h-377">
          <mxGeometry x="230" y="41.75" width="120" height="60" as="geometry" />
        </mxCell>
        <mxCell id="OaKwWm5t6I1wfVNcC-3h-414" style="edgeStyle=orthogonalEdgeStyle;rounded=0;orthogonalLoop=1;jettySize=auto;html=1;entryX=0.5;entryY=0;entryDx=0;entryDy=0;strokeColor=#DDA15E;fontColor=#FEFAE0;fillColor=#BC6C25;" edge="1" parent="OaKwWm5t6I1wfVNcC-3h-377" source="OaKwWm5t6I1wfVNcC-3h-381" target="OaKwWm5t6I1wfVNcC-3h-413">
          <mxGeometry relative="1" as="geometry" />
        </mxCell>
        <mxCell id="OaKwWm5t6I1wfVNcC-3h-381" value="&lt;span style=&quot;color: rgb(255, 255, 255);&quot;&gt;Preliminary Prospectus&lt;/span&gt;" style="shape=document;whiteSpace=wrap;verticalAlign=middle;strokeColor=none;fillColor=#BC6C25;shadow=0;fontColor=#FEFAE0;fontFamily=Helvetica;fontStyle=0;html=1;fontSize=12;spacing=6;spacingBottom=22;labelBackgroundColor=none;" vertex="1" parent="OaKwWm5t6I1wfVNcC-3h-377">
          <mxGeometry x="250" y="121.75" width="80" height="51" as="geometry" />
        </mxCell>
        <mxCell id="OaKwWm5t6I1wfVNcC-3h-382" value="DTC" style="whiteSpace=wrap;strokeColor=none;fillColor=#BC6C25;shadow=0;fontColor=#FEFAE0;fontFamily=Helvetica;fontStyle=0;html=1;fontSize=12;spacing=6;verticalAlign=middle;labelBackgroundColor=none;gradientColor=#FF0000;" vertex="1" parent="OaKwWm5t6I1wfVNcC-3h-377">
          <mxGeometry x="360" y="315.5" width="120" height="60" as="geometry" />
        </mxCell>
        <mxCell id="OaKwWm5t6I1wfVNcC-3h-388" style="edgeStyle=orthogonalEdgeStyle;rounded=0;orthogonalLoop=1;jettySize=auto;html=1;entryX=0.75;entryY=0;entryDx=0;entryDy=0;strokeColor=#6c8ebf;fontColor=#FEFAE0;fillColor=#dae8fc;exitX=1;exitY=1;exitDx=0;exitDy=0;exitPerimeter=0;" edge="1" parent="OaKwWm5t6I1wfVNcC-3h-377" source="OaKwWm5t6I1wfVNcC-3h-390" target="OaKwWm5t6I1wfVNcC-3h-394">
          <mxGeometry relative="1" as="geometry" />
        </mxCell>
        <mxCell id="OaKwWm5t6I1wfVNcC-3h-389" style="edgeStyle=orthogonalEdgeStyle;rounded=0;orthogonalLoop=1;jettySize=auto;html=1;entryX=0.25;entryY=0;entryDx=0;entryDy=0;strokeColor=#6c8ebf;fontColor=#FEFAE0;fillColor=#dae8fc;startArrow=classic;startFill=1;endArrow=none;endFill=0;" edge="1" parent="OaKwWm5t6I1wfVNcC-3h-377" source="OaKwWm5t6I1wfVNcC-3h-390" target="OaKwWm5t6I1wfVNcC-3h-394">
          <mxGeometry relative="1" as="geometry" />
        </mxCell>
        <mxCell id="OaKwWm5t6I1wfVNcC-3h-390" value="&lt;font style=&quot;font-size: 13px; color: rgb(0, 0, 0);&quot;&gt;Investor&lt;/font&gt;" style="shape=umlActor;verticalLabelPosition=bottom;verticalAlign=top;html=1;outlineConnect=0;strokeColor=#DDA15E;fontColor=#FEFAE0;fillColor=#BC6C25;" vertex="1" parent="OaKwWm5t6I1wfVNcC-3h-377">
          <mxGeometry x="675" y="50" width="30" height="60" as="geometry" />
        </mxCell>
        <mxCell id="OaKwWm5t6I1wfVNcC-3h-391" style="edgeStyle=orthogonalEdgeStyle;rounded=0;orthogonalLoop=1;jettySize=auto;html=1;entryX=0.75;entryY=0;entryDx=0;entryDy=0;strokeColor=#6c8ebf;fontColor=#FEFAE0;fillColor=#dae8fc;exitX=0.75;exitY=1;exitDx=0;exitDy=0;" edge="1" parent="OaKwWm5t6I1wfVNcC-3h-377" source="OaKwWm5t6I1wfVNcC-3h-394" target="OaKwWm5t6I1wfVNcC-3h-399">
          <mxGeometry relative="1" as="geometry" />
        </mxCell>
        <mxCell id="OaKwWm5t6I1wfVNcC-3h-392" value="" style="edgeLabel;html=1;align=center;verticalAlign=middle;resizable=0;points=[];strokeColor=#DDA15E;fontColor=#FEFAE0;fillColor=#BC6C25;" vertex="1" connectable="0" parent="OaKwWm5t6I1wfVNcC-3h-391">
          <mxGeometry x="-0.0388" y="2" relative="1" as="geometry">
            <mxPoint as="offset" />
          </mxGeometry>
        </mxCell>
        <mxCell id="OaKwWm5t6I1wfVNcC-3h-393" value="&lt;font style=&quot;color: rgb(25, 0, 51);&quot;&gt;Trade&lt;/font&gt;" style="edgeLabel;html=1;align=center;verticalAlign=middle;resizable=0;points=[];strokeColor=#DDA15E;fontColor=#FEFAE0;fillColor=#BC6C25;" vertex="1" connectable="0" parent="OaKwWm5t6I1wfVNcC-3h-391">
          <mxGeometry x="-0.0078" relative="1" as="geometry">
            <mxPoint as="offset" />
          </mxGeometry>
        </mxCell>
        <mxCell id="OaKwWm5t6I1wfVNcC-3h-394" value="Brokers" style="whiteSpace=wrap;shadow=0;fontColor=#FEFAE0;fontFamily=Helvetica;fontStyle=0;html=1;fontSize=12;plain-purple;strokeColor=none;fillColor=#BC6C25;spacing=6;verticalAlign=middle;labelBackgroundColor=none;gradientColor=#15039C;" vertex="1" parent="OaKwWm5t6I1wfVNcC-3h-377">
          <mxGeometry x="630" y="191" width="120" height="60" as="geometry" />
        </mxCell>
        <mxCell id="OaKwWm5t6I1wfVNcC-3h-395" value="FSS" style="whiteSpace=wrap;shadow=0;fontColor=#FEFAE0;fontFamily=Helvetica;fontStyle=0;html=1;fontSize=12;plain-purple;strokeColor=none;fillColor=#BC6C25;spacing=6;verticalAlign=middle;labelBackgroundColor=none;gradientColor=#008F9C;" vertex="1" parent="OaKwWm5t6I1wfVNcC-3h-377">
          <mxGeometry x="490" y="220" width="120" height="60" as="geometry" />
        </mxCell>
        <mxCell id="OaKwWm5t6I1wfVNcC-3h-396" style="edgeStyle=orthogonalEdgeStyle;rounded=0;orthogonalLoop=1;jettySize=auto;html=1;entryX=0.25;entryY=1;entryDx=0;entryDy=0;strokeColor=#6c8ebf;fontColor=#FEFAE0;fillColor=#dae8fc;exitX=0.25;exitY=0;exitDx=0;exitDy=0;" edge="1" parent="OaKwWm5t6I1wfVNcC-3h-377" source="OaKwWm5t6I1wfVNcC-3h-399" target="OaKwWm5t6I1wfVNcC-3h-394">
          <mxGeometry relative="1" as="geometry" />
        </mxCell>
        <mxCell id="OaKwWm5t6I1wfVNcC-3h-397" value="&lt;font style=&quot;color: rgb(0, 0, 0);&quot;&gt;Settlement&lt;/font&gt;" style="edgeLabel;html=1;align=center;verticalAlign=middle;resizable=0;points=[];strokeColor=#DDA15E;fontColor=#FEFAE0;fillColor=#BC6C25;" vertex="1" connectable="0" parent="OaKwWm5t6I1wfVNcC-3h-396">
          <mxGeometry x="0.0388" relative="1" as="geometry">
            <mxPoint y="1" as="offset" />
          </mxGeometry>
        </mxCell>
        <mxCell id="OaKwWm5t6I1wfVNcC-3h-398" value="&lt;font style=&quot;color: rgb(0, 0, 0);&quot;&gt;Clearing&lt;/font&gt;" style="rounded=0;orthogonalLoop=1;jettySize=auto;html=1;entryX=0.75;entryY=0;entryDx=0;entryDy=0;strokeColor=#6c8ebf;fontColor=#FEFAE0;fillColor=#dae8fc;" edge="1" parent="OaKwWm5t6I1wfVNcC-3h-377" source="OaKwWm5t6I1wfVNcC-3h-399">
          <mxGeometry x="1" y="-51" relative="1" as="geometry">
            <mxPoint x="580" y="410" as="targetPoint" />
            <mxPoint x="-25" y="34" as="offset" />
          </mxGeometry>
        </mxCell>
        <mxCell id="OaKwWm5t6I1wfVNcC-3h-399" value="NYSE / NYSEAMER&lt;div&gt;/ NASDAQ&lt;/div&gt;" style="whiteSpace=wrap;shadow=0;fontColor=#FEFAE0;fontFamily=Helvetica;fontStyle=0;html=1;fontSize=12;plain-purple;strokeColor=none;fillColor=#BC6C25;spacing=6;verticalAlign=middle;labelBackgroundColor=none;gradientColor=#9C0505;" vertex="1" parent="OaKwWm5t6I1wfVNcC-3h-377">
          <mxGeometry x="630" y="315.5" width="120" height="64.5" as="geometry" />
        </mxCell>
        <mxCell id="OaKwWm5t6I1wfVNcC-3h-400" value="&lt;font style=&quot;color: rgb(25, 0, 51);&quot;&gt;T+2&lt;/font&gt;" style="text;strokeColor=none;align=center;fillColor=none;html=1;verticalAlign=middle;whiteSpace=wrap;rounded=0;fontColor=#FEFAE0;" vertex="1" parent="OaKwWm5t6I1wfVNcC-3h-377">
          <mxGeometry x="520" y="330.5" width="60" height="30" as="geometry" />
        </mxCell>
        <mxCell id="OaKwWm5t6I1wfVNcC-3h-401" style="rounded=0;orthogonalLoop=1;jettySize=auto;html=1;strokeColor=#6c8ebf;fontColor=#FEFAE0;fillColor=#dae8fc;startArrow=classic;startFill=1;" edge="1" parent="OaKwWm5t6I1wfVNcC-3h-377">
          <mxGeometry relative="1" as="geometry">
            <mxPoint x="490" y="310" as="sourcePoint" />
            <mxPoint x="520" y="290" as="targetPoint" />
          </mxGeometry>
        </mxCell>
        <mxCell id="OaKwWm5t6I1wfVNcC-3h-402" style="rounded=0;orthogonalLoop=1;jettySize=auto;html=1;strokeColor=#6c8ebf;fontColor=#FEFAE0;fillColor=#dae8fc;startArrow=classic;startFill=1;" edge="1" parent="OaKwWm5t6I1wfVNcC-3h-377">
          <mxGeometry relative="1" as="geometry">
            <mxPoint x="590" y="287" as="sourcePoint" />
            <mxPoint x="630" y="320" as="targetPoint" />
          </mxGeometry>
        </mxCell>
        <mxCell id="OaKwWm5t6I1wfVNcC-3h-423" value="&lt;font style=&quot;color: rgb(25, 0, 51);&quot;&gt;Cash Settlement&lt;/font&gt;" style="edgeLabel;html=1;align=center;verticalAlign=middle;resizable=0;points=[];strokeColor=#DDA15E;fontColor=#FEFAE0;fillColor=#BC6C25;" vertex="1" connectable="0" parent="OaKwWm5t6I1wfVNcC-3h-402">
          <mxGeometry x="-0.02" y="-1" relative="1" as="geometry">
            <mxPoint x="-49" y="-4" as="offset" />
          </mxGeometry>
        </mxCell>
        <mxCell id="OaKwWm5t6I1wfVNcC-3h-403" style="edgeStyle=orthogonalEdgeStyle;rounded=0;orthogonalLoop=1;jettySize=auto;html=1;entryX=0.5;entryY=0;entryDx=0;entryDy=0;strokeColor=#DDA15E;fontColor=#FEFAE0;fillColor=#BC6C25;" edge="1" parent="OaKwWm5t6I1wfVNcC-3h-377" source="OaKwWm5t6I1wfVNcC-3h-404" target="OaKwWm5t6I1wfVNcC-3h-382">
          <mxGeometry relative="1" as="geometry">
            <mxPoint x="430" y="315.5" as="targetPoint" />
          </mxGeometry>
        </mxCell>
        <mxCell id="OaKwWm5t6I1wfVNcC-3h-404" value="Transfer Agent" style="whiteSpace=wrap;shadow=0;fontColor=#FEFAE0;fontFamily=Helvetica;fontStyle=0;html=1;fontSize=12;plain-purple;strokeColor=none;fillColor=#BC6C25;spacing=6;verticalAlign=middle;labelBackgroundColor=none;gradientColor=#008F9C;" vertex="1" parent="OaKwWm5t6I1wfVNcC-3h-377">
          <mxGeometry x="370" y="201" width="100" height="39" as="geometry" />
        </mxCell>
        <mxCell id="OaKwWm5t6I1wfVNcC-3h-405" style="rounded=0;orthogonalLoop=1;jettySize=auto;html=1;entryX=0.75;entryY=1;entryDx=0;entryDy=0;strokeColor=#6c8ebf;fontColor=#FEFAE0;fillColor=#dae8fc;exitX=0.25;exitY=0;exitDx=0;exitDy=0;" edge="1" parent="OaKwWm5t6I1wfVNcC-3h-377" target="OaKwWm5t6I1wfVNcC-3h-382">
          <mxGeometry relative="1" as="geometry">
            <mxPoint x="520" y="410" as="sourcePoint" />
          </mxGeometry>
        </mxCell>
        <mxCell id="OaKwWm5t6I1wfVNcC-3h-422" value="&lt;font style=&quot;color: rgb(25, 0, 51);&quot;&gt;Security Settlement&lt;/font&gt;" style="edgeLabel;html=1;align=center;verticalAlign=middle;resizable=0;points=[];strokeColor=#DDA15E;fontColor=#FEFAE0;fillColor=#BC6C25;" vertex="1" connectable="0" parent="OaKwWm5t6I1wfVNcC-3h-405">
          <mxGeometry x="-0.0145" y="-1" relative="1" as="geometry">
            <mxPoint x="14" y="-2" as="offset" />
          </mxGeometry>
        </mxCell>
        <mxCell id="OaKwWm5t6I1wfVNcC-3h-412" style="edgeStyle=orthogonalEdgeStyle;rounded=0;orthogonalLoop=1;jettySize=auto;html=1;entryX=0.5;entryY=0;entryDx=0;entryDy=0;strokeColor=#DDA15E;fontColor=#FEFAE0;fillColor=#BC6C25;" edge="1" parent="OaKwWm5t6I1wfVNcC-3h-377" source="OaKwWm5t6I1wfVNcC-3h-410" target="OaKwWm5t6I1wfVNcC-3h-404">
          <mxGeometry relative="1" as="geometry" />
        </mxCell>
        <mxCell id="OaKwWm5t6I1wfVNcC-3h-410" value="Coporate Actions" style="shape=document;whiteSpace=wrap;verticalAlign=middle;strokeColor=none;fillColor=#BC6C25;shadow=0;fontColor=#FEFAE0;fontFamily=Helvetica;fontStyle=0;html=1;fontSize=12;spacing=6;spacingBottom=22;labelBackgroundColor=none;" vertex="1" parent="OaKwWm5t6I1wfVNcC-3h-377">
          <mxGeometry x="375" y="120" width="90" height="50" as="geometry" />
        </mxCell>
        <mxCell id="OaKwWm5t6I1wfVNcC-3h-415" style="edgeStyle=orthogonalEdgeStyle;rounded=0;orthogonalLoop=1;jettySize=auto;html=1;strokeColor=#DDA15E;fontColor=#FEFAE0;fillColor=#BC6C25;entryX=0;entryY=0.5;entryDx=0;entryDy=0;" edge="1" parent="OaKwWm5t6I1wfVNcC-3h-377" source="OaKwWm5t6I1wfVNcC-3h-413" target="OaKwWm5t6I1wfVNcC-3h-404">
          <mxGeometry relative="1" as="geometry">
            <mxPoint x="370" y="310" as="targetPoint" />
          </mxGeometry>
        </mxCell>
        <mxCell id="OaKwWm5t6I1wfVNcC-3h-413" value="SEC" style="whiteSpace=wrap;strokeColor=none;fillColor=#BC6C25;shadow=0;fontColor=#FEFAE0;fontFamily=Helvetica;fontStyle=0;html=1;fontSize=12;spacing=6;verticalAlign=middle;labelBackgroundColor=none;gradientColor=#FF0000;" vertex="1" parent="OaKwWm5t6I1wfVNcC-3h-377">
          <mxGeometry x="240" y="197.25" width="100" height="42.75" as="geometry" />
        </mxCell>
        <mxCell id="OaKwWm5t6I1wfVNcC-3h-383" style="edgeStyle=orthogonalEdgeStyle;rounded=0;orthogonalLoop=1;jettySize=auto;html=1;strokeColor=#DDA15E;fontColor=#FEFAE0;fillColor=#BC6C25;" edge="1" parent="OaKwWm5t6I1wfVNcC-3h-377" source="OaKwWm5t6I1wfVNcC-3h-384" target="OaKwWm5t6I1wfVNcC-3h-386">
          <mxGeometry relative="1" as="geometry" />
        </mxCell>
        <mxCell id="OaKwWm5t6I1wfVNcC-3h-384" value="Investment Bank" style="whiteSpace=wrap;shadow=0;fontColor=#FEFAE0;fontFamily=Helvetica;fontStyle=0;html=1;fontSize=12;plain-purple;strokeColor=none;fillColor=#BC6C25;spacing=6;verticalAlign=middle;labelBackgroundColor=none;gradientColor=#15039C;" vertex="1" parent="OaKwWm5t6I1wfVNcC-3h-377">
          <mxGeometry x="80" y="315.5" width="120" height="60" as="geometry" />
        </mxCell>
        <mxCell id="OaKwWm5t6I1wfVNcC-3h-416" style="edgeStyle=orthogonalEdgeStyle;rounded=0;orthogonalLoop=1;jettySize=auto;html=1;entryX=0;entryY=0.5;entryDx=0;entryDy=0;strokeColor=#DDA15E;fontColor=#FEFAE0;fillColor=#BC6C25;" edge="1" parent="OaKwWm5t6I1wfVNcC-3h-377" source="OaKwWm5t6I1wfVNcC-3h-386" target="OaKwWm5t6I1wfVNcC-3h-381">
          <mxGeometry relative="1" as="geometry" />
        </mxCell>
        <mxCell id="OaKwWm5t6I1wfVNcC-3h-386" value="&lt;font style=&quot;font-size: 13px; color: rgb(0, 0, 0);&quot;&gt;Investor&lt;/font&gt;" style="shape=umlActor;verticalLabelPosition=bottom;verticalAlign=top;html=1;outlineConnect=0;strokeColor=#DDA15E;fontColor=#FEFAE0;fillColor=#BC6C25;" vertex="1" parent="OaKwWm5t6I1wfVNcC-3h-377">
          <mxGeometry x="125" y="117.25" width="30" height="60" as="geometry" />
        </mxCell>
        <mxCell id="OaKwWm5t6I1wfVNcC-3h-385" style="edgeStyle=orthogonalEdgeStyle;rounded=0;orthogonalLoop=1;jettySize=auto;html=1;entryX=1;entryY=0.5;entryDx=0;entryDy=0;strokeColor=#DDA15E;fontColor=#FEFAE0;fillColor=#BC6C25;" edge="1" parent="OaKwWm5t6I1wfVNcC-3h-377" source="OaKwWm5t6I1wfVNcC-3h-382" target="OaKwWm5t6I1wfVNcC-3h-384">
          <mxGeometry relative="1" as="geometry">
            <mxPoint x="290" y="345.5" as="targetPoint" />
          </mxGeometry>
        </mxCell>
        <mxCell id="OaKwWm5t6I1wfVNcC-3h-420" value="&lt;font style=&quot;color: rgb(25, 0, 51);&quot;&gt;Order&lt;/font&gt;" style="text;strokeColor=none;align=center;fillColor=none;html=1;verticalAlign=middle;whiteSpace=wrap;rounded=0;fontColor=#FEFAE0;" vertex="1" parent="OaKwWm5t6I1wfVNcC-3h-377">
          <mxGeometry x="660" y="150" width="60" height="30" as="geometry" />
        </mxCell>
        <mxCell id="OaKwWm5t6I1wfVNcC-3h-421" value="NSCC" style="whiteSpace=wrap;strokeColor=none;fillColor=#BC6C25;shadow=0;fontColor=#FEFAE0;fontFamily=Helvetica;fontStyle=0;html=1;fontSize=12;spacing=6;verticalAlign=middle;labelBackgroundColor=none;gradientColor=#FF0000;" vertex="1" parent="OaKwWm5t6I1wfVNcC-3h-377">
          <mxGeometry x="480" y="410" width="120" height="60" as="geometry" />
        </mxCell>
        <mxCell id="OaKwWm5t6I1wfVNcC-3h-429" value="&lt;font color=&quot;#23497d&quot;&gt;UK&lt;/font&gt;" style="swimlane;whiteSpace=wrap;fillColor=none;swimlaneFillColor=light-dark(#b4c8d3, #BAC8D3);fontColor=#FEFAE0;fontFamily=Tahoma;html=1;strokeColor=none;opacity=50;labelBackgroundColor=none;" vertex="1" parent="1">
          <mxGeometry x="500" y="540" width="810" height="490" as="geometry">
            <mxRectangle x="20" y="20" width="80" height="23" as="alternateBounds" />
          </mxGeometry>
        </mxCell>
        <mxCell id="OaKwWm5t6I1wfVNcC-3h-430" style="edgeStyle=orthogonalEdgeStyle;rounded=0;orthogonalLoop=1;jettySize=auto;html=1;entryX=0.5;entryY=0;entryDx=0;entryDy=0;strokeColor=#DDA15E;fontColor=#FEFAE0;fillColor=#BC6C25;" edge="1" parent="OaKwWm5t6I1wfVNcC-3h-429" source="OaKwWm5t6I1wfVNcC-3h-432" target="OaKwWm5t6I1wfVNcC-3h-434">
          <mxGeometry relative="1" as="geometry" />
        </mxCell>
        <mxCell id="OaKwWm5t6I1wfVNcC-3h-431" style="edgeStyle=orthogonalEdgeStyle;rounded=0;orthogonalLoop=1;jettySize=auto;html=1;entryX=0.5;entryY=0;entryDx=0;entryDy=0;strokeColor=#DDA15E;fontColor=#FEFAE0;fillColor=#BC6C25;" edge="1" parent="OaKwWm5t6I1wfVNcC-3h-429" source="OaKwWm5t6I1wfVNcC-3h-432" target="OaKwWm5t6I1wfVNcC-3h-457">
          <mxGeometry relative="1" as="geometry" />
        </mxCell>
        <mxCell id="OaKwWm5t6I1wfVNcC-3h-432" value="Security Issuer" style="whiteSpace=wrap;shadow=0;fontColor=#FEFAE0;fontFamily=Helvetica;fontStyle=0;html=1;fontSize=12;plain-purple;strokeColor=none;fillColor=#BC6C25;spacing=6;verticalAlign=middle;labelBackgroundColor=none;" vertex="1" parent="OaKwWm5t6I1wfVNcC-3h-429">
          <mxGeometry x="220" y="41.75" width="120" height="60" as="geometry" />
        </mxCell>
        <mxCell id="OaKwWm5t6I1wfVNcC-3h-433" style="edgeStyle=orthogonalEdgeStyle;rounded=0;orthogonalLoop=1;jettySize=auto;html=1;entryX=0;entryY=0.5;entryDx=0;entryDy=0;strokeColor=#DDA15E;fontColor=#FEFAE0;fillColor=#BC6C25;" edge="1" parent="OaKwWm5t6I1wfVNcC-3h-429" source="OaKwWm5t6I1wfVNcC-3h-434" target="OaKwWm5t6I1wfVNcC-3h-453">
          <mxGeometry relative="1" as="geometry">
            <mxPoint x="290" y="197.25" as="targetPoint" />
          </mxGeometry>
        </mxCell>
        <mxCell id="OaKwWm5t6I1wfVNcC-3h-434" value="&lt;span style=&quot;color: rgb(255, 255, 255);&quot;&gt;Preliminary Prospectus&lt;/span&gt;" style="shape=document;whiteSpace=wrap;verticalAlign=middle;strokeColor=none;fillColor=#BC6C25;shadow=0;fontColor=#FEFAE0;fontFamily=Helvetica;fontStyle=0;html=1;fontSize=12;spacing=6;spacingBottom=22;labelBackgroundColor=none;" vertex="1" parent="OaKwWm5t6I1wfVNcC-3h-429">
          <mxGeometry x="240" y="195" width="80" height="51" as="geometry" />
        </mxCell>
        <mxCell id="OaKwWm5t6I1wfVNcC-3h-435" value="CREST" style="whiteSpace=wrap;strokeColor=none;fillColor=#BC6C25;shadow=0;fontColor=#FEFAE0;fontFamily=Helvetica;fontStyle=0;html=1;fontSize=12;spacing=6;verticalAlign=middle;labelBackgroundColor=none;gradientColor=#FF0000;" vertex="1" parent="OaKwWm5t6I1wfVNcC-3h-429">
          <mxGeometry x="360" y="315.5" width="120" height="60" as="geometry" />
        </mxCell>
        <mxCell id="OaKwWm5t6I1wfVNcC-3h-436" style="edgeStyle=orthogonalEdgeStyle;rounded=0;orthogonalLoop=1;jettySize=auto;html=1;entryX=0.75;entryY=0;entryDx=0;entryDy=0;strokeColor=#6c8ebf;fontColor=#FEFAE0;fillColor=#dae8fc;exitX=1;exitY=1;exitDx=0;exitDy=0;exitPerimeter=0;" edge="1" parent="OaKwWm5t6I1wfVNcC-3h-429" source="OaKwWm5t6I1wfVNcC-3h-438" target="OaKwWm5t6I1wfVNcC-3h-442">
          <mxGeometry relative="1" as="geometry" />
        </mxCell>
        <mxCell id="OaKwWm5t6I1wfVNcC-3h-437" style="edgeStyle=orthogonalEdgeStyle;rounded=0;orthogonalLoop=1;jettySize=auto;html=1;entryX=0.25;entryY=0;entryDx=0;entryDy=0;strokeColor=#6c8ebf;fontColor=#FEFAE0;fillColor=#dae8fc;startArrow=classic;startFill=1;endArrow=none;endFill=0;" edge="1" parent="OaKwWm5t6I1wfVNcC-3h-429" source="OaKwWm5t6I1wfVNcC-3h-438" target="OaKwWm5t6I1wfVNcC-3h-442">
          <mxGeometry relative="1" as="geometry" />
        </mxCell>
        <mxCell id="OaKwWm5t6I1wfVNcC-3h-438" value="&lt;font style=&quot;font-size: 13px; color: rgb(0, 0, 0);&quot;&gt;Investor&lt;/font&gt;" style="shape=umlActor;verticalLabelPosition=bottom;verticalAlign=top;html=1;outlineConnect=0;strokeColor=#DDA15E;fontColor=#FEFAE0;fillColor=#BC6C25;" vertex="1" parent="OaKwWm5t6I1wfVNcC-3h-429">
          <mxGeometry x="675" y="50" width="30" height="60" as="geometry" />
        </mxCell>
        <mxCell id="OaKwWm5t6I1wfVNcC-3h-439" style="edgeStyle=orthogonalEdgeStyle;rounded=0;orthogonalLoop=1;jettySize=auto;html=1;entryX=0.75;entryY=0;entryDx=0;entryDy=0;strokeColor=#6c8ebf;fontColor=#FEFAE0;fillColor=#dae8fc;exitX=0.75;exitY=1;exitDx=0;exitDy=0;" edge="1" parent="OaKwWm5t6I1wfVNcC-3h-429" source="OaKwWm5t6I1wfVNcC-3h-442" target="OaKwWm5t6I1wfVNcC-3h-447">
          <mxGeometry relative="1" as="geometry" />
        </mxCell>
        <mxCell id="OaKwWm5t6I1wfVNcC-3h-440" value="" style="edgeLabel;html=1;align=center;verticalAlign=middle;resizable=0;points=[];strokeColor=#DDA15E;fontColor=#FEFAE0;fillColor=#BC6C25;" vertex="1" connectable="0" parent="OaKwWm5t6I1wfVNcC-3h-439">
          <mxGeometry x="-0.0388" y="2" relative="1" as="geometry">
            <mxPoint as="offset" />
          </mxGeometry>
        </mxCell>
        <mxCell id="OaKwWm5t6I1wfVNcC-3h-441" value="&lt;font style=&quot;color: rgb(25, 0, 51);&quot;&gt;Trade&lt;/font&gt;" style="edgeLabel;html=1;align=center;verticalAlign=middle;resizable=0;points=[];strokeColor=#DDA15E;fontColor=#FEFAE0;fillColor=#BC6C25;" vertex="1" connectable="0" parent="OaKwWm5t6I1wfVNcC-3h-439">
          <mxGeometry x="-0.0078" relative="1" as="geometry">
            <mxPoint as="offset" />
          </mxGeometry>
        </mxCell>
        <mxCell id="OaKwWm5t6I1wfVNcC-3h-442" value="Brokers" style="whiteSpace=wrap;shadow=0;fontColor=#FEFAE0;fontFamily=Helvetica;fontStyle=0;html=1;fontSize=12;plain-purple;strokeColor=none;fillColor=#BC6C25;spacing=6;verticalAlign=middle;labelBackgroundColor=none;gradientColor=#15039C;" vertex="1" parent="OaKwWm5t6I1wfVNcC-3h-429">
          <mxGeometry x="630" y="191" width="120" height="60" as="geometry" />
        </mxCell>
        <mxCell id="OaKwWm5t6I1wfVNcC-3h-443" value="Settlement Bank" style="whiteSpace=wrap;shadow=0;fontColor=#FEFAE0;fontFamily=Helvetica;fontStyle=0;html=1;fontSize=12;plain-purple;strokeColor=none;fillColor=#BC6C25;spacing=6;verticalAlign=middle;labelBackgroundColor=none;gradientColor=#008F9C;" vertex="1" parent="OaKwWm5t6I1wfVNcC-3h-429">
          <mxGeometry x="490" y="220" width="120" height="60" as="geometry" />
        </mxCell>
        <mxCell id="OaKwWm5t6I1wfVNcC-3h-444" style="edgeStyle=orthogonalEdgeStyle;rounded=0;orthogonalLoop=1;jettySize=auto;html=1;entryX=0.25;entryY=1;entryDx=0;entryDy=0;strokeColor=#6c8ebf;fontColor=#FEFAE0;fillColor=#dae8fc;exitX=0.25;exitY=0;exitDx=0;exitDy=0;" edge="1" parent="OaKwWm5t6I1wfVNcC-3h-429" source="OaKwWm5t6I1wfVNcC-3h-447" target="OaKwWm5t6I1wfVNcC-3h-442">
          <mxGeometry relative="1" as="geometry" />
        </mxCell>
        <mxCell id="OaKwWm5t6I1wfVNcC-3h-445" value="&lt;font style=&quot;color: rgb(0, 0, 0);&quot;&gt;Settlement&lt;/font&gt;" style="edgeLabel;html=1;align=center;verticalAlign=middle;resizable=0;points=[];strokeColor=#DDA15E;fontColor=#FEFAE0;fillColor=#BC6C25;" vertex="1" connectable="0" parent="OaKwWm5t6I1wfVNcC-3h-444">
          <mxGeometry x="0.0388" relative="1" as="geometry">
            <mxPoint y="1" as="offset" />
          </mxGeometry>
        </mxCell>
        <mxCell id="OaKwWm5t6I1wfVNcC-3h-446" value="&lt;font style=&quot;color: rgb(0, 0, 0);&quot;&gt;Clearing&lt;/font&gt;" style="rounded=0;orthogonalLoop=1;jettySize=auto;html=1;entryX=0.75;entryY=0;entryDx=0;entryDy=0;strokeColor=#6c8ebf;fontColor=#FEFAE0;fillColor=#dae8fc;" edge="1" parent="OaKwWm5t6I1wfVNcC-3h-429" source="OaKwWm5t6I1wfVNcC-3h-447">
          <mxGeometry x="1" y="-41" relative="1" as="geometry">
            <mxPoint x="580" y="410" as="targetPoint" />
            <mxPoint x="-20" y="26" as="offset" />
          </mxGeometry>
        </mxCell>
        <mxCell id="OaKwWm5t6I1wfVNcC-3h-447" value="LSE" style="whiteSpace=wrap;shadow=0;fontColor=#FEFAE0;fontFamily=Helvetica;fontStyle=0;html=1;fontSize=12;plain-purple;strokeColor=none;fillColor=#BC6C25;spacing=6;verticalAlign=middle;labelBackgroundColor=none;gradientColor=#9C0505;" vertex="1" parent="OaKwWm5t6I1wfVNcC-3h-429">
          <mxGeometry x="630" y="315.5" width="120" height="64.5" as="geometry" />
        </mxCell>
        <mxCell id="OaKwWm5t6I1wfVNcC-3h-448" value="&lt;font style=&quot;color: rgb(25, 0, 51);&quot;&gt;T+2&lt;/font&gt;" style="text;strokeColor=none;align=center;fillColor=none;html=1;verticalAlign=middle;whiteSpace=wrap;rounded=0;fontColor=#FEFAE0;" vertex="1" parent="OaKwWm5t6I1wfVNcC-3h-429">
          <mxGeometry x="520" y="330.5" width="60" height="30" as="geometry" />
        </mxCell>
        <mxCell id="OaKwWm5t6I1wfVNcC-3h-449" style="rounded=0;orthogonalLoop=1;jettySize=auto;html=1;strokeColor=#6c8ebf;fontColor=#FEFAE0;fillColor=#dae8fc;startArrow=classic;startFill=1;" edge="1" parent="OaKwWm5t6I1wfVNcC-3h-429">
          <mxGeometry relative="1" as="geometry">
            <mxPoint x="490" y="310" as="sourcePoint" />
            <mxPoint x="520" y="290" as="targetPoint" />
          </mxGeometry>
        </mxCell>
        <mxCell id="OaKwWm5t6I1wfVNcC-3h-450" style="rounded=0;orthogonalLoop=1;jettySize=auto;html=1;strokeColor=#6c8ebf;fontColor=#FEFAE0;fillColor=#dae8fc;startArrow=classic;startFill=1;" edge="1" parent="OaKwWm5t6I1wfVNcC-3h-429">
          <mxGeometry relative="1" as="geometry">
            <mxPoint x="590" y="287" as="sourcePoint" />
            <mxPoint x="630" y="320" as="targetPoint" />
          </mxGeometry>
        </mxCell>
        <mxCell id="OaKwWm5t6I1wfVNcC-3h-451" value="&lt;font style=&quot;color: rgb(25, 0, 51);&quot;&gt;Cash Settlement&lt;/font&gt;" style="edgeLabel;html=1;align=center;verticalAlign=middle;resizable=0;points=[];strokeColor=#DDA15E;fontColor=#FEFAE0;fillColor=#BC6C25;" vertex="1" connectable="0" parent="OaKwWm5t6I1wfVNcC-3h-450">
          <mxGeometry x="-0.02" y="-1" relative="1" as="geometry">
            <mxPoint x="-49" y="-4" as="offset" />
          </mxGeometry>
        </mxCell>
        <mxCell id="OaKwWm5t6I1wfVNcC-3h-452" style="edgeStyle=orthogonalEdgeStyle;rounded=0;orthogonalLoop=1;jettySize=auto;html=1;entryX=0.5;entryY=0;entryDx=0;entryDy=0;strokeColor=#DDA15E;fontColor=#FEFAE0;fillColor=#BC6C25;" edge="1" parent="OaKwWm5t6I1wfVNcC-3h-429" source="OaKwWm5t6I1wfVNcC-3h-453" target="OaKwWm5t6I1wfVNcC-3h-435">
          <mxGeometry relative="1" as="geometry">
            <mxPoint x="430" y="315.5" as="targetPoint" />
          </mxGeometry>
        </mxCell>
        <mxCell id="OaKwWm5t6I1wfVNcC-3h-453" value="Registrars" style="whiteSpace=wrap;shadow=0;fontColor=#FEFAE0;fontFamily=Helvetica;fontStyle=0;html=1;fontSize=12;plain-purple;strokeColor=none;fillColor=#BC6C25;spacing=6;verticalAlign=middle;labelBackgroundColor=none;gradientColor=#008F9C;" vertex="1" parent="OaKwWm5t6I1wfVNcC-3h-429">
          <mxGeometry x="370" y="201" width="100" height="39" as="geometry" />
        </mxCell>
        <mxCell id="OaKwWm5t6I1wfVNcC-3h-454" style="rounded=0;orthogonalLoop=1;jettySize=auto;html=1;entryX=0.75;entryY=1;entryDx=0;entryDy=0;strokeColor=#6c8ebf;fontColor=#FEFAE0;fillColor=#dae8fc;exitX=0.25;exitY=0;exitDx=0;exitDy=0;" edge="1" parent="OaKwWm5t6I1wfVNcC-3h-429" target="OaKwWm5t6I1wfVNcC-3h-435">
          <mxGeometry relative="1" as="geometry">
            <mxPoint x="520" y="410" as="sourcePoint" />
          </mxGeometry>
        </mxCell>
        <mxCell id="OaKwWm5t6I1wfVNcC-3h-455" value="&lt;font style=&quot;color: rgb(25, 0, 51);&quot;&gt;Security Settlement&lt;/font&gt;" style="edgeLabel;html=1;align=center;verticalAlign=middle;resizable=0;points=[];strokeColor=#DDA15E;fontColor=#FEFAE0;fillColor=#BC6C25;" vertex="1" connectable="0" parent="OaKwWm5t6I1wfVNcC-3h-454">
          <mxGeometry x="-0.0145" y="-1" relative="1" as="geometry">
            <mxPoint x="-6" y="-2" as="offset" />
          </mxGeometry>
        </mxCell>
        <mxCell id="OaKwWm5t6I1wfVNcC-3h-456" style="edgeStyle=orthogonalEdgeStyle;rounded=0;orthogonalLoop=1;jettySize=auto;html=1;entryX=0.5;entryY=0;entryDx=0;entryDy=0;strokeColor=#DDA15E;fontColor=#FEFAE0;fillColor=#BC6C25;" edge="1" parent="OaKwWm5t6I1wfVNcC-3h-429" source="OaKwWm5t6I1wfVNcC-3h-457" target="OaKwWm5t6I1wfVNcC-3h-453">
          <mxGeometry relative="1" as="geometry" />
        </mxCell>
        <mxCell id="OaKwWm5t6I1wfVNcC-3h-457" value="Coporate Actions" style="shape=document;whiteSpace=wrap;verticalAlign=middle;strokeColor=none;fillColor=#BC6C25;shadow=0;fontColor=#FEFAE0;fontFamily=Helvetica;fontStyle=0;html=1;fontSize=12;spacing=6;spacingBottom=22;labelBackgroundColor=none;" vertex="1" parent="OaKwWm5t6I1wfVNcC-3h-429">
          <mxGeometry x="375" y="120" width="90" height="50" as="geometry" />
        </mxCell>
        <mxCell id="OaKwWm5t6I1wfVNcC-3h-460" style="edgeStyle=orthogonalEdgeStyle;rounded=0;orthogonalLoop=1;jettySize=auto;html=1;strokeColor=#DDA15E;fontColor=#FEFAE0;fillColor=#BC6C25;" edge="1" parent="OaKwWm5t6I1wfVNcC-3h-429" source="OaKwWm5t6I1wfVNcC-3h-461" target="OaKwWm5t6I1wfVNcC-3h-463">
          <mxGeometry relative="1" as="geometry" />
        </mxCell>
        <mxCell id="OaKwWm5t6I1wfVNcC-3h-461" value="Custodian Bank" style="whiteSpace=wrap;shadow=0;fontColor=#FEFAE0;fontFamily=Helvetica;fontStyle=0;html=1;fontSize=12;plain-purple;strokeColor=none;fillColor=#BC6C25;spacing=6;verticalAlign=middle;labelBackgroundColor=none;gradientColor=#15039C;" vertex="1" parent="OaKwWm5t6I1wfVNcC-3h-429">
          <mxGeometry x="80" y="315.5" width="120" height="60" as="geometry" />
        </mxCell>
        <mxCell id="OaKwWm5t6I1wfVNcC-3h-462" style="edgeStyle=orthogonalEdgeStyle;rounded=0;orthogonalLoop=1;jettySize=auto;html=1;entryX=0;entryY=0.5;entryDx=0;entryDy=0;strokeColor=#DDA15E;fontColor=#FEFAE0;fillColor=#BC6C25;" edge="1" parent="OaKwWm5t6I1wfVNcC-3h-429" source="OaKwWm5t6I1wfVNcC-3h-463" target="OaKwWm5t6I1wfVNcC-3h-434">
          <mxGeometry relative="1" as="geometry" />
        </mxCell>
        <mxCell id="OaKwWm5t6I1wfVNcC-3h-463" value="&lt;font style=&quot;font-size: 13px; color: rgb(0, 0, 0);&quot;&gt;Investor&lt;/font&gt;" style="shape=umlActor;verticalLabelPosition=bottom;verticalAlign=top;html=1;outlineConnect=0;strokeColor=#DDA15E;fontColor=#FEFAE0;fillColor=#BC6C25;" vertex="1" parent="OaKwWm5t6I1wfVNcC-3h-429">
          <mxGeometry x="125" y="190.5" width="30" height="60" as="geometry" />
        </mxCell>
        <mxCell id="OaKwWm5t6I1wfVNcC-3h-464" style="edgeStyle=orthogonalEdgeStyle;rounded=0;orthogonalLoop=1;jettySize=auto;html=1;entryX=1;entryY=0.5;entryDx=0;entryDy=0;strokeColor=#DDA15E;fontColor=#FEFAE0;fillColor=#BC6C25;" edge="1" parent="OaKwWm5t6I1wfVNcC-3h-429" source="OaKwWm5t6I1wfVNcC-3h-435" target="OaKwWm5t6I1wfVNcC-3h-461">
          <mxGeometry relative="1" as="geometry">
            <mxPoint x="290" y="345.5" as="targetPoint" />
          </mxGeometry>
        </mxCell>
        <mxCell id="OaKwWm5t6I1wfVNcC-3h-465" value="&lt;font style=&quot;color: rgb(25, 0, 51);&quot;&gt;Order&lt;/font&gt;" style="text;strokeColor=none;align=center;fillColor=none;html=1;verticalAlign=middle;whiteSpace=wrap;rounded=0;fontColor=#FEFAE0;" vertex="1" parent="OaKwWm5t6I1wfVNcC-3h-429">
          <mxGeometry x="660" y="150" width="60" height="30" as="geometry" />
        </mxCell>
        <mxCell id="OaKwWm5t6I1wfVNcC-3h-466" value="LCH.Clearnet /&lt;div&gt;SIX x-clear / EuroCCP&lt;/div&gt;" style="whiteSpace=wrap;strokeColor=none;fillColor=#BC6C25;shadow=0;fontColor=#FEFAE0;fontFamily=Helvetica;fontStyle=0;html=1;fontSize=12;spacing=6;verticalAlign=middle;labelBackgroundColor=none;gradientColor=#FF0000;" vertex="1" parent="OaKwWm5t6I1wfVNcC-3h-429">
          <mxGeometry x="490" y="410" width="120" height="60" as="geometry" />
        </mxCell>
        <mxCell id="OaKwWm5t6I1wfVNcC-3h-512" style="edgeStyle=orthogonalEdgeStyle;rounded=0;orthogonalLoop=1;jettySize=auto;html=1;entryX=0;entryY=0.5;entryDx=0;entryDy=0;strokeColor=#DDA15E;fontColor=#FEFAE0;fillColor=#BC6C25;" edge="1" parent="1" source="OaKwWm5t6I1wfVNcC-3h-506" target="OaKwWm5t6I1wfVNcC-3h-508">
          <mxGeometry relative="1" as="geometry" />
        </mxCell>
        <mxCell id="OaKwWm5t6I1wfVNcC-3h-513" style="edgeStyle=orthogonalEdgeStyle;rounded=0;orthogonalLoop=1;jettySize=auto;html=1;entryX=0;entryY=0.5;entryDx=0;entryDy=0;strokeColor=#DDA15E;fontColor=#FEFAE0;fillColor=#BC6C25;" edge="1" parent="1" target="OaKwWm5t6I1wfVNcC-3h-509">
          <mxGeometry relative="1" as="geometry">
            <mxPoint x="-70" y="1885" as="sourcePoint" />
            <Array as="points">
              <mxPoint x="-70" y="1865" />
              <mxPoint x="-34" y="1865" />
              <mxPoint x="-34" y="1925" />
            </Array>
          </mxGeometry>
        </mxCell>
        <mxCell id="OaKwWm5t6I1wfVNcC-3h-514" style="edgeStyle=orthogonalEdgeStyle;rounded=0;orthogonalLoop=1;jettySize=auto;html=1;strokeColor=#DDA15E;fontColor=#FEFAE0;fillColor=#BC6C25;entryX=0;entryY=0.5;entryDx=0;entryDy=0;" edge="1" parent="1" target="OaKwWm5t6I1wfVNcC-3h-510">
          <mxGeometry relative="1" as="geometry">
            <mxPoint x="-70" y="1885" as="sourcePoint" />
            <mxPoint x="-20" y="2055" as="targetPoint" />
            <Array as="points">
              <mxPoint x="-70" y="1865" />
              <mxPoint x="-34" y="1865" />
              <mxPoint x="-34" y="2045" />
            </Array>
          </mxGeometry>
        </mxCell>
        <mxCell id="OaKwWm5t6I1wfVNcC-3h-506" value="登记&lt;div&gt;Registration&lt;/div&gt;" style="rounded=1;whiteSpace=wrap;html=1;strokeColor=#6c8ebf;fillColor=#dae8fc;fontStyle=1" vertex="1" parent="1">
          <mxGeometry x="-190" y="1834" width="120" height="60" as="geometry" />
        </mxCell>
        <mxCell id="OaKwWm5t6I1wfVNcC-3h-527" style="edgeStyle=orthogonalEdgeStyle;rounded=0;orthogonalLoop=1;jettySize=auto;html=1;strokeColor=#DDA15E;fontColor=#FEFAE0;fillColor=#BC6C25;" edge="1" parent="1" source="OaKwWm5t6I1wfVNcC-3h-508" target="OaKwWm5t6I1wfVNcC-3h-526">
          <mxGeometry relative="1" as="geometry" />
        </mxCell>
        <mxCell id="OaKwWm5t6I1wfVNcC-3h-508" value="中国香港&lt;br&gt;&lt;div&gt;HK&lt;/div&gt;" style="rounded=1;whiteSpace=wrap;html=1;strokeColor=#6c8ebf;fillColor=#dae8fc;fontStyle=1" vertex="1" parent="1">
          <mxGeometry y="1785" width="120" height="60" as="geometry" />
        </mxCell>
        <mxCell id="OaKwWm5t6I1wfVNcC-3h-534" style="edgeStyle=orthogonalEdgeStyle;rounded=0;orthogonalLoop=1;jettySize=auto;html=1;strokeColor=#DDA15E;fontColor=#FEFAE0;fillColor=#BC6C25;" edge="1" parent="1" source="OaKwWm5t6I1wfVNcC-3h-509" target="OaKwWm5t6I1wfVNcC-3h-533">
          <mxGeometry relative="1" as="geometry" />
        </mxCell>
        <mxCell id="OaKwWm5t6I1wfVNcC-3h-509" value="美国&lt;br&gt;&lt;div&gt;US&lt;/div&gt;" style="rounded=1;whiteSpace=wrap;html=1;strokeColor=#6c8ebf;fillColor=#dae8fc;fontStyle=1" vertex="1" parent="1">
          <mxGeometry y="1895" width="120" height="60" as="geometry" />
        </mxCell>
        <mxCell id="OaKwWm5t6I1wfVNcC-3h-510" value="英国&lt;br&gt;&lt;div&gt;UK&lt;/div&gt;" style="rounded=1;whiteSpace=wrap;html=1;strokeColor=#6c8ebf;fillColor=#dae8fc;fontStyle=1" vertex="1" parent="1">
          <mxGeometry y="2015" width="120" height="60" as="geometry" />
        </mxCell>
        <mxCell id="OaKwWm5t6I1wfVNcC-3h-530" style="edgeStyle=orthogonalEdgeStyle;rounded=0;orthogonalLoop=1;jettySize=auto;html=1;entryX=0;entryY=0.5;entryDx=0;entryDy=0;strokeColor=#DDA15E;fontColor=#FEFAE0;fillColor=#BC6C25;" edge="1" parent="1" source="OaKwWm5t6I1wfVNcC-3h-526" target="OaKwWm5t6I1wfVNcC-3h-528">
          <mxGeometry relative="1" as="geometry" />
        </mxCell>
        <mxCell id="OaKwWm5t6I1wfVNcC-3h-531" style="edgeStyle=orthogonalEdgeStyle;rounded=0;orthogonalLoop=1;jettySize=auto;html=1;entryX=0;entryY=0.5;entryDx=0;entryDy=0;strokeColor=#DDA15E;fontColor=#FEFAE0;fillColor=#BC6C25;" edge="1" parent="1" source="OaKwWm5t6I1wfVNcC-3h-526" target="OaKwWm5t6I1wfVNcC-3h-529">
          <mxGeometry relative="1" as="geometry" />
        </mxCell>
        <mxCell id="OaKwWm5t6I1wfVNcC-3h-539" style="edgeStyle=orthogonalEdgeStyle;rounded=0;orthogonalLoop=1;jettySize=auto;html=1;strokeColor=#DDA15E;fontColor=#FEFAE0;fillColor=#BC6C25;" edge="1" parent="1" source="OaKwWm5t6I1wfVNcC-3h-526" target="OaKwWm5t6I1wfVNcC-3h-532">
          <mxGeometry relative="1" as="geometry">
            <Array as="points">
              <mxPoint x="350" y="1815" />
              <mxPoint x="350" y="1849" />
            </Array>
          </mxGeometry>
        </mxCell>
        <mxCell id="OaKwWm5t6I1wfVNcC-3h-526" value="&lt;div&gt;&lt;span style=&quot;background-color: transparent;&quot;&gt;证券登记公司总会会员&lt;/span&gt;&lt;span style=&quot;background-color: transparent; color: light-dark(rgb(0, 0, 0), rgb(255, 255, 255));&quot;&gt;FSR Member&lt;/span&gt;&lt;/div&gt;" style="rounded=1;whiteSpace=wrap;html=1;strokeColor=#6c8ebf;fillColor=#dae8fc;fontStyle=1" vertex="1" parent="1">
          <mxGeometry x="180" y="1785" width="140" height="60" as="geometry" />
        </mxCell>
        <mxCell id="OaKwWm5t6I1wfVNcC-3h-528" value="Computershare" style="rounded=1;whiteSpace=wrap;html=1;fontStyle=1" vertex="1" parent="1">
          <mxGeometry x="380" y="1777.5" width="120" height="30" as="geometry" />
        </mxCell>
        <mxCell id="OaKwWm5t6I1wfVNcC-3h-529" value="Tricor" style="rounded=1;whiteSpace=wrap;html=1;fontStyle=1" vertex="1" parent="1">
          <mxGeometry x="380" y="1815" width="120" height="30" as="geometry" />
        </mxCell>
        <mxCell id="OaKwWm5t6I1wfVNcC-3h-532" value="&lt;font color=&quot;#000000&quot;&gt;&lt;b&gt;...&lt;/b&gt;&lt;/font&gt;" style="text;html=1;align=left;verticalAlign=middle;whiteSpace=wrap;rounded=0;fontColor=#FEFAE0;" vertex="1" parent="1">
          <mxGeometry x="380" y="1834" width="60" height="30" as="geometry" />
        </mxCell>
        <mxCell id="OaKwWm5t6I1wfVNcC-3h-537" style="edgeStyle=orthogonalEdgeStyle;rounded=0;orthogonalLoop=1;jettySize=auto;html=1;entryX=0;entryY=0.5;entryDx=0;entryDy=0;strokeColor=#DDA15E;fontColor=#FEFAE0;fillColor=#BC6C25;" edge="1" parent="1" target="OaKwWm5t6I1wfVNcC-3h-535">
          <mxGeometry relative="1" as="geometry">
            <mxPoint x="120" y="2049" as="sourcePoint" />
          </mxGeometry>
        </mxCell>
        <mxCell id="OaKwWm5t6I1wfVNcC-3h-538" style="edgeStyle=orthogonalEdgeStyle;rounded=0;orthogonalLoop=1;jettySize=auto;html=1;entryX=0;entryY=0.5;entryDx=0;entryDy=0;strokeColor=#DDA15E;fontColor=#FEFAE0;fillColor=#BC6C25;" edge="1" parent="1" target="OaKwWm5t6I1wfVNcC-3h-536">
          <mxGeometry relative="1" as="geometry">
            <mxPoint x="120" y="2049" as="sourcePoint" />
          </mxGeometry>
        </mxCell>
        <mxCell id="OaKwWm5t6I1wfVNcC-3h-533" value="&lt;div&gt;&lt;span style=&quot;background-color: transparent;&quot;&gt;过户代理人&lt;/span&gt;&lt;/div&gt;&lt;div&gt;Transfer Agent&lt;/div&gt;" style="rounded=1;whiteSpace=wrap;html=1;strokeColor=#6c8ebf;fillColor=#dae8fc;fontStyle=1" vertex="1" parent="1">
          <mxGeometry x="180" y="1895" width="140" height="60" as="geometry" />
        </mxCell>
        <mxCell id="OaKwWm5t6I1wfVNcC-3h-543" style="edgeStyle=orthogonalEdgeStyle;rounded=0;orthogonalLoop=1;jettySize=auto;html=1;entryX=0;entryY=0.5;entryDx=0;entryDy=0;strokeColor=#DDA15E;fontColor=#FEFAE0;fillColor=#BC6C25;" edge="1" parent="1" source="OaKwWm5t6I1wfVNcC-3h-535" target="OaKwWm5t6I1wfVNcC-3h-540">
          <mxGeometry relative="1" as="geometry" />
        </mxCell>
        <mxCell id="OaKwWm5t6I1wfVNcC-3h-544" style="edgeStyle=orthogonalEdgeStyle;rounded=0;orthogonalLoop=1;jettySize=auto;html=1;entryX=0;entryY=0.5;entryDx=0;entryDy=0;strokeColor=#DDA15E;fontColor=#FEFAE0;fillColor=#BC6C25;" edge="1" parent="1" source="OaKwWm5t6I1wfVNcC-3h-535" target="OaKwWm5t6I1wfVNcC-3h-541">
          <mxGeometry relative="1" as="geometry" />
        </mxCell>
        <mxCell id="OaKwWm5t6I1wfVNcC-3h-545" style="edgeStyle=orthogonalEdgeStyle;rounded=0;orthogonalLoop=1;jettySize=auto;html=1;entryX=0;entryY=0.5;entryDx=0;entryDy=0;strokeColor=#DDA15E;fontColor=#FEFAE0;fillColor=#BC6C25;" edge="1" parent="1" source="OaKwWm5t6I1wfVNcC-3h-535" target="OaKwWm5t6I1wfVNcC-3h-542">
          <mxGeometry relative="1" as="geometry" />
        </mxCell>
        <mxCell id="OaKwWm5t6I1wfVNcC-3h-535" value="&lt;div&gt;发行人登记簿&lt;/div&gt;&lt;div&gt;Issuer&amp;nbsp; Register&amp;nbsp; of&amp;nbsp; Securities&lt;/div&gt;" style="rounded=1;whiteSpace=wrap;html=1;strokeColor=#6c8ebf;fillColor=#dae8fc;fontStyle=1" vertex="1" parent="1">
          <mxGeometry x="180" y="1998" width="140" height="51" as="geometry" />
        </mxCell>
        <mxCell id="OaKwWm5t6I1wfVNcC-3h-549" style="edgeStyle=orthogonalEdgeStyle;rounded=0;orthogonalLoop=1;jettySize=auto;html=1;entryX=0;entryY=0.5;entryDx=0;entryDy=0;strokeColor=#DDA15E;fontColor=#FEFAE0;fillColor=#BC6C25;" edge="1" parent="1" source="OaKwWm5t6I1wfVNcC-3h-536" target="OaKwWm5t6I1wfVNcC-3h-548">
          <mxGeometry relative="1" as="geometry" />
        </mxCell>
        <mxCell id="OaKwWm5t6I1wfVNcC-3h-536" value="&lt;div&gt;运营商登记簿&lt;/div&gt;&lt;div&gt;Operator&amp;nbsp; Register&amp;nbsp; of&amp;nbsp; Securities&lt;/div&gt;" style="rounded=1;whiteSpace=wrap;html=1;strokeColor=#6c8ebf;fillColor=#dae8fc;fontStyle=1" vertex="1" parent="1">
          <mxGeometry x="180" y="2075" width="140" height="51" as="geometry" />
        </mxCell>
        <mxCell id="OaKwWm5t6I1wfVNcC-3h-540" value="Equiniti" style="rounded=1;whiteSpace=wrap;html=1;fontStyle=1" vertex="1" parent="1">
          <mxGeometry x="390" y="1955" width="120" height="30" as="geometry" />
        </mxCell>
        <mxCell id="OaKwWm5t6I1wfVNcC-3h-541" value="&lt;p style=&quot;margin: 0pt 0pt 0.0001pt; text-align: left; vertical-align: baseline;&quot; class=&quot;MsoNormal&quot;&gt;&lt;span style=&quot;text-align: center;&quot;&gt;Capita&lt;/span&gt;&lt;/p&gt;" style="rounded=1;whiteSpace=wrap;html=1;fontStyle=1" vertex="1" parent="1">
          <mxGeometry x="390" y="1998" width="120" height="30" as="geometry" />
        </mxCell>
        <mxCell id="OaKwWm5t6I1wfVNcC-3h-542" value="Computershare" style="rounded=1;whiteSpace=wrap;html=1;fontStyle=1" vertex="1" parent="1">
          <mxGeometry x="390" y="2035" width="120" height="30" as="geometry" />
        </mxCell>
        <mxCell id="OaKwWm5t6I1wfVNcC-3h-548" value="&lt;div&gt;CREST&lt;/div&gt;" style="rounded=1;whiteSpace=wrap;html=1;strokeColor=#6c8ebf;fillColor=#dae8fc;fontStyle=1" vertex="1" parent="1">
          <mxGeometry x="390" y="2075" width="140" height="51" as="geometry" />
        </mxCell>
        <mxCell id="OaKwWm5t6I1wfVNcC-3h-551" style="edgeStyle=orthogonalEdgeStyle;rounded=0;orthogonalLoop=1;jettySize=auto;html=1;entryX=0;entryY=0.5;entryDx=0;entryDy=0;strokeColor=#DDA15E;fontColor=#FEFAE0;fillColor=#BC6C25;" edge="1" parent="1" source="OaKwWm5t6I1wfVNcC-3h-554" target="OaKwWm5t6I1wfVNcC-3h-556">
          <mxGeometry relative="1" as="geometry" />
        </mxCell>
        <mxCell id="OaKwWm5t6I1wfVNcC-3h-552" style="rounded=0;orthogonalLoop=1;jettySize=auto;html=1;entryX=0;entryY=0.5;entryDx=0;entryDy=0;strokeColor=#DDA15E;fontColor=#FEFAE0;fillColor=#BC6C25;exitX=1;exitY=0.5;exitDx=0;exitDy=0;edgeStyle=orthogonalEdgeStyle;" edge="1" parent="1" target="OaKwWm5t6I1wfVNcC-3h-557" source="OaKwWm5t6I1wfVNcC-3h-554">
          <mxGeometry relative="1" as="geometry">
            <mxPoint x="-50" y="2325" as="sourcePoint" />
          </mxGeometry>
        </mxCell>
        <mxCell id="OaKwWm5t6I1wfVNcC-3h-553" style="rounded=0;orthogonalLoop=1;jettySize=auto;html=1;strokeColor=#DDA15E;fontColor=#FEFAE0;fillColor=#BC6C25;entryX=0;entryY=0.5;entryDx=0;entryDy=0;exitX=1;exitY=0.5;exitDx=0;exitDy=0;edgeStyle=orthogonalEdgeStyle;" edge="1" parent="1" target="OaKwWm5t6I1wfVNcC-3h-558" source="OaKwWm5t6I1wfVNcC-3h-554">
          <mxGeometry relative="1" as="geometry">
            <mxPoint x="-50" y="2325" as="sourcePoint" />
            <mxPoint y="2495" as="targetPoint" />
          </mxGeometry>
        </mxCell>
        <mxCell id="OaKwWm5t6I1wfVNcC-3h-554" value="托管与存管&lt;div&gt;Custody&amp;amp;Depository&lt;/div&gt;" style="rounded=1;whiteSpace=wrap;html=1;strokeColor=#6c8ebf;fillColor=#dae8fc;fontStyle=1" vertex="1" parent="1">
          <mxGeometry x="-190" y="2270" width="140" height="64" as="geometry" />
        </mxCell>
        <mxCell id="OaKwWm5t6I1wfVNcC-3h-563" style="edgeStyle=orthogonalEdgeStyle;rounded=0;orthogonalLoop=1;jettySize=auto;html=1;entryX=0;entryY=0.5;entryDx=0;entryDy=0;strokeColor=#DDA15E;fontColor=#FEFAE0;fillColor=#BC6C25;" edge="1" parent="1" source="OaKwWm5t6I1wfVNcC-3h-556" target="OaKwWm5t6I1wfVNcC-3h-562">
          <mxGeometry relative="1" as="geometry" />
        </mxCell>
        <mxCell id="OaKwWm5t6I1wfVNcC-3h-556" value="中国香港&lt;br&gt;&lt;div&gt;HK&lt;/div&gt;" style="rounded=1;whiteSpace=wrap;html=1;strokeColor=#6c8ebf;fillColor=#dae8fc;fontStyle=1" vertex="1" parent="1">
          <mxGeometry x="20" y="2150" width="120" height="60" as="geometry" />
        </mxCell>
        <mxCell id="OaKwWm5t6I1wfVNcC-3h-565" style="edgeStyle=orthogonalEdgeStyle;rounded=0;orthogonalLoop=1;jettySize=auto;html=1;entryX=0;entryY=0.5;entryDx=0;entryDy=0;strokeColor=#DDA15E;fontColor=#FEFAE0;fillColor=#BC6C25;" edge="1" parent="1" source="OaKwWm5t6I1wfVNcC-3h-557" target="OaKwWm5t6I1wfVNcC-3h-564">
          <mxGeometry relative="1" as="geometry" />
        </mxCell>
        <mxCell id="OaKwWm5t6I1wfVNcC-3h-557" value="美国&lt;br&gt;&lt;div&gt;US&lt;/div&gt;" style="rounded=1;whiteSpace=wrap;html=1;strokeColor=#6c8ebf;fillColor=#dae8fc;fontStyle=1" vertex="1" parent="1">
          <mxGeometry x="20" y="2272" width="120" height="60" as="geometry" />
        </mxCell>
        <mxCell id="OaKwWm5t6I1wfVNcC-3h-567" style="edgeStyle=orthogonalEdgeStyle;rounded=0;orthogonalLoop=1;jettySize=auto;html=1;entryX=0;entryY=0.5;entryDx=0;entryDy=0;strokeColor=#DDA15E;fontColor=#FEFAE0;fillColor=#BC6C25;" edge="1" parent="1" source="OaKwWm5t6I1wfVNcC-3h-558" target="OaKwWm5t6I1wfVNcC-3h-566">
          <mxGeometry relative="1" as="geometry" />
        </mxCell>
        <mxCell id="OaKwWm5t6I1wfVNcC-3h-558" value="英国&lt;br&gt;&lt;div&gt;UK&lt;/div&gt;" style="rounded=1;whiteSpace=wrap;html=1;strokeColor=#6c8ebf;fillColor=#dae8fc;fontStyle=1" vertex="1" parent="1">
          <mxGeometry x="20" y="2390" width="120" height="60" as="geometry" />
        </mxCell>
        <mxCell id="OaKwWm5t6I1wfVNcC-3h-562" value="香港结算&lt;div&gt;CCASS&lt;/div&gt;" style="rounded=1;whiteSpace=wrap;html=1;strokeColor=#6c8ebf;fillColor=#dae8fc;fontStyle=1" vertex="1" parent="1">
          <mxGeometry x="210" y="2150" width="120" height="60" as="geometry" />
        </mxCell>
        <mxCell id="OaKwWm5t6I1wfVNcC-3h-564" value="存管信托公司&lt;br&gt;&lt;div&gt;DTC&lt;/div&gt;" style="rounded=1;whiteSpace=wrap;html=1;strokeColor=#6c8ebf;fillColor=#dae8fc;fontStyle=1" vertex="1" parent="1">
          <mxGeometry x="210" y="2272" width="120" height="60" as="geometry" />
        </mxCell>
        <mxCell id="OaKwWm5t6I1wfVNcC-3h-566" value="英国及爱尔兰市场证券结算&lt;br&gt;&lt;div&gt;CREST&lt;/div&gt;" style="rounded=1;whiteSpace=wrap;html=1;strokeColor=#6c8ebf;fillColor=#dae8fc;fontStyle=1" vertex="1" parent="1">
          <mxGeometry x="210" y="2390" width="120" height="60" as="geometry" />
        </mxCell>
        <mxCell id="OaKwWm5t6I1wfVNcC-3h-579" style="edgeStyle=orthogonalEdgeStyle;rounded=0;orthogonalLoop=1;jettySize=auto;html=1;entryX=0;entryY=0.5;entryDx=0;entryDy=0;strokeColor=#DDA15E;fontColor=#FEFAE0;fillColor=#BC6C25;" edge="1" parent="1" source="OaKwWm5t6I1wfVNcC-3h-568" target="OaKwWm5t6I1wfVNcC-3h-569">
          <mxGeometry relative="1" as="geometry" />
        </mxCell>
        <mxCell id="OaKwWm5t6I1wfVNcC-3h-580" style="edgeStyle=orthogonalEdgeStyle;rounded=0;orthogonalLoop=1;jettySize=auto;html=1;entryX=0;entryY=0.5;entryDx=0;entryDy=0;strokeColor=#DDA15E;fontColor=#FEFAE0;fillColor=#BC6C25;" edge="1" parent="1" source="OaKwWm5t6I1wfVNcC-3h-568" target="OaKwWm5t6I1wfVNcC-3h-578">
          <mxGeometry relative="1" as="geometry" />
        </mxCell>
        <mxCell id="OaKwWm5t6I1wfVNcC-3h-568" value="结算&lt;br&gt;&lt;div&gt;Post Trade&lt;/div&gt;" style="rounded=1;whiteSpace=wrap;html=1;strokeColor=#6c8ebf;fillColor=#dae8fc;fontStyle=1" vertex="1" parent="1">
          <mxGeometry x="-190" y="2650" width="120" height="60" as="geometry" />
        </mxCell>
        <mxCell id="OaKwWm5t6I1wfVNcC-3h-581" style="edgeStyle=orthogonalEdgeStyle;rounded=0;orthogonalLoop=1;jettySize=auto;html=1;entryX=0;entryY=0.5;entryDx=0;entryDy=0;strokeColor=#DDA15E;fontColor=#FEFAE0;fillColor=#BC6C25;" edge="1" parent="1" source="OaKwWm5t6I1wfVNcC-3h-569" target="OaKwWm5t6I1wfVNcC-3h-576">
          <mxGeometry relative="1" as="geometry" />
        </mxCell>
        <mxCell id="OaKwWm5t6I1wfVNcC-3h-582" style="edgeStyle=orthogonalEdgeStyle;rounded=0;orthogonalLoop=1;jettySize=auto;html=1;entryX=0;entryY=0.5;entryDx=0;entryDy=0;strokeColor=#DDA15E;fontColor=#FEFAE0;fillColor=#BC6C25;" edge="1" parent="1" source="OaKwWm5t6I1wfVNcC-3h-569" target="OaKwWm5t6I1wfVNcC-3h-577">
          <mxGeometry relative="1" as="geometry" />
        </mxCell>
        <mxCell id="OaKwWm5t6I1wfVNcC-3h-569" value="&lt;div&gt;清算&lt;/div&gt;&lt;div&gt;Clearing&lt;/div&gt;" style="rounded=1;whiteSpace=wrap;html=1;strokeColor=#6c8ebf;fillColor=#dae8fc;fontStyle=1" vertex="1" parent="1">
          <mxGeometry x="-20" y="2520" width="120" height="60" as="geometry" />
        </mxCell>
        <mxCell id="OaKwWm5t6I1wfVNcC-3h-571" style="edgeStyle=orthogonalEdgeStyle;rounded=0;orthogonalLoop=1;jettySize=auto;html=1;entryX=0;entryY=0.5;entryDx=0;entryDy=0;strokeColor=#DDA15E;fontColor=#FEFAE0;fillColor=#BC6C25;exitX=1;exitY=0.5;exitDx=0;exitDy=0;" edge="1" parent="1" target="OaKwWm5t6I1wfVNcC-3h-575" source="OaKwWm5t6I1wfVNcC-3h-569">
          <mxGeometry relative="1" as="geometry">
            <mxPoint x="125" y="2549" as="sourcePoint" />
          </mxGeometry>
        </mxCell>
        <mxCell id="OaKwWm5t6I1wfVNcC-3h-593" style="edgeStyle=orthogonalEdgeStyle;rounded=0;orthogonalLoop=1;jettySize=auto;html=1;entryX=0;entryY=0.5;entryDx=0;entryDy=0;strokeColor=#DDA15E;fontColor=#FEFAE0;fillColor=#BC6C25;" edge="1" parent="1" source="OaKwWm5t6I1wfVNcC-3h-575" target="OaKwWm5t6I1wfVNcC-3h-592">
          <mxGeometry relative="1" as="geometry" />
        </mxCell>
        <mxCell id="OaKwWm5t6I1wfVNcC-3h-575" value="中国香港&lt;br&gt;&lt;div&gt;HK&lt;/div&gt;" style="rounded=1;whiteSpace=wrap;html=1;strokeColor=#6c8ebf;fillColor=#dae8fc;fontStyle=1" vertex="1" parent="1">
          <mxGeometry x="195" y="2470" width="120" height="60" as="geometry" />
        </mxCell>
        <mxCell id="OaKwWm5t6I1wfVNcC-3h-584" value="" style="edgeStyle=orthogonalEdgeStyle;rounded=0;orthogonalLoop=1;jettySize=auto;html=1;strokeColor=#DDA15E;fontColor=#FEFAE0;fillColor=#BC6C25;" edge="1" parent="1" source="OaKwWm5t6I1wfVNcC-3h-576" target="OaKwWm5t6I1wfVNcC-3h-583">
          <mxGeometry relative="1" as="geometry" />
        </mxCell>
        <mxCell id="OaKwWm5t6I1wfVNcC-3h-576" value="美国&lt;br&gt;&lt;div&gt;US&lt;/div&gt;" style="rounded=1;whiteSpace=wrap;html=1;strokeColor=#6c8ebf;fillColor=#dae8fc;fontStyle=1" vertex="1" parent="1">
          <mxGeometry x="195" y="2550" width="120" height="60" as="geometry" />
        </mxCell>
        <mxCell id="OaKwWm5t6I1wfVNcC-3h-589" style="edgeStyle=orthogonalEdgeStyle;rounded=0;orthogonalLoop=1;jettySize=auto;html=1;entryX=0;entryY=0.5;entryDx=0;entryDy=0;strokeColor=#DDA15E;fontColor=#FEFAE0;fillColor=#BC6C25;" edge="1" parent="1" source="OaKwWm5t6I1wfVNcC-3h-577" target="OaKwWm5t6I1wfVNcC-3h-585">
          <mxGeometry relative="1" as="geometry" />
        </mxCell>
        <mxCell id="OaKwWm5t6I1wfVNcC-3h-590" style="edgeStyle=orthogonalEdgeStyle;rounded=0;orthogonalLoop=1;jettySize=auto;html=1;entryX=0;entryY=0.5;entryDx=0;entryDy=0;strokeColor=#DDA15E;fontColor=#FEFAE0;fillColor=#BC6C25;" edge="1" parent="1" source="OaKwWm5t6I1wfVNcC-3h-577" target="OaKwWm5t6I1wfVNcC-3h-586">
          <mxGeometry relative="1" as="geometry" />
        </mxCell>
        <mxCell id="OaKwWm5t6I1wfVNcC-3h-591" style="edgeStyle=orthogonalEdgeStyle;rounded=0;orthogonalLoop=1;jettySize=auto;html=1;entryX=0;entryY=0.5;entryDx=0;entryDy=0;strokeColor=#DDA15E;fontColor=#FEFAE0;fillColor=#BC6C25;" edge="1" parent="1" source="OaKwWm5t6I1wfVNcC-3h-577" target="OaKwWm5t6I1wfVNcC-3h-587">
          <mxGeometry relative="1" as="geometry" />
        </mxCell>
        <mxCell id="OaKwWm5t6I1wfVNcC-3h-577" value="英国&lt;br&gt;&lt;div&gt;UK&lt;/div&gt;" style="rounded=1;whiteSpace=wrap;html=1;strokeColor=#6c8ebf;fillColor=#dae8fc;fontStyle=1" vertex="1" parent="1">
          <mxGeometry x="195" y="2650" width="120" height="60" as="geometry" />
        </mxCell>
        <mxCell id="OaKwWm5t6I1wfVNcC-3h-578" value="交收&lt;br&gt;&lt;div&gt;Settlement&lt;/div&gt;" style="rounded=1;whiteSpace=wrap;html=1;strokeColor=#6c8ebf;fillColor=#dae8fc;fontStyle=1" vertex="1" parent="1">
          <mxGeometry x="-20" y="2820" width="120" height="60" as="geometry" />
        </mxCell>
        <mxCell id="OaKwWm5t6I1wfVNcC-3h-583" value="NSCC" style="rounded=1;whiteSpace=wrap;html=1;strokeColor=#6c8ebf;fillColor=#dae8fc;fontStyle=1" vertex="1" parent="1">
          <mxGeometry x="395" y="2550" width="120" height="60" as="geometry" />
        </mxCell>
        <mxCell id="OaKwWm5t6I1wfVNcC-3h-585" value="&lt;div&gt;CH. Clearnet Ltd&amp;nbsp;&lt;/div&gt;" style="rounded=1;whiteSpace=wrap;html=1;fontStyle=1" vertex="1" parent="1">
          <mxGeometry x="395" y="2640" width="120" height="30" as="geometry" />
        </mxCell>
        <mxCell id="OaKwWm5t6I1wfVNcC-3h-586" value="&lt;div&gt;IX X -&amp;nbsp;&lt;span style=&quot;background-color: transparent; color: light-dark(rgb(0, 0, 0), rgb(255, 255, 255));&quot;&gt;clear Ltd&lt;/span&gt;&lt;/div&gt;" style="rounded=1;whiteSpace=wrap;html=1;fontStyle=1" vertex="1" parent="1">
          <mxGeometry x="395" y="2680" width="120" height="30" as="geometry" />
        </mxCell>
        <mxCell id="OaKwWm5t6I1wfVNcC-3h-587" value="&lt;div&gt;&lt;span style=&quot;background-color: transparent; color: light-dark(rgb(0, 0, 0), rgb(255, 255, 255));&quot;&gt;EuroCCP&lt;/span&gt;&lt;/div&gt;" style="rounded=1;whiteSpace=wrap;html=1;strokeColor=#6c8ebf;fillColor=#dae8fc;fontStyle=1" vertex="1" parent="1">
          <mxGeometry x="395" y="2720" width="120" height="30" as="geometry" />
        </mxCell>
        <mxCell id="OaKwWm5t6I1wfVNcC-3h-588" style="edgeStyle=orthogonalEdgeStyle;rounded=0;orthogonalLoop=1;jettySize=auto;html=1;exitX=0.5;exitY=1;exitDx=0;exitDy=0;entryX=0.5;entryY=0.667;entryDx=0;entryDy=0;entryPerimeter=0;strokeColor=#DDA15E;fontColor=#FEFAE0;fillColor=#BC6C25;" edge="1" parent="1" source="OaKwWm5t6I1wfVNcC-3h-586" target="OaKwWm5t6I1wfVNcC-3h-586">
          <mxGeometry relative="1" as="geometry" />
        </mxCell>
        <mxCell id="OaKwWm5t6I1wfVNcC-3h-592" value="CCASS" style="rounded=1;whiteSpace=wrap;html=1;strokeColor=#6c8ebf;fillColor=#dae8fc;fontStyle=1" vertex="1" parent="1">
          <mxGeometry x="395" y="2470" width="120" height="60" as="geometry" />
        </mxCell>
        <mxCell id="OaKwWm5t6I1wfVNcC-3h-594" style="edgeStyle=orthogonalEdgeStyle;rounded=0;orthogonalLoop=1;jettySize=auto;html=1;entryX=0;entryY=0.5;entryDx=0;entryDy=0;strokeColor=#DDA15E;fontColor=#FEFAE0;fillColor=#BC6C25;" edge="1" parent="1" target="OaKwWm5t6I1wfVNcC-3h-600">
          <mxGeometry relative="1" as="geometry">
            <mxPoint x="100" y="2850" as="sourcePoint" />
          </mxGeometry>
        </mxCell>
        <mxCell id="OaKwWm5t6I1wfVNcC-3h-595" style="edgeStyle=orthogonalEdgeStyle;rounded=0;orthogonalLoop=1;jettySize=auto;html=1;entryX=0;entryY=0.5;entryDx=0;entryDy=0;strokeColor=#DDA15E;fontColor=#FEFAE0;fillColor=#BC6C25;" edge="1" parent="1" target="OaKwWm5t6I1wfVNcC-3h-604">
          <mxGeometry relative="1" as="geometry">
            <mxPoint x="100" y="2850" as="sourcePoint" />
          </mxGeometry>
        </mxCell>
        <mxCell id="OaKwWm5t6I1wfVNcC-3h-596" style="edgeStyle=orthogonalEdgeStyle;rounded=0;orthogonalLoop=1;jettySize=auto;html=1;entryX=0;entryY=0.5;entryDx=0;entryDy=0;strokeColor=#DDA15E;fontColor=#FEFAE0;fillColor=#BC6C25;exitX=1;exitY=0.5;exitDx=0;exitDy=0;" edge="1" parent="1" target="OaKwWm5t6I1wfVNcC-3h-598">
          <mxGeometry relative="1" as="geometry">
            <mxPoint x="100" y="2850" as="sourcePoint" />
          </mxGeometry>
        </mxCell>
        <mxCell id="OaKwWm5t6I1wfVNcC-3h-597" style="edgeStyle=orthogonalEdgeStyle;rounded=0;orthogonalLoop=1;jettySize=auto;html=1;entryX=0;entryY=0.5;entryDx=0;entryDy=0;strokeColor=#DDA15E;fontColor=#FEFAE0;fillColor=#BC6C25;" edge="1" parent="1" source="OaKwWm5t6I1wfVNcC-3h-598" target="OaKwWm5t6I1wfVNcC-3h-610">
          <mxGeometry relative="1" as="geometry" />
        </mxCell>
        <mxCell id="OaKwWm5t6I1wfVNcC-3h-612" style="edgeStyle=orthogonalEdgeStyle;rounded=0;orthogonalLoop=1;jettySize=auto;html=1;entryX=0;entryY=0.5;entryDx=0;entryDy=0;strokeColor=#DDA15E;fontColor=#FEFAE0;fillColor=#BC6C25;" edge="1" parent="1" source="OaKwWm5t6I1wfVNcC-3h-598" target="OaKwWm5t6I1wfVNcC-3h-611">
          <mxGeometry relative="1" as="geometry" />
        </mxCell>
        <mxCell id="OaKwWm5t6I1wfVNcC-3h-598" value="中国香港&lt;br&gt;&lt;div&gt;HK&lt;/div&gt;" style="rounded=1;whiteSpace=wrap;html=1;strokeColor=#6c8ebf;fillColor=#dae8fc;fontStyle=1" vertex="1" parent="1">
          <mxGeometry x="195" y="2770" width="120" height="60" as="geometry" />
        </mxCell>
        <mxCell id="OaKwWm5t6I1wfVNcC-3h-599" value="" style="edgeStyle=orthogonalEdgeStyle;rounded=0;orthogonalLoop=1;jettySize=auto;html=1;strokeColor=#DDA15E;fontColor=#FEFAE0;fillColor=#BC6C25;" edge="1" parent="1" source="OaKwWm5t6I1wfVNcC-3h-600" target="OaKwWm5t6I1wfVNcC-3h-605">
          <mxGeometry relative="1" as="geometry" />
        </mxCell>
        <mxCell id="OaKwWm5t6I1wfVNcC-3h-600" value="美国&lt;br&gt;&lt;div&gt;US&lt;/div&gt;" style="rounded=1;whiteSpace=wrap;html=1;strokeColor=#6c8ebf;fillColor=#dae8fc;fontStyle=1" vertex="1" parent="1">
          <mxGeometry x="195" y="2850" width="120" height="60" as="geometry" />
        </mxCell>
        <mxCell id="OaKwWm5t6I1wfVNcC-3h-614" style="edgeStyle=orthogonalEdgeStyle;rounded=0;orthogonalLoop=1;jettySize=auto;html=1;entryX=0;entryY=0.5;entryDx=0;entryDy=0;strokeColor=#DDA15E;fontColor=#FEFAE0;fillColor=#BC6C25;" edge="1" parent="1" source="OaKwWm5t6I1wfVNcC-3h-604" target="OaKwWm5t6I1wfVNcC-3h-613">
          <mxGeometry relative="1" as="geometry" />
        </mxCell>
        <mxCell id="OaKwWm5t6I1wfVNcC-3h-616" style="edgeStyle=orthogonalEdgeStyle;rounded=0;orthogonalLoop=1;jettySize=auto;html=1;entryX=0;entryY=0.5;entryDx=0;entryDy=0;strokeColor=#DDA15E;fontColor=#FEFAE0;fillColor=#BC6C25;" edge="1" parent="1" source="OaKwWm5t6I1wfVNcC-3h-604" target="OaKwWm5t6I1wfVNcC-3h-615">
          <mxGeometry relative="1" as="geometry" />
        </mxCell>
        <mxCell id="OaKwWm5t6I1wfVNcC-3h-604" value="英国&lt;br&gt;&lt;div&gt;UK&lt;/div&gt;" style="rounded=1;whiteSpace=wrap;html=1;strokeColor=#6c8ebf;fillColor=#dae8fc;fontStyle=1" vertex="1" parent="1">
          <mxGeometry x="195" y="2950" width="120" height="60" as="geometry" />
        </mxCell>
        <mxCell id="OaKwWm5t6I1wfVNcC-3h-605" value="DTC" style="rounded=1;whiteSpace=wrap;html=1;strokeColor=#6c8ebf;fillColor=#dae8fc;fontStyle=1" vertex="1" parent="1">
          <mxGeometry x="395" y="2850" width="120" height="60" as="geometry" />
        </mxCell>
        <mxCell id="OaKwWm5t6I1wfVNcC-3h-610" value="&lt;div&gt;证券交收&lt;/div&gt;CCASS" style="rounded=1;whiteSpace=wrap;html=1;strokeColor=#6c8ebf;fillColor=#dae8fc;fontStyle=1" vertex="1" parent="1">
          <mxGeometry x="395" y="2760" width="120" height="30" as="geometry" />
        </mxCell>
        <mxCell id="OaKwWm5t6I1wfVNcC-3h-611" value="&lt;div&gt;资金交收&lt;/div&gt;HKICL" style="rounded=1;whiteSpace=wrap;html=1;strokeColor=#6c8ebf;fillColor=#dae8fc;fontStyle=1" vertex="1" parent="1">
          <mxGeometry x="395" y="2800" width="120" height="30" as="geometry" />
        </mxCell>
        <mxCell id="OaKwWm5t6I1wfVNcC-3h-613" value="英国及爱尔兰市场证券结算&lt;br&gt;&lt;div&gt;CREST&lt;/div&gt;" style="rounded=1;whiteSpace=wrap;html=1;strokeColor=#6c8ebf;fillColor=#dae8fc;fontStyle=1" vertex="1" parent="1">
          <mxGeometry x="395" y="2920" width="120" height="60" as="geometry" />
        </mxCell>
        <mxCell id="OaKwWm5t6I1wfVNcC-3h-615" value="&lt;div&gt;央行系统和结算银行&lt;/div&gt;Settlement Bank" style="rounded=1;whiteSpace=wrap;html=1;strokeColor=#6c8ebf;fillColor=#dae8fc;fontStyle=1" vertex="1" parent="1">
          <mxGeometry x="395" y="3010" width="120" height="60" as="geometry" />
        </mxCell>
        <mxCell id="OaKwWm5t6I1wfVNcC-3h-617" value="&lt;font style=&quot;color: rgb(0, 0, 0);&quot;&gt;证券交收&lt;/font&gt;" style="text;strokeColor=none;align=center;fillColor=none;html=1;verticalAlign=middle;whiteSpace=wrap;rounded=0;fontColor=#FEFAE0;" vertex="1" parent="1">
          <mxGeometry x="415" y="2970" width="60" height="30" as="geometry" />
        </mxCell>
        <mxCell id="OaKwWm5t6I1wfVNcC-3h-618" value="&lt;font style=&quot;color: rgb(0, 0, 0);&quot;&gt;资金交收&lt;/font&gt;" style="text;strokeColor=none;align=center;fillColor=none;html=1;verticalAlign=middle;whiteSpace=wrap;rounded=0;fontColor=#FEFAE0;" vertex="1" parent="1">
          <mxGeometry x="415" y="3060" width="60" height="30" as="geometry" />
        </mxCell>
        <mxCell id="OaKwWm5t6I1wfVNcC-3h-620" style="rounded=0;orthogonalLoop=1;jettySize=auto;html=1;entryX=0;entryY=0.5;entryDx=0;entryDy=0;strokeColor=#DDA15E;fontColor=#FEFAE0;fillColor=#BC6C25;exitX=1;exitY=0.5;exitDx=0;exitDy=0;edgeStyle=orthogonalEdgeStyle;" edge="1" parent="1" source="OaKwWm5t6I1wfVNcC-3h-622" target="OaKwWm5t6I1wfVNcC-3h-626">
          <mxGeometry relative="1" as="geometry">
            <mxPoint x="-250" y="1475" as="sourcePoint" />
          </mxGeometry>
        </mxCell>
        <mxCell id="OaKwWm5t6I1wfVNcC-3h-621" style="rounded=0;orthogonalLoop=1;jettySize=auto;html=1;strokeColor=#DDA15E;fontColor=#FEFAE0;fillColor=#BC6C25;entryX=0;entryY=0.5;entryDx=0;entryDy=0;exitX=1;exitY=0.5;exitDx=0;exitDy=0;edgeStyle=orthogonalEdgeStyle;" edge="1" parent="1" source="OaKwWm5t6I1wfVNcC-3h-622" target="OaKwWm5t6I1wfVNcC-3h-628">
          <mxGeometry relative="1" as="geometry">
            <mxPoint x="-250" y="1475" as="sourcePoint" />
            <mxPoint x="-200" y="1645" as="targetPoint" />
          </mxGeometry>
        </mxCell>
        <mxCell id="OaKwWm5t6I1wfVNcC-3h-633" style="edgeStyle=orthogonalEdgeStyle;rounded=0;orthogonalLoop=1;jettySize=auto;html=1;entryX=0;entryY=0.5;entryDx=0;entryDy=0;strokeColor=#DDA15E;fontColor=#FEFAE0;fillColor=#BC6C25;" edge="1" parent="1" source="OaKwWm5t6I1wfVNcC-3h-622" target="OaKwWm5t6I1wfVNcC-3h-632">
          <mxGeometry relative="1" as="geometry" />
        </mxCell>
        <mxCell id="OaKwWm5t6I1wfVNcC-3h-670" style="edgeStyle=orthogonalEdgeStyle;rounded=0;orthogonalLoop=1;jettySize=auto;html=1;entryX=0;entryY=0.5;entryDx=0;entryDy=0;strokeColor=#DDA15E;fontColor=#FEFAE0;fillColor=#BC6C25;" edge="1" parent="1" source="OaKwWm5t6I1wfVNcC-3h-622" target="OaKwWm5t6I1wfVNcC-3h-624">
          <mxGeometry relative="1" as="geometry" />
        </mxCell>
        <mxCell id="OaKwWm5t6I1wfVNcC-3h-622" value="中国境内&lt;br&gt;&lt;div&gt;CN&lt;/div&gt;" style="rounded=1;whiteSpace=wrap;html=1;strokeColor=#6c8ebf;fillColor=#dae8fc;fontStyle=1" vertex="1" parent="1">
          <mxGeometry x="-390" y="1420" width="140" height="64" as="geometry" />
        </mxCell>
        <mxCell id="OaKwWm5t6I1wfVNcC-3h-623" style="edgeStyle=orthogonalEdgeStyle;rounded=0;orthogonalLoop=1;jettySize=auto;html=1;entryX=0;entryY=0.5;entryDx=0;entryDy=0;strokeColor=#DDA15E;fontColor=#FEFAE0;fillColor=#BC6C25;" edge="1" parent="1" source="OaKwWm5t6I1wfVNcC-3h-624" target="OaKwWm5t6I1wfVNcC-3h-629">
          <mxGeometry relative="1" as="geometry" />
        </mxCell>
        <mxCell id="OaKwWm5t6I1wfVNcC-3h-635" style="edgeStyle=orthogonalEdgeStyle;rounded=0;orthogonalLoop=1;jettySize=auto;html=1;entryX=0;entryY=0.5;entryDx=0;entryDy=0;strokeColor=#DDA15E;fontColor=#FEFAE0;fillColor=#BC6C25;exitX=1;exitY=0.5;exitDx=0;exitDy=0;" edge="1" parent="1" source="OaKwWm5t6I1wfVNcC-3h-624" target="OaKwWm5t6I1wfVNcC-3h-634">
          <mxGeometry relative="1" as="geometry">
            <mxPoint x="-60" y="1330" as="sourcePoint" />
          </mxGeometry>
        </mxCell>
        <mxCell id="OaKwWm5t6I1wfVNcC-3h-624" value="证券交易场所市场" style="rounded=1;whiteSpace=wrap;html=1;strokeColor=#6c8ebf;fillColor=#dae8fc;fontStyle=1" vertex="1" parent="1">
          <mxGeometry x="-180" y="1190" width="120" height="60" as="geometry" />
        </mxCell>
        <mxCell id="OaKwWm5t6I1wfVNcC-3h-680" style="edgeStyle=orthogonalEdgeStyle;rounded=0;orthogonalLoop=1;jettySize=auto;html=1;entryX=0;entryY=0.5;entryDx=0;entryDy=0;strokeColor=#DDA15E;fontColor=#FEFAE0;fillColor=#BC6C25;" edge="1" parent="1" source="OaKwWm5t6I1wfVNcC-3h-626" target="OaKwWm5t6I1wfVNcC-3h-671">
          <mxGeometry relative="1" as="geometry" />
        </mxCell>
        <mxCell id="OaKwWm5t6I1wfVNcC-3h-681" style="edgeStyle=orthogonalEdgeStyle;rounded=0;orthogonalLoop=1;jettySize=auto;html=1;entryX=0;entryY=0.5;entryDx=0;entryDy=0;strokeColor=#DDA15E;fontColor=#FEFAE0;fillColor=#BC6C25;" edge="1" parent="1" source="OaKwWm5t6I1wfVNcC-3h-626" target="OaKwWm5t6I1wfVNcC-3h-672">
          <mxGeometry relative="1" as="geometry" />
        </mxCell>
        <mxCell id="OaKwWm5t6I1wfVNcC-3h-626" value="银行间市场" style="rounded=1;whiteSpace=wrap;html=1;strokeColor=#6c8ebf;fillColor=#dae8fc;fontStyle=1" vertex="1" parent="1">
          <mxGeometry x="-180" y="1422" width="120" height="60" as="geometry" />
        </mxCell>
        <mxCell id="OaKwWm5t6I1wfVNcC-3h-683" style="edgeStyle=orthogonalEdgeStyle;rounded=0;orthogonalLoop=1;jettySize=auto;html=1;entryX=0;entryY=0.5;entryDx=0;entryDy=0;strokeColor=#DDA15E;fontColor=#FEFAE0;fillColor=#BC6C25;" edge="1" parent="1" source="OaKwWm5t6I1wfVNcC-3h-628" target="OaKwWm5t6I1wfVNcC-3h-682">
          <mxGeometry relative="1" as="geometry" />
        </mxCell>
        <mxCell id="OaKwWm5t6I1wfVNcC-3h-628" value="区域性股权市场" style="rounded=1;whiteSpace=wrap;html=1;fontStyle=1" vertex="1" parent="1">
          <mxGeometry x="-180" y="1540" width="120" height="60" as="geometry" />
        </mxCell>
        <mxCell id="OaKwWm5t6I1wfVNcC-3h-641" value="" style="edgeStyle=orthogonalEdgeStyle;rounded=0;orthogonalLoop=1;jettySize=auto;html=1;strokeColor=#DDA15E;fontColor=#FEFAE0;fillColor=#BC6C25;" edge="1" parent="1" source="OaKwWm5t6I1wfVNcC-3h-629" target="OaKwWm5t6I1wfVNcC-3h-638">
          <mxGeometry relative="1" as="geometry">
            <Array as="points">
              <mxPoint x="160" y="1160" />
              <mxPoint x="160" y="1175" />
            </Array>
          </mxGeometry>
        </mxCell>
        <mxCell id="OaKwWm5t6I1wfVNcC-3h-642" style="edgeStyle=orthogonalEdgeStyle;rounded=0;orthogonalLoop=1;jettySize=auto;html=1;entryX=0;entryY=0.5;entryDx=0;entryDy=0;strokeColor=#DDA15E;fontColor=#FEFAE0;fillColor=#BC6C25;" edge="1" parent="1" source="OaKwWm5t6I1wfVNcC-3h-629" target="OaKwWm5t6I1wfVNcC-3h-636">
          <mxGeometry relative="1" as="geometry">
            <Array as="points">
              <mxPoint x="160" y="1160" />
              <mxPoint x="160" y="1075" />
            </Array>
          </mxGeometry>
        </mxCell>
        <mxCell id="OaKwWm5t6I1wfVNcC-3h-643" style="edgeStyle=orthogonalEdgeStyle;rounded=0;orthogonalLoop=1;jettySize=auto;html=1;entryX=0;entryY=0.5;entryDx=0;entryDy=0;strokeColor=#DDA15E;fontColor=#FEFAE0;fillColor=#BC6C25;" edge="1" parent="1" source="OaKwWm5t6I1wfVNcC-3h-629" target="OaKwWm5t6I1wfVNcC-3h-637">
          <mxGeometry relative="1" as="geometry">
            <Array as="points">
              <mxPoint x="160" y="1160" />
              <mxPoint x="160" y="1125" />
            </Array>
          </mxGeometry>
        </mxCell>
        <mxCell id="OaKwWm5t6I1wfVNcC-3h-644" style="edgeStyle=orthogonalEdgeStyle;rounded=0;orthogonalLoop=1;jettySize=auto;html=1;entryX=0;entryY=0.5;entryDx=0;entryDy=0;strokeColor=#DDA15E;fontColor=#FEFAE0;fillColor=#BC6C25;" edge="1" parent="1" source="OaKwWm5t6I1wfVNcC-3h-629" target="OaKwWm5t6I1wfVNcC-3h-640">
          <mxGeometry relative="1" as="geometry">
            <Array as="points">
              <mxPoint x="160" y="1160" />
              <mxPoint x="160" y="1220" />
            </Array>
          </mxGeometry>
        </mxCell>
        <mxCell id="OaKwWm5t6I1wfVNcC-3h-629" value="前台机构" style="rounded=1;whiteSpace=wrap;html=1;strokeColor=#6c8ebf;fillColor=#dae8fc;fontStyle=1" vertex="1" parent="1">
          <mxGeometry y="1130" width="120" height="60" as="geometry" />
        </mxCell>
        <mxCell id="OaKwWm5t6I1wfVNcC-3h-694" style="edgeStyle=orthogonalEdgeStyle;rounded=0;orthogonalLoop=1;jettySize=auto;html=1;entryX=0;entryY=0.5;entryDx=0;entryDy=0;strokeColor=#DDA15E;fontColor=#FEFAE0;fillColor=#BC6C25;" edge="1" parent="1" source="OaKwWm5t6I1wfVNcC-3h-632" target="OaKwWm5t6I1wfVNcC-3h-684">
          <mxGeometry relative="1" as="geometry" />
        </mxCell>
        <mxCell id="OaKwWm5t6I1wfVNcC-3h-695" style="edgeStyle=orthogonalEdgeStyle;rounded=0;orthogonalLoop=1;jettySize=auto;html=1;entryX=0;entryY=0.5;entryDx=0;entryDy=0;strokeColor=#DDA15E;fontColor=#FEFAE0;fillColor=#BC6C25;" edge="1" parent="1" source="OaKwWm5t6I1wfVNcC-3h-632" target="OaKwWm5t6I1wfVNcC-3h-685">
          <mxGeometry relative="1" as="geometry" />
        </mxCell>
        <mxCell id="OaKwWm5t6I1wfVNcC-3h-632" value="证券公司柜台市场" style="rounded=1;whiteSpace=wrap;html=1;strokeColor=#6c8ebf;fillColor=#dae8fc;fontStyle=1" vertex="1" parent="1">
          <mxGeometry x="-180" y="1650" width="120" height="60" as="geometry" />
        </mxCell>
        <mxCell id="OaKwWm5t6I1wfVNcC-3h-646" style="edgeStyle=orthogonalEdgeStyle;rounded=0;orthogonalLoop=1;jettySize=auto;html=1;entryX=0;entryY=0.5;entryDx=0;entryDy=0;strokeColor=#DDA15E;fontColor=#FEFAE0;fillColor=#BC6C25;" edge="1" parent="1" source="OaKwWm5t6I1wfVNcC-3h-634" target="OaKwWm5t6I1wfVNcC-3h-645">
          <mxGeometry relative="1" as="geometry" />
        </mxCell>
        <mxCell id="OaKwWm5t6I1wfVNcC-3h-634" value="登记结算机构" style="rounded=1;whiteSpace=wrap;html=1;strokeColor=#6c8ebf;fillColor=#dae8fc;fontStyle=1" vertex="1" parent="1">
          <mxGeometry y="1280" width="120" height="60" as="geometry" />
        </mxCell>
        <mxCell id="OaKwWm5t6I1wfVNcC-3h-636" value="SSE" style="rounded=1;whiteSpace=wrap;html=1;strokeColor=#6c8ebf;fillColor=#dae8fc;fontStyle=1" vertex="1" parent="1">
          <mxGeometry x="210" y="1060" width="120" height="30" as="geometry" />
        </mxCell>
        <mxCell id="OaKwWm5t6I1wfVNcC-3h-637" value="SZSE" style="rounded=1;whiteSpace=wrap;html=1;strokeColor=#6c8ebf;fillColor=#dae8fc;fontStyle=1" vertex="1" parent="1">
          <mxGeometry x="210" y="1110" width="120" height="30" as="geometry" />
        </mxCell>
        <mxCell id="OaKwWm5t6I1wfVNcC-3h-638" value="BSE" style="rounded=1;whiteSpace=wrap;html=1;strokeColor=#6c8ebf;fillColor=#dae8fc;fontStyle=1" vertex="1" parent="1">
          <mxGeometry x="210" y="1160" width="120" height="30" as="geometry" />
        </mxCell>
        <mxCell id="OaKwWm5t6I1wfVNcC-3h-640" value="NEEQ(全国股转系统)" style="rounded=1;whiteSpace=wrap;html=1;strokeColor=#6c8ebf;fillColor=#dae8fc;fontStyle=1" vertex="1" parent="1">
          <mxGeometry x="210" y="1205" width="120" height="30" as="geometry" />
        </mxCell>
        <mxCell id="OaKwWm5t6I1wfVNcC-3h-649" style="edgeStyle=orthogonalEdgeStyle;rounded=0;orthogonalLoop=1;jettySize=auto;html=1;entryX=0;entryY=0.5;entryDx=0;entryDy=0;strokeColor=#DDA15E;fontColor=#FEFAE0;fillColor=#BC6C25;" edge="1" parent="1" source="OaKwWm5t6I1wfVNcC-3h-645" target="OaKwWm5t6I1wfVNcC-3h-647">
          <mxGeometry relative="1" as="geometry" />
        </mxCell>
        <mxCell id="OaKwWm5t6I1wfVNcC-3h-650" style="edgeStyle=orthogonalEdgeStyle;rounded=0;orthogonalLoop=1;jettySize=auto;html=1;entryX=0;entryY=0.5;entryDx=0;entryDy=0;strokeColor=#DDA15E;fontColor=#FEFAE0;fillColor=#BC6C25;" edge="1" parent="1" source="OaKwWm5t6I1wfVNcC-3h-645" target="OaKwWm5t6I1wfVNcC-3h-648">
          <mxGeometry relative="1" as="geometry" />
        </mxCell>
        <mxCell id="OaKwWm5t6I1wfVNcC-3h-645" value="CSDC&lt;div&gt;中国结算&lt;/div&gt;" style="rounded=1;whiteSpace=wrap;html=1;strokeColor=#b85450;fillColor=#f8cecc;fontStyle=1" vertex="1" parent="1">
          <mxGeometry x="210" y="1280" width="120" height="60" as="geometry" />
        </mxCell>
        <mxCell id="OaKwWm5t6I1wfVNcC-3h-656" style="edgeStyle=orthogonalEdgeStyle;rounded=0;orthogonalLoop=1;jettySize=auto;html=1;entryX=0;entryY=0.5;entryDx=0;entryDy=0;strokeColor=#DDA15E;fontColor=#FEFAE0;fillColor=#BC6C25;" edge="1" parent="1" source="OaKwWm5t6I1wfVNcC-3h-647" target="OaKwWm5t6I1wfVNcC-3h-651">
          <mxGeometry relative="1" as="geometry" />
        </mxCell>
        <mxCell id="OaKwWm5t6I1wfVNcC-3h-657" style="edgeStyle=orthogonalEdgeStyle;rounded=0;orthogonalLoop=1;jettySize=auto;html=1;entryX=0;entryY=0.5;entryDx=0;entryDy=0;strokeColor=#DDA15E;fontColor=#FEFAE0;fillColor=#BC6C25;" edge="1" parent="1" source="OaKwWm5t6I1wfVNcC-3h-647" target="OaKwWm5t6I1wfVNcC-3h-652">
          <mxGeometry relative="1" as="geometry" />
        </mxCell>
        <mxCell id="OaKwWm5t6I1wfVNcC-3h-658" style="edgeStyle=orthogonalEdgeStyle;rounded=0;orthogonalLoop=1;jettySize=auto;html=1;entryX=0;entryY=0.5;entryDx=0;entryDy=0;strokeColor=#DDA15E;fontColor=#FEFAE0;fillColor=#BC6C25;" edge="1" parent="1" source="OaKwWm5t6I1wfVNcC-3h-647" target="OaKwWm5t6I1wfVNcC-3h-653">
          <mxGeometry relative="1" as="geometry" />
        </mxCell>
        <mxCell id="OaKwWm5t6I1wfVNcC-3h-659" style="edgeStyle=orthogonalEdgeStyle;rounded=0;orthogonalLoop=1;jettySize=auto;html=1;entryX=0;entryY=0.5;entryDx=0;entryDy=0;strokeColor=#DDA15E;fontColor=#FEFAE0;fillColor=#BC6C25;" edge="1" parent="1" source="OaKwWm5t6I1wfVNcC-3h-647" target="OaKwWm5t6I1wfVNcC-3h-654">
          <mxGeometry relative="1" as="geometry" />
        </mxCell>
        <mxCell id="OaKwWm5t6I1wfVNcC-3h-660" style="edgeStyle=orthogonalEdgeStyle;rounded=0;orthogonalLoop=1;jettySize=auto;html=1;entryX=0;entryY=0.5;entryDx=0;entryDy=0;strokeColor=#DDA15E;fontColor=#FEFAE0;fillColor=#BC6C25;" edge="1" parent="1" source="OaKwWm5t6I1wfVNcC-3h-647" target="OaKwWm5t6I1wfVNcC-3h-655">
          <mxGeometry relative="1" as="geometry" />
        </mxCell>
        <mxCell id="OaKwWm5t6I1wfVNcC-3h-647" value="业务" style="rounded=1;whiteSpace=wrap;html=1;strokeColor=#b85450;fillColor=#f8cecc;fontStyle=1" vertex="1" parent="1">
          <mxGeometry x="380" y="1190" width="120" height="40" as="geometry" />
        </mxCell>
        <mxCell id="OaKwWm5t6I1wfVNcC-3h-666" style="edgeStyle=orthogonalEdgeStyle;rounded=0;orthogonalLoop=1;jettySize=auto;html=1;entryX=0;entryY=0.5;entryDx=0;entryDy=0;strokeColor=#DDA15E;fontColor=#FEFAE0;fillColor=#BC6C25;" edge="1" parent="1" source="OaKwWm5t6I1wfVNcC-3h-648" target="OaKwWm5t6I1wfVNcC-3h-661">
          <mxGeometry relative="1" as="geometry" />
        </mxCell>
        <mxCell id="OaKwWm5t6I1wfVNcC-3h-667" style="edgeStyle=orthogonalEdgeStyle;rounded=0;orthogonalLoop=1;jettySize=auto;html=1;entryX=0;entryY=0.5;entryDx=0;entryDy=0;strokeColor=#DDA15E;fontColor=#FEFAE0;fillColor=#BC6C25;" edge="1" parent="1" source="OaKwWm5t6I1wfVNcC-3h-648" target="OaKwWm5t6I1wfVNcC-3h-662">
          <mxGeometry relative="1" as="geometry" />
        </mxCell>
        <mxCell id="OaKwWm5t6I1wfVNcC-3h-668" style="edgeStyle=orthogonalEdgeStyle;rounded=0;orthogonalLoop=1;jettySize=auto;html=1;entryX=0;entryY=0.5;entryDx=0;entryDy=0;strokeColor=#DDA15E;fontColor=#FEFAE0;fillColor=#BC6C25;" edge="1" parent="1" source="OaKwWm5t6I1wfVNcC-3h-648" target="OaKwWm5t6I1wfVNcC-3h-663">
          <mxGeometry relative="1" as="geometry" />
        </mxCell>
        <mxCell id="OaKwWm5t6I1wfVNcC-3h-669" style="edgeStyle=orthogonalEdgeStyle;rounded=0;orthogonalLoop=1;jettySize=auto;html=1;entryX=0;entryY=0.5;entryDx=0;entryDy=0;strokeColor=#DDA15E;fontColor=#FEFAE0;fillColor=#BC6C25;" edge="1" parent="1" source="OaKwWm5t6I1wfVNcC-3h-648" target="OaKwWm5t6I1wfVNcC-3h-664">
          <mxGeometry relative="1" as="geometry" />
        </mxCell>
        <mxCell id="OaKwWm5t6I1wfVNcC-3h-723" style="edgeStyle=orthogonalEdgeStyle;rounded=0;orthogonalLoop=1;jettySize=auto;html=1;entryX=0;entryY=0.5;entryDx=0;entryDy=0;strokeColor=#DDA15E;fontColor=#FEFAE0;fillColor=#BC6C25;" edge="1" parent="1" source="OaKwWm5t6I1wfVNcC-3h-648" target="OaKwWm5t6I1wfVNcC-3h-722">
          <mxGeometry relative="1" as="geometry" />
        </mxCell>
        <mxCell id="OaKwWm5t6I1wfVNcC-3h-789" style="edgeStyle=orthogonalEdgeStyle;rounded=0;orthogonalLoop=1;jettySize=auto;html=1;entryX=0;entryY=0.5;entryDx=0;entryDy=0;strokeColor=#DDA15E;fontColor=#FEFAE0;fillColor=#BC6C25;" edge="1" parent="1" source="OaKwWm5t6I1wfVNcC-3h-648" target="OaKwWm5t6I1wfVNcC-3h-788">
          <mxGeometry relative="1" as="geometry" />
        </mxCell>
        <mxCell id="OaKwWm5t6I1wfVNcC-3h-648" value="功能" style="rounded=1;whiteSpace=wrap;html=1;strokeColor=#b85450;fillColor=#f8cecc;fontStyle=1" vertex="1" parent="1">
          <mxGeometry x="380" y="1420" width="120" height="40" as="geometry" />
        </mxCell>
        <mxCell id="OaKwWm5t6I1wfVNcC-3h-651" value="股票" style="rounded=1;whiteSpace=wrap;html=1;strokeColor=#6c8ebf;fillColor=#dae8fc;fontStyle=1" vertex="1" parent="1">
          <mxGeometry x="550" y="1105" width="120" height="30" as="geometry" />
        </mxCell>
        <mxCell id="OaKwWm5t6I1wfVNcC-3h-652" value="债券" style="rounded=1;whiteSpace=wrap;html=1;strokeColor=#6c8ebf;fillColor=#dae8fc;fontStyle=1" vertex="1" parent="1">
          <mxGeometry x="550" y="1155" width="120" height="30" as="geometry" />
        </mxCell>
        <mxCell id="OaKwWm5t6I1wfVNcC-3h-653" value="基金" style="rounded=1;whiteSpace=wrap;html=1;strokeColor=#6c8ebf;fillColor=#dae8fc;fontStyle=1" vertex="1" parent="1">
          <mxGeometry x="550" y="1205" width="120" height="30" as="geometry" />
        </mxCell>
        <mxCell id="OaKwWm5t6I1wfVNcC-3h-654" value="资产证券" style="rounded=1;whiteSpace=wrap;html=1;strokeColor=#6c8ebf;fillColor=#dae8fc;fontStyle=1" vertex="1" parent="1">
          <mxGeometry x="550" y="1250" width="120" height="30" as="geometry" />
        </mxCell>
        <mxCell id="OaKwWm5t6I1wfVNcC-3h-655" value="跨境证券" style="rounded=1;whiteSpace=wrap;html=1;strokeColor=#6c8ebf;fillColor=#dae8fc;fontStyle=1" vertex="1" parent="1">
          <mxGeometry x="550" y="1295" width="120" height="30" as="geometry" />
        </mxCell>
        <mxCell id="OaKwWm5t6I1wfVNcC-3h-717" style="edgeStyle=orthogonalEdgeStyle;rounded=0;orthogonalLoop=1;jettySize=auto;html=1;entryX=0;entryY=0.5;entryDx=0;entryDy=0;strokeColor=#DDA15E;fontColor=#FEFAE0;fillColor=#BC6C25;" edge="1" parent="1" source="OaKwWm5t6I1wfVNcC-3h-661" target="OaKwWm5t6I1wfVNcC-3h-714">
          <mxGeometry relative="1" as="geometry" />
        </mxCell>
        <mxCell id="OaKwWm5t6I1wfVNcC-3h-718" style="edgeStyle=orthogonalEdgeStyle;rounded=0;orthogonalLoop=1;jettySize=auto;html=1;entryX=0;entryY=0.5;entryDx=0;entryDy=0;strokeColor=#DDA15E;fontColor=#FEFAE0;fillColor=#BC6C25;" edge="1" parent="1" source="OaKwWm5t6I1wfVNcC-3h-661" target="OaKwWm5t6I1wfVNcC-3h-715">
          <mxGeometry relative="1" as="geometry" />
        </mxCell>
        <mxCell id="OaKwWm5t6I1wfVNcC-3h-661" value="CSD&lt;div&gt;中央存管&lt;/div&gt;" style="rounded=1;whiteSpace=wrap;html=1;strokeColor=#b85450;fillColor=#f8cecc;fontStyle=1" vertex="1" parent="1">
          <mxGeometry x="610" y="1475" width="120" height="30" as="geometry" />
        </mxCell>
        <mxCell id="OaKwWm5t6I1wfVNcC-3h-734" style="edgeStyle=orthogonalEdgeStyle;rounded=0;orthogonalLoop=1;jettySize=auto;html=1;entryX=0;entryY=0.5;entryDx=0;entryDy=0;strokeColor=#DDA15E;fontColor=#FEFAE0;fillColor=#BC6C25;" edge="1" parent="1" source="OaKwWm5t6I1wfVNcC-3h-662" target="OaKwWm5t6I1wfVNcC-3h-732">
          <mxGeometry relative="1" as="geometry" />
        </mxCell>
        <mxCell id="OaKwWm5t6I1wfVNcC-3h-735" style="edgeStyle=orthogonalEdgeStyle;rounded=0;orthogonalLoop=1;jettySize=auto;html=1;entryX=0;entryY=0.5;entryDx=0;entryDy=0;strokeColor=#DDA15E;fontColor=#FEFAE0;fillColor=#BC6C25;" edge="1" parent="1" source="OaKwWm5t6I1wfVNcC-3h-662" target="OaKwWm5t6I1wfVNcC-3h-733">
          <mxGeometry relative="1" as="geometry" />
        </mxCell>
        <mxCell id="OaKwWm5t6I1wfVNcC-3h-662" value="SSS&lt;div&gt;证券结算&lt;/div&gt;" style="rounded=1;whiteSpace=wrap;html=1;strokeColor=#b85450;fillColor=#f8cecc;fontStyle=1" vertex="1" parent="1">
          <mxGeometry x="610" y="1747" width="120" height="30" as="geometry" />
        </mxCell>
        <mxCell id="OaKwWm5t6I1wfVNcC-3h-774" style="edgeStyle=orthogonalEdgeStyle;rounded=0;orthogonalLoop=1;jettySize=auto;html=1;entryX=0;entryY=0.5;entryDx=0;entryDy=0;strokeColor=#DDA15E;fontColor=#FEFAE0;fillColor=#BC6C25;" edge="1" parent="1" source="OaKwWm5t6I1wfVNcC-3h-663" target="OaKwWm5t6I1wfVNcC-3h-772">
          <mxGeometry relative="1" as="geometry" />
        </mxCell>
        <mxCell id="OaKwWm5t6I1wfVNcC-3h-775" style="edgeStyle=orthogonalEdgeStyle;rounded=0;orthogonalLoop=1;jettySize=auto;html=1;entryX=0;entryY=0.5;entryDx=0;entryDy=0;strokeColor=#DDA15E;fontColor=#FEFAE0;fillColor=#BC6C25;" edge="1" parent="1" source="OaKwWm5t6I1wfVNcC-3h-663" target="OaKwWm5t6I1wfVNcC-3h-773">
          <mxGeometry relative="1" as="geometry" />
        </mxCell>
        <mxCell id="OaKwWm5t6I1wfVNcC-3h-663" value="CCP&lt;div&gt;中央对手方&lt;/div&gt;" style="rounded=1;whiteSpace=wrap;html=1;strokeColor=#b85450;fillColor=#f8cecc;fontStyle=1" vertex="1" parent="1">
          <mxGeometry x="610" y="2050" width="120" height="30" as="geometry" />
        </mxCell>
        <mxCell id="OaKwWm5t6I1wfVNcC-3h-706" style="edgeStyle=orthogonalEdgeStyle;rounded=0;orthogonalLoop=1;jettySize=auto;html=1;entryX=0;entryY=0.5;entryDx=0;entryDy=0;strokeColor=#DDA15E;fontColor=#FEFAE0;fillColor=#BC6C25;" edge="1" parent="1" source="OaKwWm5t6I1wfVNcC-3h-664" target="OaKwWm5t6I1wfVNcC-3h-701">
          <mxGeometry relative="1" as="geometry" />
        </mxCell>
        <mxCell id="OaKwWm5t6I1wfVNcC-3h-711" style="edgeStyle=orthogonalEdgeStyle;rounded=0;orthogonalLoop=1;jettySize=auto;html=1;entryX=0;entryY=0.5;entryDx=0;entryDy=0;strokeColor=#DDA15E;fontColor=#FEFAE0;fillColor=#BC6C25;" edge="1" parent="1" source="OaKwWm5t6I1wfVNcC-3h-664" target="OaKwWm5t6I1wfVNcC-3h-700">
          <mxGeometry relative="1" as="geometry" />
        </mxCell>
        <mxCell id="OaKwWm5t6I1wfVNcC-3h-664" value="证券登记" style="rounded=1;whiteSpace=wrap;html=1;strokeColor=#b85450;fillColor=#f8cecc;fontStyle=1" vertex="1" parent="1">
          <mxGeometry x="610" y="1365" width="120" height="30" as="geometry" />
        </mxCell>
        <mxCell id="OaKwWm5t6I1wfVNcC-3h-674" style="edgeStyle=orthogonalEdgeStyle;rounded=0;orthogonalLoop=1;jettySize=auto;html=1;entryX=0;entryY=0.5;entryDx=0;entryDy=0;strokeColor=#DDA15E;fontColor=#FEFAE0;fillColor=#BC6C25;" edge="1" parent="1" source="OaKwWm5t6I1wfVNcC-3h-671" target="OaKwWm5t6I1wfVNcC-3h-673">
          <mxGeometry relative="1" as="geometry" />
        </mxCell>
        <mxCell id="OaKwWm5t6I1wfVNcC-3h-671" value="前台机构" style="rounded=1;whiteSpace=wrap;html=1;strokeColor=#6c8ebf;fillColor=#dae8fc;fontStyle=1" vertex="1" parent="1">
          <mxGeometry y="1390" width="120" height="30" as="geometry" />
        </mxCell>
        <mxCell id="OaKwWm5t6I1wfVNcC-3h-678" style="edgeStyle=orthogonalEdgeStyle;rounded=0;orthogonalLoop=1;jettySize=auto;html=1;entryX=0;entryY=0.5;entryDx=0;entryDy=0;strokeColor=#DDA15E;fontColor=#FEFAE0;fillColor=#BC6C25;" edge="1" parent="1" source="OaKwWm5t6I1wfVNcC-3h-672" target="OaKwWm5t6I1wfVNcC-3h-676">
          <mxGeometry relative="1" as="geometry" />
        </mxCell>
        <mxCell id="OaKwWm5t6I1wfVNcC-3h-679" style="edgeStyle=orthogonalEdgeStyle;rounded=0;orthogonalLoop=1;jettySize=auto;html=1;entryX=0;entryY=0.5;entryDx=0;entryDy=0;strokeColor=#DDA15E;fontColor=#FEFAE0;fillColor=#BC6C25;" edge="1" parent="1" source="OaKwWm5t6I1wfVNcC-3h-672" target="OaKwWm5t6I1wfVNcC-3h-677">
          <mxGeometry relative="1" as="geometry" />
        </mxCell>
        <mxCell id="OaKwWm5t6I1wfVNcC-3h-672" value="登记结算机构" style="rounded=1;whiteSpace=wrap;html=1;strokeColor=#6c8ebf;fillColor=#dae8fc;fontStyle=1" vertex="1" parent="1">
          <mxGeometry y="1484" width="120" height="32" as="geometry" />
        </mxCell>
        <mxCell id="OaKwWm5t6I1wfVNcC-3h-673" value="CFETS(交易中心)" style="rounded=1;whiteSpace=wrap;html=1;strokeColor=#6c8ebf;fillColor=#dae8fc;fontStyle=1" vertex="1" parent="1">
          <mxGeometry x="210" y="1390" width="120" height="30" as="geometry" />
        </mxCell>
        <mxCell id="OaKwWm5t6I1wfVNcC-3h-676" value="中债登" style="rounded=1;whiteSpace=wrap;html=1;strokeColor=#6c8ebf;fillColor=#dae8fc;fontStyle=1" vertex="1" parent="1">
          <mxGeometry x="210" y="1465" width="120" height="30" as="geometry" />
        </mxCell>
        <mxCell id="OaKwWm5t6I1wfVNcC-3h-677" value="上清所" style="rounded=1;whiteSpace=wrap;html=1;strokeColor=#6c8ebf;fillColor=#dae8fc;fontStyle=1" vertex="1" parent="1">
          <mxGeometry x="210" y="1516" width="120" height="30" as="geometry" />
        </mxCell>
        <mxCell id="OaKwWm5t6I1wfVNcC-3h-682" value="区域性股权市 场运营机构" style="rounded=1;whiteSpace=wrap;html=1;fontStyle=1" vertex="1" parent="1">
          <mxGeometry y="1547.5" width="150" height="45" as="geometry" />
        </mxCell>
        <mxCell id="OaKwWm5t6I1wfVNcC-3h-692" style="edgeStyle=orthogonalEdgeStyle;rounded=0;orthogonalLoop=1;jettySize=auto;html=1;entryX=0;entryY=0.5;entryDx=0;entryDy=0;strokeColor=#DDA15E;fontColor=#FEFAE0;fillColor=#BC6C25;" edge="1" parent="1" source="OaKwWm5t6I1wfVNcC-3h-684" target="OaKwWm5t6I1wfVNcC-3h-686">
          <mxGeometry relative="1" as="geometry" />
        </mxCell>
        <mxCell id="OaKwWm5t6I1wfVNcC-3h-684" value="前台机构" style="rounded=1;whiteSpace=wrap;html=1;strokeColor=#6c8ebf;fillColor=#dae8fc;fontStyle=1" vertex="1" parent="1">
          <mxGeometry y="1630" width="120" height="30" as="geometry" />
        </mxCell>
        <mxCell id="OaKwWm5t6I1wfVNcC-3h-688" style="edgeStyle=orthogonalEdgeStyle;rounded=0;orthogonalLoop=1;jettySize=auto;html=1;entryX=0;entryY=0.5;entryDx=0;entryDy=0;strokeColor=#DDA15E;fontColor=#FEFAE0;fillColor=#BC6C25;" edge="1" parent="1" source="OaKwWm5t6I1wfVNcC-3h-685" target="OaKwWm5t6I1wfVNcC-3h-687">
          <mxGeometry relative="1" as="geometry" />
        </mxCell>
        <mxCell id="OaKwWm5t6I1wfVNcC-3h-693" style="edgeStyle=orthogonalEdgeStyle;rounded=0;orthogonalLoop=1;jettySize=auto;html=1;entryX=0;entryY=0.75;entryDx=0;entryDy=0;strokeColor=#DDA15E;fontColor=#FEFAE0;fillColor=#BC6C25;" edge="1" parent="1" source="OaKwWm5t6I1wfVNcC-3h-685" target="OaKwWm5t6I1wfVNcC-3h-686">
          <mxGeometry relative="1" as="geometry">
            <Array as="points">
              <mxPoint x="160" y="1716" />
              <mxPoint x="160" y="1653" />
            </Array>
          </mxGeometry>
        </mxCell>
        <mxCell id="OaKwWm5t6I1wfVNcC-3h-685" value="登记结算机构" style="rounded=1;whiteSpace=wrap;html=1;strokeColor=#6c8ebf;fillColor=#dae8fc;fontStyle=1" vertex="1" parent="1">
          <mxGeometry y="1700" width="120" height="32" as="geometry" />
        </mxCell>
        <mxCell id="OaKwWm5t6I1wfVNcC-3h-686" value="中证报价" style="rounded=1;whiteSpace=wrap;html=1;strokeColor=#6c8ebf;fillColor=#dae8fc;fontStyle=1" vertex="1" parent="1">
          <mxGeometry x="210" y="1630" width="120" height="30" as="geometry" />
        </mxCell>
        <mxCell id="OaKwWm5t6I1wfVNcC-3h-687" value="证 券公司" style="rounded=1;whiteSpace=wrap;html=1;strokeColor=#6c8ebf;fillColor=#dae8fc;fontStyle=1" vertex="1" parent="1">
          <mxGeometry x="210" y="1701" width="120" height="30" as="geometry" />
        </mxCell>
        <mxCell id="OaKwWm5t6I1wfVNcC-3h-697" style="edgeStyle=orthogonalEdgeStyle;rounded=0;orthogonalLoop=1;jettySize=auto;html=1;entryX=0;entryY=0.5;entryDx=0;entryDy=0;strokeColor=#DDA15E;fontColor=#FEFAE0;fillColor=#BC6C25;" edge="1" parent="1" source="OaKwWm5t6I1wfVNcC-3h-696" target="OaKwWm5t6I1wfVNcC-3h-506">
          <mxGeometry relative="1" as="geometry" />
        </mxCell>
        <mxCell id="OaKwWm5t6I1wfVNcC-3h-698" style="edgeStyle=orthogonalEdgeStyle;rounded=0;orthogonalLoop=1;jettySize=auto;html=1;entryX=0;entryY=0.5;entryDx=0;entryDy=0;strokeColor=#DDA15E;fontColor=#FEFAE0;fillColor=#BC6C25;" edge="1" parent="1" source="OaKwWm5t6I1wfVNcC-3h-696" target="OaKwWm5t6I1wfVNcC-3h-554">
          <mxGeometry relative="1" as="geometry" />
        </mxCell>
        <mxCell id="OaKwWm5t6I1wfVNcC-3h-699" style="edgeStyle=orthogonalEdgeStyle;rounded=0;orthogonalLoop=1;jettySize=auto;html=1;entryX=0;entryY=0.5;entryDx=0;entryDy=0;strokeColor=#DDA15E;fontColor=#FEFAE0;fillColor=#BC6C25;" edge="1" parent="1" source="OaKwWm5t6I1wfVNcC-3h-696" target="OaKwWm5t6I1wfVNcC-3h-568">
          <mxGeometry relative="1" as="geometry" />
        </mxCell>
        <mxCell id="OaKwWm5t6I1wfVNcC-3h-696" value="境外" style="rounded=1;whiteSpace=wrap;html=1;strokeColor=#6c8ebf;fillColor=#dae8fc;fontStyle=1" vertex="1" parent="1">
          <mxGeometry x="-390" y="2270" width="100" height="64" as="geometry" />
        </mxCell>
        <mxCell id="OaKwWm5t6I1wfVNcC-3h-700" value="初始登记" style="rounded=1;whiteSpace=wrap;html=1;strokeColor=#b85450;fillColor=#f8cecc;fontStyle=1" vertex="1" parent="1">
          <mxGeometry x="780" y="1280" width="120" height="30" as="geometry" />
        </mxCell>
        <mxCell id="OaKwWm5t6I1wfVNcC-3h-707" style="edgeStyle=orthogonalEdgeStyle;rounded=0;orthogonalLoop=1;jettySize=auto;html=1;entryX=0;entryY=0.5;entryDx=0;entryDy=0;strokeColor=#DDA15E;fontColor=#FEFAE0;fillColor=#BC6C25;" edge="1" parent="1" source="OaKwWm5t6I1wfVNcC-3h-701" target="OaKwWm5t6I1wfVNcC-3h-702">
          <mxGeometry relative="1" as="geometry" />
        </mxCell>
        <mxCell id="OaKwWm5t6I1wfVNcC-3h-708" style="edgeStyle=orthogonalEdgeStyle;rounded=0;orthogonalLoop=1;jettySize=auto;html=1;entryX=0;entryY=0.5;entryDx=0;entryDy=0;strokeColor=#DDA15E;fontColor=#FEFAE0;fillColor=#BC6C25;" edge="1" parent="1" source="OaKwWm5t6I1wfVNcC-3h-701" target="OaKwWm5t6I1wfVNcC-3h-703">
          <mxGeometry relative="1" as="geometry" />
        </mxCell>
        <mxCell id="OaKwWm5t6I1wfVNcC-3h-709" style="edgeStyle=orthogonalEdgeStyle;rounded=0;orthogonalLoop=1;jettySize=auto;html=1;strokeColor=#DDA15E;fontColor=#FEFAE0;fillColor=#BC6C25;entryX=0;entryY=0.5;entryDx=0;entryDy=0;" edge="1" parent="1" source="OaKwWm5t6I1wfVNcC-3h-701" target="OaKwWm5t6I1wfVNcC-3h-704">
          <mxGeometry relative="1" as="geometry">
            <mxPoint x="910" y="1365" as="targetPoint" />
          </mxGeometry>
        </mxCell>
        <mxCell id="OaKwWm5t6I1wfVNcC-3h-710" style="edgeStyle=orthogonalEdgeStyle;rounded=0;orthogonalLoop=1;jettySize=auto;html=1;entryX=0;entryY=0.5;entryDx=0;entryDy=0;strokeColor=#DDA15E;fontColor=#FEFAE0;fillColor=#BC6C25;" edge="1" parent="1" source="OaKwWm5t6I1wfVNcC-3h-701" target="OaKwWm5t6I1wfVNcC-3h-705">
          <mxGeometry relative="1" as="geometry" />
        </mxCell>
        <mxCell id="OaKwWm5t6I1wfVNcC-3h-701" value="变更登记" style="rounded=1;whiteSpace=wrap;html=1;strokeColor=#b85450;fillColor=#f8cecc;fontStyle=1" vertex="1" parent="1">
          <mxGeometry x="780" y="1365" width="120" height="30" as="geometry" />
        </mxCell>
        <mxCell id="OaKwWm5t6I1wfVNcC-3h-702" value="交易过户登记" style="rounded=1;whiteSpace=wrap;html=1;strokeColor=#b85450;fillColor=#f8cecc;fontStyle=1" vertex="1" parent="1">
          <mxGeometry x="970" y="1230" width="120" height="30" as="geometry" />
        </mxCell>
        <mxCell id="OaKwWm5t6I1wfVNcC-3h-703" value="非交易过户登记" style="rounded=1;whiteSpace=wrap;html=1;strokeColor=#b85450;fillColor=#f8cecc;fontStyle=1" vertex="1" parent="1">
          <mxGeometry x="970" y="1270" width="120" height="30" as="geometry" />
        </mxCell>
        <mxCell id="OaKwWm5t6I1wfVNcC-3h-704" value="证券质押" style="rounded=1;whiteSpace=wrap;html=1;strokeColor=#b85450;fillColor=#f8cecc;fontStyle=1" vertex="1" parent="1">
          <mxGeometry x="970" y="1310" width="120" height="30" as="geometry" />
        </mxCell>
        <mxCell id="OaKwWm5t6I1wfVNcC-3h-705" value="有权机关冻结" style="rounded=1;whiteSpace=wrap;html=1;strokeColor=#b85450;fillColor=#f8cecc;fontStyle=1" vertex="1" parent="1">
          <mxGeometry x="970" y="1365" width="120" height="30" as="geometry" />
        </mxCell>
        <mxCell id="OaKwWm5t6I1wfVNcC-3h-712" value="指定交易模式&lt;div&gt;沪市&lt;/div&gt;" style="rounded=1;whiteSpace=wrap;html=1;strokeColor=#b85450;fillColor=#f8cecc;fontStyle=1" vertex="1" parent="1">
          <mxGeometry x="970" y="1425" width="120" height="30" as="geometry" />
        </mxCell>
        <mxCell id="OaKwWm5t6I1wfVNcC-3h-713" value="托管券商模式&lt;div&gt;深市&lt;/div&gt;" style="rounded=1;whiteSpace=wrap;html=1;strokeColor=#b85450;fillColor=#f8cecc;fontStyle=1" vertex="1" parent="1">
          <mxGeometry x="970" y="1485" width="120" height="30" as="geometry" />
        </mxCell>
        <mxCell id="OaKwWm5t6I1wfVNcC-3h-714" value="中央存管" style="rounded=1;whiteSpace=wrap;html=1;strokeColor=#b85450;fillColor=#f8cecc;fontStyle=1" vertex="1" parent="1">
          <mxGeometry x="780" y="1425" width="120" height="30" as="geometry" />
        </mxCell>
        <mxCell id="OaKwWm5t6I1wfVNcC-3h-720" style="edgeStyle=orthogonalEdgeStyle;rounded=0;orthogonalLoop=1;jettySize=auto;html=1;entryX=0;entryY=0.5;entryDx=0;entryDy=0;strokeColor=#DDA15E;fontColor=#FEFAE0;fillColor=#BC6C25;" edge="1" parent="1" source="OaKwWm5t6I1wfVNcC-3h-715" target="OaKwWm5t6I1wfVNcC-3h-713">
          <mxGeometry relative="1" as="geometry" />
        </mxCell>
        <mxCell id="OaKwWm5t6I1wfVNcC-3h-721" style="edgeStyle=orthogonalEdgeStyle;rounded=0;orthogonalLoop=1;jettySize=auto;html=1;entryX=0;entryY=0.5;entryDx=0;entryDy=0;strokeColor=#DDA15E;fontColor=#FEFAE0;fillColor=#BC6C25;" edge="1" parent="1" source="OaKwWm5t6I1wfVNcC-3h-715" target="OaKwWm5t6I1wfVNcC-3h-712">
          <mxGeometry relative="1" as="geometry" />
        </mxCell>
        <mxCell id="OaKwWm5t6I1wfVNcC-3h-715" value="二级托管&lt;div&gt;（券商）&lt;/div&gt;" style="rounded=1;whiteSpace=wrap;html=1;strokeColor=#b85450;fillColor=#f8cecc;fontStyle=1" vertex="1" parent="1">
          <mxGeometry x="780" y="1485" width="120" height="30" as="geometry" />
        </mxCell>
        <mxCell id="OaKwWm5t6I1wfVNcC-3h-728" style="edgeStyle=orthogonalEdgeStyle;rounded=0;orthogonalLoop=1;jettySize=auto;html=1;entryX=0;entryY=0.5;entryDx=0;entryDy=0;strokeColor=#DDA15E;fontColor=#FEFAE0;fillColor=#BC6C25;" edge="1" parent="1" source="OaKwWm5t6I1wfVNcC-3h-722" target="OaKwWm5t6I1wfVNcC-3h-724">
          <mxGeometry relative="1" as="geometry" />
        </mxCell>
        <mxCell id="OaKwWm5t6I1wfVNcC-3h-729" style="edgeStyle=orthogonalEdgeStyle;rounded=0;orthogonalLoop=1;jettySize=auto;html=1;entryX=0;entryY=0.5;entryDx=0;entryDy=0;strokeColor=#DDA15E;fontColor=#FEFAE0;fillColor=#BC6C25;" edge="1" parent="1" source="OaKwWm5t6I1wfVNcC-3h-722" target="OaKwWm5t6I1wfVNcC-3h-725">
          <mxGeometry relative="1" as="geometry" />
        </mxCell>
        <mxCell id="OaKwWm5t6I1wfVNcC-3h-730" style="edgeStyle=orthogonalEdgeStyle;rounded=0;orthogonalLoop=1;jettySize=auto;html=1;entryX=0;entryY=0.5;entryDx=0;entryDy=0;strokeColor=#DDA15E;fontColor=#FEFAE0;fillColor=#BC6C25;" edge="1" parent="1" source="OaKwWm5t6I1wfVNcC-3h-722" target="OaKwWm5t6I1wfVNcC-3h-726">
          <mxGeometry relative="1" as="geometry" />
        </mxCell>
        <mxCell id="OaKwWm5t6I1wfVNcC-3h-731" style="edgeStyle=orthogonalEdgeStyle;rounded=0;orthogonalLoop=1;jettySize=auto;html=1;entryX=0;entryY=0.5;entryDx=0;entryDy=0;strokeColor=#DDA15E;fontColor=#FEFAE0;fillColor=#BC6C25;" edge="1" parent="1" source="OaKwWm5t6I1wfVNcC-3h-722" target="OaKwWm5t6I1wfVNcC-3h-727">
          <mxGeometry relative="1" as="geometry" />
        </mxCell>
        <mxCell id="OaKwWm5t6I1wfVNcC-3h-722" value="Corporate Action&lt;br&gt;&lt;div&gt;公司行为&lt;/div&gt;" style="rounded=1;whiteSpace=wrap;html=1;strokeColor=#b85450;fillColor=#f8cecc;fontStyle=1" vertex="1" parent="1">
          <mxGeometry x="610" y="1595" width="120" height="30" as="geometry" />
        </mxCell>
        <mxCell id="OaKwWm5t6I1wfVNcC-3h-724" value="现金红利" style="rounded=1;whiteSpace=wrap;html=1;strokeColor=#b85450;fillColor=#f8cecc;fontStyle=1" vertex="1" parent="1">
          <mxGeometry x="780" y="1532.5" width="120" height="30" as="geometry" />
        </mxCell>
        <mxCell id="OaKwWm5t6I1wfVNcC-3h-725" value="送红股和转增股" style="rounded=1;whiteSpace=wrap;html=1;strokeColor=#b85450;fillColor=#f8cecc;fontStyle=1" vertex="1" parent="1">
          <mxGeometry x="780" y="1575" width="120" height="30" as="geometry" />
        </mxCell>
        <mxCell id="OaKwWm5t6I1wfVNcC-3h-726" value="配股" style="rounded=1;whiteSpace=wrap;html=1;strokeColor=#b85450;fillColor=#f8cecc;fontStyle=1" vertex="1" parent="1">
          <mxGeometry x="780" y="1615" width="120" height="30" as="geometry" />
        </mxCell>
        <mxCell id="OaKwWm5t6I1wfVNcC-3h-727" value="换股吸收合并" style="rounded=1;whiteSpace=wrap;html=1;strokeColor=#b85450;fillColor=#f8cecc;fontStyle=1" vertex="1" parent="1">
          <mxGeometry x="780" y="1655" width="120" height="30" as="geometry" />
        </mxCell>
        <mxCell id="OaKwWm5t6I1wfVNcC-3h-745" style="edgeStyle=orthogonalEdgeStyle;rounded=0;orthogonalLoop=1;jettySize=auto;html=1;entryX=0;entryY=0.5;entryDx=0;entryDy=0;strokeColor=#DDA15E;fontColor=#FEFAE0;fillColor=#BC6C25;" edge="1" parent="1" source="OaKwWm5t6I1wfVNcC-3h-732" target="OaKwWm5t6I1wfVNcC-3h-736">
          <mxGeometry relative="1" as="geometry" />
        </mxCell>
        <mxCell id="OaKwWm5t6I1wfVNcC-3h-746" style="edgeStyle=orthogonalEdgeStyle;rounded=0;orthogonalLoop=1;jettySize=auto;html=1;entryX=0;entryY=0.5;entryDx=0;entryDy=0;strokeColor=#DDA15E;fontColor=#FEFAE0;fillColor=#BC6C25;" edge="1" parent="1" source="OaKwWm5t6I1wfVNcC-3h-732" target="OaKwWm5t6I1wfVNcC-3h-737">
          <mxGeometry relative="1" as="geometry" />
        </mxCell>
        <mxCell id="OaKwWm5t6I1wfVNcC-3h-732" value="清算" style="rounded=1;whiteSpace=wrap;html=1;strokeColor=#b85450;fillColor=#f8cecc;fontStyle=1" vertex="1" parent="1">
          <mxGeometry x="780" y="1715" width="120" height="30" as="geometry" />
        </mxCell>
        <mxCell id="OaKwWm5t6I1wfVNcC-3h-747" style="edgeStyle=orthogonalEdgeStyle;rounded=0;orthogonalLoop=1;jettySize=auto;html=1;entryX=0;entryY=0.5;entryDx=0;entryDy=0;strokeColor=#DDA15E;fontColor=#FEFAE0;fillColor=#BC6C25;" edge="1" parent="1" source="OaKwWm5t6I1wfVNcC-3h-733" target="OaKwWm5t6I1wfVNcC-3h-761">
          <mxGeometry relative="1" as="geometry" />
        </mxCell>
        <mxCell id="OaKwWm5t6I1wfVNcC-3h-770" style="edgeStyle=orthogonalEdgeStyle;rounded=0;orthogonalLoop=1;jettySize=auto;html=1;entryX=0;entryY=0.5;entryDx=0;entryDy=0;strokeColor=#DDA15E;fontColor=#FEFAE0;fillColor=#BC6C25;" edge="1" parent="1" source="OaKwWm5t6I1wfVNcC-3h-733" target="OaKwWm5t6I1wfVNcC-3h-768">
          <mxGeometry relative="1" as="geometry" />
        </mxCell>
        <mxCell id="OaKwWm5t6I1wfVNcC-3h-733" value="交收" style="rounded=1;whiteSpace=wrap;html=1;strokeColor=#b85450;fillColor=#f8cecc;fontStyle=1" vertex="1" parent="1">
          <mxGeometry x="780" y="1879" width="120" height="30" as="geometry" />
        </mxCell>
        <mxCell id="OaKwWm5t6I1wfVNcC-3h-755" style="edgeStyle=orthogonalEdgeStyle;rounded=0;orthogonalLoop=1;jettySize=auto;html=1;entryX=0;entryY=0.5;entryDx=0;entryDy=0;strokeColor=#DDA15E;fontColor=#FEFAE0;fillColor=#BC6C25;" edge="1" parent="1" source="OaKwWm5t6I1wfVNcC-3h-736" target="OaKwWm5t6I1wfVNcC-3h-752">
          <mxGeometry relative="1" as="geometry" />
        </mxCell>
        <mxCell id="OaKwWm5t6I1wfVNcC-3h-756" style="edgeStyle=orthogonalEdgeStyle;rounded=0;orthogonalLoop=1;jettySize=auto;html=1;entryX=0;entryY=0.5;entryDx=0;entryDy=0;strokeColor=#DDA15E;fontColor=#FEFAE0;fillColor=#BC6C25;" edge="1" parent="1" source="OaKwWm5t6I1wfVNcC-3h-736" target="OaKwWm5t6I1wfVNcC-3h-751">
          <mxGeometry relative="1" as="geometry" />
        </mxCell>
        <mxCell id="OaKwWm5t6I1wfVNcC-3h-736" value="逐笔额清算" style="rounded=1;whiteSpace=wrap;html=1;fontStyle=1" vertex="1" parent="1">
          <mxGeometry x="960" y="1575" width="120" height="30" as="geometry" />
        </mxCell>
        <mxCell id="OaKwWm5t6I1wfVNcC-3h-742" style="edgeStyle=orthogonalEdgeStyle;rounded=0;orthogonalLoop=1;jettySize=auto;html=1;entryX=0;entryY=0.5;entryDx=0;entryDy=0;strokeColor=#DDA15E;fontColor=#FEFAE0;fillColor=#BC6C25;" edge="1" parent="1" source="OaKwWm5t6I1wfVNcC-3h-737" target="OaKwWm5t6I1wfVNcC-3h-740">
          <mxGeometry relative="1" as="geometry" />
        </mxCell>
        <mxCell id="OaKwWm5t6I1wfVNcC-3h-743" style="edgeStyle=orthogonalEdgeStyle;rounded=0;orthogonalLoop=1;jettySize=auto;html=1;entryX=0;entryY=0.5;entryDx=0;entryDy=0;strokeColor=#DDA15E;fontColor=#FEFAE0;fillColor=#BC6C25;" edge="1" parent="1" source="OaKwWm5t6I1wfVNcC-3h-737" target="OaKwWm5t6I1wfVNcC-3h-741">
          <mxGeometry relative="1" as="geometry" />
        </mxCell>
        <mxCell id="OaKwWm5t6I1wfVNcC-3h-737" value="净 额清算" style="rounded=1;whiteSpace=wrap;html=1;strokeColor=#b85450;fillColor=#f8cecc;fontStyle=1" vertex="1" parent="1">
          <mxGeometry x="960" y="1725" width="120" height="30" as="geometry" />
        </mxCell>
        <mxCell id="OaKwWm5t6I1wfVNcC-3h-738" value="担保交收" style="rounded=1;whiteSpace=wrap;html=1;strokeColor=#b85450;fillColor=#f8cecc;fontStyle=1" vertex="1" parent="1">
          <mxGeometry x="960" y="1777" width="120" height="30" as="geometry" />
        </mxCell>
        <mxCell id="OaKwWm5t6I1wfVNcC-3h-739" value="非担保交收" style="rounded=1;whiteSpace=wrap;html=1;strokeColor=#b85450;fillColor=#f8cecc;fontStyle=1" vertex="1" parent="1">
          <mxGeometry x="960" y="1822" width="120" height="30" as="geometry" />
        </mxCell>
        <mxCell id="OaKwWm5t6I1wfVNcC-3h-757" style="edgeStyle=orthogonalEdgeStyle;rounded=0;orthogonalLoop=1;jettySize=auto;html=1;entryX=0;entryY=0.5;entryDx=0;entryDy=0;strokeColor=#DDA15E;fontColor=#FEFAE0;fillColor=#BC6C25;" edge="1" parent="1" source="OaKwWm5t6I1wfVNcC-3h-740" target="OaKwWm5t6I1wfVNcC-3h-754">
          <mxGeometry relative="1" as="geometry" />
        </mxCell>
        <mxCell id="OaKwWm5t6I1wfVNcC-3h-740" value="双边净额清算" style="rounded=1;whiteSpace=wrap;html=1;fontStyle=1" vertex="1" parent="1">
          <mxGeometry x="1130" y="1645" width="120" height="30" as="geometry" />
        </mxCell>
        <mxCell id="OaKwWm5t6I1wfVNcC-3h-749" style="edgeStyle=orthogonalEdgeStyle;rounded=0;orthogonalLoop=1;jettySize=auto;html=1;entryX=0;entryY=0.5;entryDx=0;entryDy=0;strokeColor=#DDA15E;fontColor=#FEFAE0;fillColor=#BC6C25;" edge="1" parent="1" source="OaKwWm5t6I1wfVNcC-3h-741" target="OaKwWm5t6I1wfVNcC-3h-744">
          <mxGeometry relative="1" as="geometry" />
        </mxCell>
        <mxCell id="OaKwWm5t6I1wfVNcC-3h-758" style="edgeStyle=orthogonalEdgeStyle;rounded=0;orthogonalLoop=1;jettySize=auto;html=1;entryX=0;entryY=0.5;entryDx=0;entryDy=0;strokeColor=#DDA15E;fontColor=#FEFAE0;fillColor=#BC6C25;" edge="1" parent="1" source="OaKwWm5t6I1wfVNcC-3h-741" target="OaKwWm5t6I1wfVNcC-3h-750">
          <mxGeometry relative="1" as="geometry" />
        </mxCell>
        <mxCell id="OaKwWm5t6I1wfVNcC-3h-760" style="edgeStyle=orthogonalEdgeStyle;rounded=0;orthogonalLoop=1;jettySize=auto;html=1;entryX=0;entryY=0.5;entryDx=0;entryDy=0;strokeColor=#DDA15E;fontColor=#FEFAE0;fillColor=#BC6C25;" edge="1" parent="1" source="OaKwWm5t6I1wfVNcC-3h-741" target="OaKwWm5t6I1wfVNcC-3h-759">
          <mxGeometry relative="1" as="geometry" />
        </mxCell>
        <mxCell id="OaKwWm5t6I1wfVNcC-3h-741" value="多边净额清算" style="rounded=1;whiteSpace=wrap;html=1;strokeColor=#b85450;fillColor=#f8cecc;fontStyle=1" vertex="1" parent="1">
          <mxGeometry x="1130" y="1725" width="120" height="30" as="geometry" />
        </mxCell>
        <mxCell id="OaKwWm5t6I1wfVNcC-3h-744" value="现 货 交 易&amp;nbsp;" style="rounded=1;whiteSpace=wrap;html=1;strokeColor=#b85450;fillColor=#f8cecc;fontStyle=1" vertex="1" parent="1">
          <mxGeometry x="1300" y="1685" width="120" height="30" as="geometry" />
        </mxCell>
        <mxCell id="OaKwWm5t6I1wfVNcC-3h-750" value="债券质押式回购" style="rounded=1;whiteSpace=wrap;html=1;strokeColor=#b85450;fillColor=#f8cecc;fontStyle=1" vertex="1" parent="1">
          <mxGeometry x="1300" y="1735" width="120" height="30" as="geometry" />
        </mxCell>
        <mxCell id="OaKwWm5t6I1wfVNcC-3h-751" value="债券质押式协议回购" style="rounded=1;whiteSpace=wrap;html=1;fontStyle=1" vertex="1" parent="1">
          <mxGeometry x="1300" y="1592.5" width="120" height="30" as="geometry" />
        </mxCell>
        <mxCell id="OaKwWm5t6I1wfVNcC-3h-752" value="股票质押式回购" style="rounded=1;whiteSpace=wrap;html=1;fontStyle=1" vertex="1" parent="1">
          <mxGeometry x="1300" y="1555" width="120" height="30" as="geometry" />
        </mxCell>
        <mxCell id="OaKwWm5t6I1wfVNcC-3h-754" value="质押式报价回购" style="rounded=1;whiteSpace=wrap;html=1;fontStyle=1" vertex="1" parent="1">
          <mxGeometry x="1300" y="1645" width="120" height="30" as="geometry" />
        </mxCell>
        <mxCell id="OaKwWm5t6I1wfVNcC-3h-759" value="股票期权" style="rounded=1;whiteSpace=wrap;html=1;strokeColor=#b85450;fillColor=#f8cecc;fontStyle=1" vertex="1" parent="1">
          <mxGeometry x="1300" y="1777" width="120" height="30" as="geometry" />
        </mxCell>
        <mxCell id="OaKwWm5t6I1wfVNcC-3h-761" value="" style="rounded=0;whiteSpace=wrap;html=1;fillColor=none;dashed=1;" vertex="1" parent="1">
          <mxGeometry x="950" y="1770" width="160" height="95" as="geometry" />
        </mxCell>
        <mxCell id="OaKwWm5t6I1wfVNcC-3h-763" value="&lt;font style=&quot;color: rgb(0, 0, 0);&quot;&gt;类别&lt;/font&gt;" style="text;strokeColor=none;align=center;fillColor=none;html=1;verticalAlign=middle;whiteSpace=wrap;rounded=0;fontColor=#FEFAE0;" vertex="1" parent="1">
          <mxGeometry x="1080" y="1802.5" width="60" height="30" as="geometry" />
        </mxCell>
        <mxCell id="OaKwWm5t6I1wfVNcC-3h-764" value="交收日" style="rounded=1;whiteSpace=wrap;html=1;strokeColor=#b85450;fillColor=#f8cecc;fontStyle=1" vertex="1" parent="1">
          <mxGeometry x="960" y="1879" width="120" height="30" as="geometry" />
        </mxCell>
        <mxCell id="OaKwWm5t6I1wfVNcC-3h-765" value="交收期" style="rounded=1;whiteSpace=wrap;html=1;strokeColor=#b85450;fillColor=#f8cecc;fontStyle=1" vertex="1" parent="1">
          <mxGeometry x="960" y="1924" width="120" height="30" as="geometry" />
        </mxCell>
        <mxCell id="OaKwWm5t6I1wfVNcC-3h-766" value="最终交收时点" style="rounded=1;whiteSpace=wrap;html=1;strokeColor=#b85450;fillColor=#f8cecc;fontStyle=1" vertex="1" parent="1">
          <mxGeometry x="960" y="1967" width="120" height="30" as="geometry" />
        </mxCell>
        <mxCell id="OaKwWm5t6I1wfVNcC-3h-769" value="&lt;font style=&quot;color: rgb(0, 0, 0);&quot;&gt;要素&lt;/font&gt;" style="text;strokeColor=none;align=center;fillColor=none;html=1;verticalAlign=middle;whiteSpace=wrap;rounded=0;fontColor=#FEFAE0;" vertex="1" parent="1">
          <mxGeometry x="1080" y="1923.5" width="60" height="30" as="geometry" />
        </mxCell>
        <mxCell id="OaKwWm5t6I1wfVNcC-3h-771" value="&lt;font style=&quot;color: rgb(0, 0, 0);&quot;&gt;中国结算作为证券结算系统 (SSS),最终交收时点通常为交收日的16:00,同时提供RTGS (Real-Time&amp;nbsp; &amp;nbsp; &amp;nbsp;Gross&amp;nbsp; &amp;nbsp; &amp;nbsp; Settlement)&amp;nbsp; 或多批次处理机制。&lt;/font&gt;" style="text;strokeColor=none;align=center;fillColor=none;html=1;verticalAlign=middle;whiteSpace=wrap;rounded=0;fontColor=#FEFAE0;" vertex="1" parent="1">
          <mxGeometry x="1110" y="1963" width="270" height="42" as="geometry" />
        </mxCell>
        <mxCell id="OaKwWm5t6I1wfVNcC-3h-772" value="双边市场机制" style="rounded=1;whiteSpace=wrap;html=1;fontStyle=1" vertex="1" parent="1">
          <mxGeometry x="790" y="2020" width="120" height="30" as="geometry" />
        </mxCell>
        <mxCell id="OaKwWm5t6I1wfVNcC-3h-778" style="edgeStyle=orthogonalEdgeStyle;rounded=0;orthogonalLoop=1;jettySize=auto;html=1;entryX=0;entryY=0.5;entryDx=0;entryDy=0;strokeColor=#DDA15E;fontColor=#FEFAE0;fillColor=#BC6C25;" edge="1" parent="1" source="OaKwWm5t6I1wfVNcC-3h-773" target="OaKwWm5t6I1wfVNcC-3h-777">
          <mxGeometry relative="1" as="geometry" />
        </mxCell>
        <mxCell id="OaKwWm5t6I1wfVNcC-3h-780" style="edgeStyle=orthogonalEdgeStyle;rounded=0;orthogonalLoop=1;jettySize=auto;html=1;entryX=0;entryY=0.5;entryDx=0;entryDy=0;strokeColor=#DDA15E;fontColor=#FEFAE0;fillColor=#BC6C25;" edge="1" parent="1" source="OaKwWm5t6I1wfVNcC-3h-773" target="OaKwWm5t6I1wfVNcC-3h-776">
          <mxGeometry relative="1" as="geometry" />
        </mxCell>
        <mxCell id="OaKwWm5t6I1wfVNcC-3h-773" value="多边市场机制" style="rounded=1;whiteSpace=wrap;html=1;strokeColor=#b85450;fillColor=#f8cecc;fontStyle=1" vertex="1" parent="1">
          <mxGeometry x="790" y="2068" width="120" height="30" as="geometry" />
        </mxCell>
        <mxCell id="OaKwWm5t6I1wfVNcC-3h-783" style="edgeStyle=orthogonalEdgeStyle;rounded=0;orthogonalLoop=1;jettySize=auto;html=1;entryX=0;entryY=0.5;entryDx=0;entryDy=0;strokeColor=#DDA15E;fontColor=#FEFAE0;fillColor=#BC6C25;" edge="1" parent="1" source="OaKwWm5t6I1wfVNcC-3h-776" target="OaKwWm5t6I1wfVNcC-3h-781">
          <mxGeometry relative="1" as="geometry" />
        </mxCell>
        <mxCell id="OaKwWm5t6I1wfVNcC-3h-784" style="edgeStyle=orthogonalEdgeStyle;rounded=0;orthogonalLoop=1;jettySize=auto;html=1;entryX=0;entryY=0.5;entryDx=0;entryDy=0;strokeColor=#DDA15E;fontColor=#FEFAE0;fillColor=#BC6C25;" edge="1" parent="1" source="OaKwWm5t6I1wfVNcC-3h-776" target="OaKwWm5t6I1wfVNcC-3h-782">
          <mxGeometry relative="1" as="geometry" />
        </mxCell>
        <mxCell id="OaKwWm5t6I1wfVNcC-3h-776" value="垂直模式" style="rounded=1;whiteSpace=wrap;html=1;fontStyle=1" vertex="1" parent="1">
          <mxGeometry x="950" y="2030" width="120" height="30" as="geometry" />
        </mxCell>
        <mxCell id="OaKwWm5t6I1wfVNcC-3h-786" style="edgeStyle=orthogonalEdgeStyle;rounded=0;orthogonalLoop=1;jettySize=auto;html=1;entryX=0;entryY=0.5;entryDx=0;entryDy=0;strokeColor=#DDA15E;fontColor=#FEFAE0;fillColor=#BC6C25;" edge="1" parent="1" source="OaKwWm5t6I1wfVNcC-3h-777" target="OaKwWm5t6I1wfVNcC-3h-785">
          <mxGeometry relative="1" as="geometry" />
        </mxCell>
        <mxCell id="OaKwWm5t6I1wfVNcC-3h-777" value="垂直模式" style="rounded=1;whiteSpace=wrap;html=1;strokeColor=#b85450;fillColor=#f8cecc;fontStyle=1" vertex="1" parent="1">
          <mxGeometry x="950" y="2090" width="120" height="30" as="geometry" />
        </mxCell>
        <mxCell id="OaKwWm5t6I1wfVNcC-3h-781" value="中国商品期货交易所" style="rounded=1;whiteSpace=wrap;html=1;fontStyle=1" vertex="1" parent="1">
          <mxGeometry x="1130" y="2014" width="120" height="30" as="geometry" />
        </mxCell>
        <mxCell id="OaKwWm5t6I1wfVNcC-3h-782" value="金融期货交易" style="rounded=1;whiteSpace=wrap;html=1;fontStyle=1" vertex="1" parent="1">
          <mxGeometry x="1130" y="2046" width="120" height="30" as="geometry" />
        </mxCell>
        <mxCell id="OaKwWm5t6I1wfVNcC-3h-785" value="中国结算" style="rounded=1;whiteSpace=wrap;html=1;strokeColor=#b85450;fillColor=#f8cecc;fontStyle=1" vertex="1" parent="1">
          <mxGeometry x="1130" y="2090" width="120" height="30" as="geometry" />
        </mxCell>
        <mxCell id="OaKwWm5t6I1wfVNcC-3h-787" value="&lt;font style=&quot;color: rgb(0, 0, 0);&quot;&gt;中央对手方不受限于服务的市场和品种，可以同时为多家交易所、不同产品提供结 算服务&lt;/font&gt;" style="text;strokeColor=none;align=left;fillColor=none;html=1;verticalAlign=middle;whiteSpace=wrap;rounded=0;fontColor=#FEFAE0;" vertex="1" parent="1">
          <mxGeometry x="1250" y="2084" width="270" height="42" as="geometry" />
        </mxCell>
        <mxCell id="OaKwWm5t6I1wfVNcC-3h-793" style="edgeStyle=orthogonalEdgeStyle;rounded=0;orthogonalLoop=1;jettySize=auto;html=1;entryX=0;entryY=0.5;entryDx=0;entryDy=0;strokeColor=#DDA15E;fontColor=#FEFAE0;fillColor=#BC6C25;" edge="1" parent="1" source="OaKwWm5t6I1wfVNcC-3h-788" target="OaKwWm5t6I1wfVNcC-3h-790">
          <mxGeometry relative="1" as="geometry" />
        </mxCell>
        <mxCell id="OaKwWm5t6I1wfVNcC-3h-794" style="edgeStyle=orthogonalEdgeStyle;rounded=0;orthogonalLoop=1;jettySize=auto;html=1;entryX=0;entryY=0.5;entryDx=0;entryDy=0;strokeColor=#DDA15E;fontColor=#FEFAE0;fillColor=#BC6C25;" edge="1" parent="1" source="OaKwWm5t6I1wfVNcC-3h-788" target="OaKwWm5t6I1wfVNcC-3h-791">
          <mxGeometry relative="1" as="geometry" />
        </mxCell>
        <mxCell id="OaKwWm5t6I1wfVNcC-3h-795" style="edgeStyle=orthogonalEdgeStyle;rounded=0;orthogonalLoop=1;jettySize=auto;html=1;entryX=0;entryY=0.5;entryDx=0;entryDy=0;strokeColor=#DDA15E;fontColor=#FEFAE0;fillColor=#BC6C25;" edge="1" parent="1" source="OaKwWm5t6I1wfVNcC-3h-788" target="OaKwWm5t6I1wfVNcC-3h-792">
          <mxGeometry relative="1" as="geometry" />
        </mxCell>
        <mxCell id="OaKwWm5t6I1wfVNcC-3h-788" value="DVP&lt;div&gt;货银对付&lt;/div&gt;" style="rounded=1;whiteSpace=wrap;html=1;strokeColor=#b85450;fillColor=#f8cecc;fontStyle=1" vertex="1" parent="1">
          <mxGeometry x="610" y="2190" width="120" height="30" as="geometry" />
        </mxCell>
        <mxCell id="OaKwWm5t6I1wfVNcC-3h-790" value="对证券过户和资金 划转同时进行逐笔全额结算" style="rounded=1;whiteSpace=wrap;html=1;fontStyle=1;align=left;" vertex="1" parent="1">
          <mxGeometry x="790" y="2140" width="180" height="30" as="geometry" />
        </mxCell>
        <mxCell id="OaKwWm5t6I1wfVNcC-3h-791" value="先对证券过户进行全额结算，再 对资金划转进行净额结算" style="rounded=1;whiteSpace=wrap;html=1;fontStyle=1;align=left;" vertex="1" parent="1">
          <mxGeometry x="790" y="2200" width="180" height="30" as="geometry" />
        </mxCell>
        <mxCell id="OaKwWm5t6I1wfVNcC-3h-792" value="对证券过户和资 金转账同时进行净额结算" style="rounded=1;whiteSpace=wrap;html=1;strokeColor=#b85450;fillColor=#f8cecc;fontStyle=1;align=left;" vertex="1" parent="1">
          <mxGeometry x="790" y="2260" width="180" height="30" as="geometry" />
        </mxCell>
        <mxCell id="OaKwWm5t6I1wfVNcC-3h-796" value="&lt;font style=&quot;color: rgb(0, 0, 0);&quot;&gt;英国&lt;/font&gt;" style="text;strokeColor=none;align=center;fillColor=none;html=1;verticalAlign=middle;whiteSpace=wrap;rounded=0;fontColor=#FEFAE0;" vertex="1" parent="1">
          <mxGeometry x="970" y="2140" width="60" height="30" as="geometry" />
        </mxCell>
        <mxCell id="OaKwWm5t6I1wfVNcC-3h-797" value="&lt;font style=&quot;color: rgb(0, 0, 0);&quot;&gt;美国&lt;/font&gt;" style="text;strokeColor=none;align=center;fillColor=none;html=1;verticalAlign=middle;whiteSpace=wrap;rounded=0;fontColor=#FEFAE0;" vertex="1" parent="1">
          <mxGeometry x="970" y="2200" width="60" height="30" as="geometry" />
        </mxCell>
        <mxCell id="OaKwWm5t6I1wfVNcC-3h-798" value="&lt;font color=&quot;#000000&quot;&gt;香港&lt;/font&gt;" style="text;strokeColor=none;align=center;fillColor=none;html=1;verticalAlign=middle;whiteSpace=wrap;rounded=0;fontColor=#FEFAE0;" vertex="1" parent="1">
          <mxGeometry x="970" y="2260" width="60" height="30" as="geometry" />
        </mxCell>
        <mxCell id="OaKwWm5t6I1wfVNcC-3h-802" style="edgeStyle=orthogonalEdgeStyle;rounded=0;orthogonalLoop=1;jettySize=auto;html=1;entryX=0;entryY=0.5;entryDx=0;entryDy=0;strokeColor=#DDA15E;fontColor=#FEFAE0;fillColor=#BC6C25;" edge="1" parent="1" source="OaKwWm5t6I1wfVNcC-3h-799" target="OaKwWm5t6I1wfVNcC-3h-812">
          <mxGeometry relative="1" as="geometry">
            <Array as="points">
              <mxPoint x="-240" y="3406" />
              <mxPoint x="-240" y="3222" />
            </Array>
          </mxGeometry>
        </mxCell>
        <mxCell id="OaKwWm5t6I1wfVNcC-3h-826" style="edgeStyle=orthogonalEdgeStyle;rounded=0;orthogonalLoop=1;jettySize=auto;html=1;entryX=0;entryY=0.5;entryDx=0;entryDy=0;strokeColor=#DDA15E;fontColor=#FEFAE0;fillColor=#BC6C25;" edge="1" parent="1" source="OaKwWm5t6I1wfVNcC-3h-799" target="OaKwWm5t6I1wfVNcC-3h-813">
          <mxGeometry relative="1" as="geometry">
            <Array as="points">
              <mxPoint x="-240" y="3406" />
              <mxPoint x="-240" y="3439" />
            </Array>
          </mxGeometry>
        </mxCell>
        <mxCell id="OaKwWm5t6I1wfVNcC-3h-834" style="edgeStyle=orthogonalEdgeStyle;rounded=0;orthogonalLoop=1;jettySize=auto;html=1;entryX=0;entryY=0.5;entryDx=0;entryDy=0;strokeColor=#DDA15E;fontColor=#FEFAE0;fillColor=#BC6C25;" edge="1" parent="1" source="OaKwWm5t6I1wfVNcC-3h-799" target="OaKwWm5t6I1wfVNcC-3h-823">
          <mxGeometry relative="1" as="geometry" />
        </mxCell>
        <mxCell id="OaKwWm5t6I1wfVNcC-3h-799" value="跨境" style="rounded=1;whiteSpace=wrap;html=1;strokeColor=#6c8ebf;fillColor=#dae8fc;fontStyle=1" vertex="1" parent="1">
          <mxGeometry x="-410" y="3374" width="100" height="64" as="geometry" />
        </mxCell>
        <mxCell id="OaKwWm5t6I1wfVNcC-3h-816" style="edgeStyle=orthogonalEdgeStyle;rounded=0;orthogonalLoop=1;jettySize=auto;html=1;entryX=0;entryY=0.5;entryDx=0;entryDy=0;strokeColor=#DDA15E;fontColor=#FEFAE0;fillColor=#BC6C25;" edge="1" parent="1" source="OaKwWm5t6I1wfVNcC-3h-800" target="OaKwWm5t6I1wfVNcC-3h-804">
          <mxGeometry relative="1" as="geometry" />
        </mxCell>
        <mxCell id="OaKwWm5t6I1wfVNcC-3h-817" style="edgeStyle=orthogonalEdgeStyle;rounded=0;orthogonalLoop=1;jettySize=auto;html=1;entryX=0;entryY=0.5;entryDx=0;entryDy=0;strokeColor=#DDA15E;fontColor=#FEFAE0;fillColor=#BC6C25;" edge="1" parent="1" source="OaKwWm5t6I1wfVNcC-3h-800" target="OaKwWm5t6I1wfVNcC-3h-806">
          <mxGeometry relative="1" as="geometry" />
        </mxCell>
        <mxCell id="OaKwWm5t6I1wfVNcC-3h-818" style="edgeStyle=orthogonalEdgeStyle;rounded=0;orthogonalLoop=1;jettySize=auto;html=1;entryX=0;entryY=0.5;entryDx=0;entryDy=0;strokeColor=#DDA15E;fontColor=#FEFAE0;fillColor=#BC6C25;" edge="1" parent="1" source="OaKwWm5t6I1wfVNcC-3h-800" target="OaKwWm5t6I1wfVNcC-3h-808">
          <mxGeometry relative="1" as="geometry" />
        </mxCell>
        <mxCell id="OaKwWm5t6I1wfVNcC-3h-800" value="直接连接" style="rounded=1;whiteSpace=wrap;html=1;strokeColor=#6c8ebf;fillColor=#dae8fc;fontStyle=1" vertex="1" parent="1">
          <mxGeometry x="20" y="3104" width="100" height="64" as="geometry" />
        </mxCell>
        <mxCell id="OaKwWm5t6I1wfVNcC-3h-819" style="edgeStyle=orthogonalEdgeStyle;rounded=0;orthogonalLoop=1;jettySize=auto;html=1;entryX=0;entryY=0.5;entryDx=0;entryDy=0;strokeColor=#DDA15E;fontColor=#FEFAE0;fillColor=#BC6C25;" edge="1" parent="1" source="OaKwWm5t6I1wfVNcC-3h-801" target="OaKwWm5t6I1wfVNcC-3h-805">
          <mxGeometry relative="1" as="geometry" />
        </mxCell>
        <mxCell id="OaKwWm5t6I1wfVNcC-3h-820" style="edgeStyle=orthogonalEdgeStyle;rounded=0;orthogonalLoop=1;jettySize=auto;html=1;entryX=0;entryY=0.5;entryDx=0;entryDy=0;strokeColor=#DDA15E;fontColor=#FEFAE0;fillColor=#BC6C25;" edge="1" parent="1" source="OaKwWm5t6I1wfVNcC-3h-801" target="OaKwWm5t6I1wfVNcC-3h-807">
          <mxGeometry relative="1" as="geometry" />
        </mxCell>
        <mxCell id="OaKwWm5t6I1wfVNcC-3h-821" style="edgeStyle=orthogonalEdgeStyle;rounded=0;orthogonalLoop=1;jettySize=auto;html=1;entryX=0;entryY=0.5;entryDx=0;entryDy=0;strokeColor=#DDA15E;fontColor=#FEFAE0;fillColor=#BC6C25;" edge="1" parent="1" source="OaKwWm5t6I1wfVNcC-3h-801" target="OaKwWm5t6I1wfVNcC-3h-810">
          <mxGeometry relative="1" as="geometry" />
        </mxCell>
        <mxCell id="OaKwWm5t6I1wfVNcC-3h-822" style="edgeStyle=orthogonalEdgeStyle;rounded=0;orthogonalLoop=1;jettySize=auto;html=1;entryX=0;entryY=0.5;entryDx=0;entryDy=0;strokeColor=#DDA15E;fontColor=#FEFAE0;fillColor=#BC6C25;" edge="1" parent="1" source="OaKwWm5t6I1wfVNcC-3h-801" target="OaKwWm5t6I1wfVNcC-3h-811">
          <mxGeometry relative="1" as="geometry" />
        </mxCell>
        <mxCell id="OaKwWm5t6I1wfVNcC-3h-801" value="间接连接" style="rounded=1;whiteSpace=wrap;html=1;strokeColor=#6c8ebf;fillColor=#dae8fc;fontStyle=1" vertex="1" parent="1">
          <mxGeometry x="20" y="3274" width="100" height="64" as="geometry" />
        </mxCell>
        <mxCell id="OaKwWm5t6I1wfVNcC-3h-804" value="沪深港通&lt;div&gt;交易/结算&lt;/div&gt;" style="rounded=1;whiteSpace=wrap;html=1;strokeColor=#6c8ebf;fillColor=#dae8fc;fontStyle=1" vertex="1" parent="1">
          <mxGeometry x="180" y="3040" width="100" height="44" as="geometry" />
        </mxCell>
        <mxCell id="OaKwWm5t6I1wfVNcC-3h-805" value="沪深港通&lt;div&gt;存管&lt;/div&gt;" style="rounded=1;whiteSpace=wrap;html=1;strokeColor=#6c8ebf;fillColor=#dae8fc;fontStyle=1" vertex="1" parent="1">
          <mxGeometry x="180" y="3220" width="100" height="30" as="geometry" />
        </mxCell>
        <mxCell id="OaKwWm5t6I1wfVNcC-3h-806" value="澳新&lt;div&gt;交易&lt;/div&gt;" style="rounded=1;whiteSpace=wrap;html=1;strokeColor=#6c8ebf;fillColor=#dae8fc;fontStyle=1" vertex="1" parent="1">
          <mxGeometry x="180" y="3104" width="100" height="34" as="geometry" />
        </mxCell>
        <mxCell id="OaKwWm5t6I1wfVNcC-3h-807" value="澳新&lt;div&gt;结算/存管&lt;/div&gt;" style="rounded=1;whiteSpace=wrap;html=1;strokeColor=#6c8ebf;fillColor=#dae8fc;fontStyle=1" vertex="1" parent="1">
          <mxGeometry x="180" y="3270" width="100" height="30" as="geometry" />
        </mxCell>
        <mxCell id="OaKwWm5t6I1wfVNcC-3h-808" value="&lt;div&gt;深 圳B 转 H 模式交易&lt;/div&gt;" style="rounded=1;whiteSpace=wrap;html=1;strokeColor=#6c8ebf;fillColor=#dae8fc;fontStyle=1" vertex="1" parent="1">
          <mxGeometry x="180" y="3148" width="100" height="36" as="geometry" />
        </mxCell>
        <mxCell id="OaKwWm5t6I1wfVNcC-3h-810" value="深 圳B 转 H 模式&lt;br&gt;&lt;div&gt;结算/存管&lt;/div&gt;" style="rounded=1;whiteSpace=wrap;html=1;strokeColor=#6c8ebf;fillColor=#dae8fc;fontStyle=1" vertex="1" parent="1">
          <mxGeometry x="180" y="3320" width="100" height="30" as="geometry" />
        </mxCell>
        <mxCell id="OaKwWm5t6I1wfVNcC-3h-811" value="澳美&lt;br&gt;&lt;div&gt;交易/结算/存管&lt;/div&gt;" style="rounded=1;whiteSpace=wrap;html=1;strokeColor=#6c8ebf;fillColor=#dae8fc;fontStyle=1" vertex="1" parent="1">
          <mxGeometry x="180" y="3380" width="100" height="30" as="geometry" />
        </mxCell>
        <mxCell id="OaKwWm5t6I1wfVNcC-3h-814" style="edgeStyle=orthogonalEdgeStyle;rounded=0;orthogonalLoop=1;jettySize=auto;html=1;entryX=0;entryY=0.5;entryDx=0;entryDy=0;strokeColor=#DDA15E;fontColor=#FEFAE0;fillColor=#BC6C25;" edge="1" parent="1" source="OaKwWm5t6I1wfVNcC-3h-812" target="OaKwWm5t6I1wfVNcC-3h-800">
          <mxGeometry relative="1" as="geometry" />
        </mxCell>
        <mxCell id="OaKwWm5t6I1wfVNcC-3h-815" style="edgeStyle=orthogonalEdgeStyle;rounded=0;orthogonalLoop=1;jettySize=auto;html=1;entryX=0;entryY=0.5;entryDx=0;entryDy=0;strokeColor=#DDA15E;fontColor=#FEFAE0;fillColor=#BC6C25;" edge="1" parent="1" source="OaKwWm5t6I1wfVNcC-3h-812" target="OaKwWm5t6I1wfVNcC-3h-801">
          <mxGeometry relative="1" as="geometry" />
        </mxCell>
        <mxCell id="OaKwWm5t6I1wfVNcC-3h-812" value="交易所连接模式" style="rounded=1;whiteSpace=wrap;html=1;strokeColor=#6c8ebf;fillColor=#dae8fc;fontStyle=1" vertex="1" parent="1">
          <mxGeometry x="-170" y="3190" width="100" height="64" as="geometry" />
        </mxCell>
        <mxCell id="OaKwWm5t6I1wfVNcC-3h-831" style="edgeStyle=orthogonalEdgeStyle;rounded=0;orthogonalLoop=1;jettySize=auto;html=1;entryX=0;entryY=0.5;entryDx=0;entryDy=0;strokeColor=#DDA15E;fontColor=#FEFAE0;fillColor=#BC6C25;" edge="1" parent="1" source="OaKwWm5t6I1wfVNcC-3h-813" target="OaKwWm5t6I1wfVNcC-3h-828">
          <mxGeometry relative="1" as="geometry" />
        </mxCell>
        <mxCell id="OaKwWm5t6I1wfVNcC-3h-832" style="edgeStyle=orthogonalEdgeStyle;rounded=0;orthogonalLoop=1;jettySize=auto;html=1;entryX=0;entryY=0.5;entryDx=0;entryDy=0;strokeColor=#DDA15E;fontColor=#FEFAE0;fillColor=#BC6C25;" edge="1" parent="1" source="OaKwWm5t6I1wfVNcC-3h-813" target="OaKwWm5t6I1wfVNcC-3h-827">
          <mxGeometry relative="1" as="geometry" />
        </mxCell>
        <mxCell id="OaKwWm5t6I1wfVNcC-3h-833" style="edgeStyle=orthogonalEdgeStyle;rounded=0;orthogonalLoop=1;jettySize=auto;html=1;entryX=0;entryY=0.5;entryDx=0;entryDy=0;strokeColor=#DDA15E;fontColor=#FEFAE0;fillColor=#BC6C25;" edge="1" parent="1" source="OaKwWm5t6I1wfVNcC-3h-813" target="OaKwWm5t6I1wfVNcC-3h-829">
          <mxGeometry relative="1" as="geometry" />
        </mxCell>
        <mxCell id="OaKwWm5t6I1wfVNcC-3h-813" value="CSD连接模式" style="rounded=1;whiteSpace=wrap;html=1;strokeColor=#6c8ebf;fillColor=#dae8fc;fontStyle=1" vertex="1" parent="1">
          <mxGeometry x="-170" y="3407" width="100" height="64" as="geometry" />
        </mxCell>
        <mxCell id="OaKwWm5t6I1wfVNcC-3h-823" value="DR 连接模式" style="rounded=1;whiteSpace=wrap;html=1;strokeColor=#6c8ebf;fillColor=#dae8fc;fontStyle=1" vertex="1" parent="1">
          <mxGeometry x="-170" y="3540" width="100" height="64" as="geometry" />
        </mxCell>
        <mxCell id="OaKwWm5t6I1wfVNcC-3h-824" value="&lt;font style=&quot;color: rgb(0, 0, 0);&quot;&gt;交易结算均连接或交易连接结算不连&lt;/font&gt;" style="text;strokeColor=none;align=center;fillColor=none;html=1;verticalAlign=middle;whiteSpace=wrap;rounded=0;fontColor=#FEFAE0;" vertex="1" parent="1">
          <mxGeometry x="-170" y="3260" width="100" height="30" as="geometry" />
        </mxCell>
        <mxCell id="OaKwWm5t6I1wfVNcC-3h-825" value="&lt;font style=&quot;color: rgb(0, 0, 0);&quot;&gt;交易不连结算连&lt;/font&gt;" style="text;strokeColor=none;align=center;fillColor=none;html=1;verticalAlign=middle;whiteSpace=wrap;rounded=0;fontColor=#FEFAE0;" vertex="1" parent="1">
          <mxGeometry x="-170" y="3471" width="100" height="30" as="geometry" />
        </mxCell>
        <mxCell id="OaKwWm5t6I1wfVNcC-3h-827" value="美加连接" style="rounded=1;whiteSpace=wrap;html=1;strokeColor=#6c8ebf;fillColor=#dae8fc;fontStyle=1" vertex="1" parent="1">
          <mxGeometry x="30" y="3374" width="100" height="30" as="geometry" />
        </mxCell>
        <mxCell id="OaKwWm5t6I1wfVNcC-3h-828" value="欧 洲的T2S" style="rounded=1;whiteSpace=wrap;html=1;strokeColor=#6c8ebf;fillColor=#dae8fc;fontStyle=1" vertex="1" parent="1">
          <mxGeometry x="30" y="3424" width="100" height="30" as="geometry" />
        </mxCell>
        <mxCell id="OaKwWm5t6I1wfVNcC-3h-829" value="韩国KDS" style="rounded=1;whiteSpace=wrap;html=1;strokeColor=#6c8ebf;fillColor=#dae8fc;fontStyle=1" vertex="1" parent="1">
          <mxGeometry x="30" y="3474" width="100" height="30" as="geometry" />
        </mxCell>
        <mxCell id="OaKwWm5t6I1wfVNcC-3h-835" value="&lt;font style=&quot;color: rgb(0, 0, 0);&quot;&gt;交易结算均不连接&lt;/font&gt;" style="text;strokeColor=none;align=center;fillColor=none;html=1;verticalAlign=middle;whiteSpace=wrap;rounded=0;fontColor=#FEFAE0;" vertex="1" parent="1">
          <mxGeometry x="-170" y="3604" width="100" height="30" as="geometry" />
        </mxCell>
      </root>
    </mxGraphModel>
  </diagram>
</mxfile>
